<?xml version="1.0" encoding="UTF-8"?>
<svg xmlns="http://www.w3.org/2000/svg" version="1.1" viewBox="0 0 560 560">
  <defs>
    <style>
      .cls-1 {
        fill: #fff;
      }

      .cls-2 {
        fill: #282828;
      }

      .cls-3 {
        fill: aqua;
      }
    </style>
  </defs>
  <!-- Generator: Adobe Illustrator 28.7.1, SVG Export Plug-In . SVG Version: 1.2.0 Build 142)  -->
  <g>
    <g id="Layer_1">
      <rect class="cls-2" x="-12.44" y="-10.19" width="584.87" height="584.87"/>
      <path class="cls-1" d="M197.79,452.33c1.86,14.97,7.3,29.14,14.32,42.41,7.28,13.77,16.23,26.55,24.84,39.5,4.95,7.46,9.8,15,14.17,22.81.94,1.68,3.54.17,2.59-1.51-7.61-13.61-16.65-26.33-25.19-39.35s-16.13-25.62-21.51-39.74c-2.96-7.77-5.19-15.86-6.21-24.12-.24-1.89-3.24-1.91-3,0h0Z"/>
      <path class="cls-1" d="M399.16,458.75c14.6,22.44,24.61,47.73,29.37,74.08,1.35,7.49,2.26,15.04,2.74,22.64.12,1.92,3.12,1.93,3,0-1.72-27.11-8.89-53.77-20.99-78.09-3.45-6.93-7.3-13.65-11.52-20.14-1.05-1.61-3.65-.11-2.59,1.51h0Z"/>
    </g>
    <g id="Layer_2">
      <path class="cls-1" d="M560.21,555.54c-7.51-11.53-16.31-22.2-26.23-31.74-9.93-9.55-20.92-17.67-32.61-24.92-3.31-2.05-6.6-4.16-9.78-6.42-1.32-.94-2.56-2.02-3.94-2.87-1.44-.9-3.05-1.51-4.63-2.12-7.07-2.71-13.92-6.11-20.72-9.42s-14.01-7.08-20.95-10.74c-6.56-3.45-13.23-6.73-20.26-9.11-4.14-1.4-8.38-2.65-12.66-3.58-1.88-.4-3.63-.76-5.54-.36-1.54.32-2.97,1.01-4.48,1.42-1.7.46-3.22.29-4.29-1.25s-1.97-3.88-1.36-5.67,2.43-3.07,3.75-4.21c1.63-1.41,3.37-2.68,5.18-3.86,1.61-1.05.11-3.65-1.51-2.59-3.02,1.97-6.16,4.23-8.55,6.95-2.57,2.92-2.34,6.34-.75,9.7,1.44,3.05,4.13,4.62,7.48,4.02,1.48-.27,2.86-.91,4.29-1.34,1.69-.51,3.05-.33,4.75.04,7.63,1.62,15.16,4.13,22.26,7.37s13.97,7.15,20.96,10.72c7.16,3.67,14.41,7.18,21.72,10.54,3.39,1.55,6.78,3.06,10.26,4.41s6.04,3.56,9.01,5.62c6.15,4.25,12.68,7.92,18.81,12.19,5.71,3.98,11.18,8.31,16.39,12.94,10.5,9.35,19.91,19.92,27.91,31.48.99,1.43,1.96,2.87,2.9,4.33,1.05,1.61,3.65.11,2.59-1.51h0Z"/>
      <path class="cls-1" d="M5.71,550.42c6.42-9.89,15.61-17.42,25.06-24.28,4.95-3.59,9.91-7.32,15.2-10.39s10.55-5.04,16.15-6.74c11.3-3.41,23.01-5.28,34.11-9.38,5.69-2.1,11.62-3,17.55-4.14s11.8-3,17.5-5.29,10.96-4.81,16.17-7.76c5.53-3.14,10.79-6.71,16.31-9.87s11.39-4.83,17.04-7.43c5.09-2.34,9.75-5.47,14.46-8.47s9.68-6.07,15.06-7.94c5.17-1.79,10.79-2.1,15.75-4.52s7.87-6.78,10.69-11.14c3.01-4.65,4.71-8.88,3.36-14.42-.74-3.03-1.95-5.93-2.67-8.96s-1.55-5.87-2.81-8.72c-2.8-6.34-6.31-12.2-8.43-18.86-4.22-13.25-5.09-27.25-7.91-40.81-.12-.57-.83-1.18-1.45-1.1-7.66,1.02-11.04-7.63-12.84-13.52-2.11-6.91-4-13.77-4.78-20.99s-.6-14.43-1.82-21.53c-1.36-7.86-2.18-15.38-1.67-23.38.18-2.79.13-6.18,1.63-8.65,1.79-2.94,5.28-1.46,8-2.61,2.07-.87,3.12-2.54,2.84-4.78-.46-3.69-1.68-7.36-2.3-11.04-2.29-13.59-2.48-27.53-.92-41.22,3.17-27.75,13.66-54.71,31.15-76.56,1.68-2.1,3.19-4.8,5.5-6.28,2.48-1.59,5.7-1.68,8.32-3.04,6.02-3.13,10.19-8.7,15.15-13.14,5.25-4.7,10.56-9.17,15.42-14.31s9.05-10.88,15-14.31c2.56-1.48,5.29-2.64,7.99-3.85,3.61-1.63,7.16-3.32,10.97-4.45,7.05-2.1,13.85-1.9,20.89.06s13.98,4.05,21.03,5.9,13.66,3.44,20.32,5.66,12.77,5.81,17.92,11.01c4.6,4.65,8.46,9.97,13.04,14.62,2.39,2.43,5.2,4.32,7.38,6.96,2.05,2.48,4.08,4.44,6.82,6.16s5.29,3.16,7.77,5.01c2.92,2.18,5.19,4.99,7.39,7.87,8,10.48,13.6,22.36,17.8,34.81,4.7,13.95,5.95,28.43,5.67,43.08-.07,3.73-.21,7.45-.46,11.17s-.1,8-.83,11.78c-.59,3.09-2.01,5.98-2.99,8.96-1.25,3.8-2.3,7.67-3.16,11.58-3.17,14.4-2.78,28.9-3.09,43.55-.32,15.3-1.22,30.61-3.95,45.69-2.11,11.69-4.16,23.4-6.79,34.98-5.12,22.48-12.96,44.77-28.52,62.26-3.97,4.46-8.34,8.52-13.01,12.23-1.51,1.2.62,3.31,2.12,2.12,19.35-15.38,31.25-36.68,38.22-60.1,3.48-11.69,5.89-23.66,8.12-35.64,2.61-14.06,5.08-28.05,6.02-42.34.53-8,.75-16.01.87-24.02.11-7.6-.08-15.23.58-22.81s2.16-15.62,4.38-23.17c.92-3.14,2.1-6.17,3.16-9.26,1.25-3.63,1.26-7.21,1.51-11,.99-14.96,1.52-30.04-1.09-44.88-2.36-13.42-7.48-26.85-14.19-38.7-3.32-5.86-7.19-11.62-11.69-16.65-2.12-2.37-4.65-4.23-7.29-5.98-3.11-2.06-6.69-3.67-9.26-6.42-2.06-2.21-3.76-4.44-6.11-6.4-2.92-2.44-5.42-5.23-7.9-8.11-4.49-5.2-8.83-10.59-14.39-14.71s-11.78-6.21-18.18-8.05c-7.58-2.17-15.23-4.11-22.86-6.11-6.73-1.76-13.34-4.43-20.26-5.39s-14.24.49-20.89,3.19c-5.89,2.39-12.45,4.93-17.56,8.75-5.57,4.17-9.98,10.15-14.81,15.12-5.19,5.33-11.17,9.76-16.41,15.02-2.23,2.23-4.33,4.56-6.78,6.56-1.42,1.16-2.95,2.27-4.58,3.12s-3.55,1.19-5.34,1.77c-2.71.87-4.61,2.33-6.4,4.54-2.12,2.61-4.19,5.28-6.21,7.96-4.26,5.65-8.03,11.66-11.33,17.91-6.56,12.44-11.36,25.84-14.4,39.56s-4.37,28.49-3.55,42.84c.39,6.77,1.24,13.52,2.57,20.17.33,1.66.94,3.39,1.12,5.07.15,1.4.27,2.72-1.37,3.15-.82.22-1.74.1-2.58.15-2.66.17-4.8,1.13-6.2,3.49-1.13,1.9-1.48,4.15-1.72,6.32-.46,4.15-.59,8.35-.48,12.52.21,7.95,2.31,15.61,2.73,23.54.39,7.35.83,14.73,2.34,21.95.73,3.47,1.81,6.83,2.79,10.23.93,3.2,1.88,6.42,3.39,9.4,2.48,4.92,7.1,9.42,13.02,8.63l-1.45-1.1c2.49,11.97,3.46,24.25,6.55,36.1,1.47,5.65,3.49,11.11,6.13,16.32s5.12,10.21,6.46,15.96,4.77,11.26,1.96,17.1c-2.35,4.88-6.11,10.71-10.88,13.47s-10.86,2.95-16.11,4.78-9.59,4.35-14.06,7.15-9.08,5.96-13.91,8.45c-5.45,2.81-11.43,4.4-16.88,7.21s-10.9,6.58-16.36,9.82-10.87,5.97-16.59,8.34-11.15,4.25-17,5.45-11.96,1.93-17.69,3.9c-10.94,3.77-22.15,6.11-33.27,9.25-5.97,1.69-11.87,3.75-17.36,6.67-5.82,3.09-11.15,7.13-16.48,10.98-10.13,7.31-19.95,15.27-26.82,25.85-1.05,1.62,1.54,3.13,2.59,1.51h0Z"/>
      <path class="cls-1" d="M219.11,342.58c-1.42-12.71-2.84-25.42-4.26-38.14l-2.09-18.72c-.68-6.11-1.5-12.22-1.95-18.35s-.45-13.14-2.45-19.26c-.6-1.83-3.49-1.05-2.89.8,1.75,5.37,1.84,11.3,2.23,16.89.41,6.01,1.17,11.99,1.84,17.97,1.4,12.51,2.8,25.01,4.19,37.52.79,7.1,1.59,14.2,2.38,21.3.21,1.9,3.21,1.92,3,0h0Z"/>
      <path class="cls-1" d="M208.43,248.32c.01-.19,0-.38-.01-.57-.03-.31-.07-.62-.15-.92s-.21-.58-.33-.86c-.08-.17-.17-.34-.28-.5-.22-.33-.51-.58-.9-.69-.2-.06-.4-.07-.6-.03-.2,0-.39.07-.56.18-.32.21-.6.51-.69.9s-.07.82.15,1.16c.13.19.23.39.32.59l-.15-.36c.11.28.19.56.23.86l-.05-.4c.03.21.04.43.02.64,0,.21.04.4.13.58.06.19.16.35.31.48.14.15.3.25.48.31.18.09.37.14.58.13.39-.02.79-.14,1.06-.44l.23-.3c.14-.23.2-.49.2-.76h0Z"/>
      <path class="cls-1" d="M453.45,270.82c1.29-3.72,2.96-7.28,4.98-10.66.23-.38.44-.77.7-1.13.1-.13.76-.75.48-.67s-.06-.06.06.2c.07.16.25.33.35.47.29.42.55.87.78,1.33.72,1.45,1.1,3.08,1.32,4.68.5,3.54.57,7.3.5,10.87-.04,1.9-.22,3.77-.74,5.6-.48,1.66-1.17,3.24-1.79,4.84-1.43,3.66-1.85,7.25-1.67,11.17.19,4.13.7,8.23.52,12.37-.35,8.2-2.5,16.28-4.31,24.25-.49,2.15-1.03,4.29-1.72,6.39s-1.36,4.11-2.6,5.83c-2.13,2.94-5.73,4.39-7.96,7.29-1.17,1.53,1.43,3.03,2.59,1.51,2.13-2.78,5.59-4.13,7.71-6.95,2.46-3.27,3.54-7.76,4.49-11.66,1.04-4.3,1.95-8.66,2.88-12.98s1.66-8.75,1.89-13.19-.39-9.04-.53-13.58c-.07-2.18-.04-4.38.53-6.5.5-1.87,1.29-3.64,1.98-5.45,1.49-3.87,1.83-7.75,1.7-11.88-.12-3.78-.08-7.76-1.15-11.42-.54-1.86-1.4-3.82-2.75-5.23-1.53-1.6-3.59-.79-4.8.74-1.46,1.84-2.53,4.12-3.55,6.23s-1.98,4.44-2.77,6.73c-.64,1.83,2.26,2.61,2.89.8h0Z"/>
      <path class="cls-1" d="M391.28,446.4c-9.39,5.54-19.15,10.52-29.49,14.02s-21.46,5.16-32.56,4.6c-22.4-1.14-43.04-10.83-60.95-23.83-4.99-3.62-10-7.21-15.01-10.8s-9.44-8-13.38-12.75c-1.23-1.49-3.34.64-2.12,2.12,3.6,4.35,7.63,8.41,12.12,11.84s9.06,6.43,13.52,9.72c9.18,6.77,18.6,12.94,29.06,17.57,20.79,9.2,44.18,12.22,66.2,5.67,12.03-3.58,23.35-9.21,34.12-15.57,1.66-.98.15-3.58-1.51-2.59h0Z"/>
      <path class="cls-1" d="M451.21,265.55c-4.36-15.5-1.98-31.71-.69-47.47.63-7.76.73-15.45.46-23.23s-.71-14.82-2-22.13-3.45-14.39-6.99-20.88-6.8-13.62-11.36-19.62-10.45-11.1-16.55-15.61-12.33-8.34-19.13-11.45c-13.41-6.13-27.85-9.38-42.42-11.25-15.9-2.05-31.92-1.88-47.72.9-7.89,1.39-15.54,3.52-23.15,5.98-6.67,2.16-13.4,4.39-19.19,8.46s-11.01,9.57-15.57,15.14-8.72,11.66-12.62,17.8c-1.96,3.08-3.86,6.19-5.77,9.31-2.03,3.33-4.06,6.67-5.47,10.32-2.86,7.44-2.49,15.38-3.71,23.13-.64,4.03-1.66,7.99-2.67,11.94s-1.92,7.93-2.88,11.9c-2,8.28-4.12,16.54-6.34,24.77-1.07,3.96-2.17,7.9-3.28,11.84-.53,1.86,2.37,2.65,2.89.8,2.26-7.96,4.42-15.95,6.48-23.97s3.83-15.92,5.86-23.86c.99-3.88,2.01-7.76,2.69-11.7s.84-7.56,1.21-11.36.94-7.7,2.18-11.39,3.28-7.05,5.31-10.37c7.44-12.19,15-24.56,25.16-34.72,5.05-5.04,10.56-9.23,17.22-11.91s13.91-4.92,20.97-6.74c15.34-3.96,31.28-5.42,47.08-4.4,14.55.94,29.31,3.48,43.09,8.31s26.82,12.63,37.44,22.77c2.67,2.55,5.2,5.28,7.33,8.3s3.97,6.36,5.72,9.67c3.45,6.52,7.16,12.79,9.26,19.91,2.06,6.98,3,14.23,3.5,21.47.5,7.35.83,14.8.56,22.17-.55,15.57-3.61,31.14-1.93,46.74.41,3.8,1.09,7.55,2.13,11.23.52,1.86,3.42,1.07,2.89-.8h0Z"/>
      <path class="cls-3" d="M453.59,261.98c-.55-9.6,2.43-18.81,5.41-27.81s5.56-17.79,5.55-27.09c0-4.77-.34-9.52-.5-14.28s.28-9.58-.35-14.37c-.58-4.41-1.75-8.7-2.84-13s-1.8-8.71-2.88-13.03c-2.13-8.51-5.77-16.57-10.38-24.02-2.19-3.54-4.63-6.93-7.25-10.16s-5.34-6.46-8.59-8.99c-3.07-2.4-6.59-4.24-9.46-6.89-1.43-1.32-2.66-2.85-4.11-4.17-1.52-1.39-3.14-2.69-4.72-4.02-3.2-2.69-5.82-5.68-8.45-8.9s-5.15-6.2-8.13-8.91c-3.16-2.88-6.71-4.88-10.4-6.98s-7.18-4.7-11.33-6.01c-8.67-2.74-17.71-4.05-26.36-6.89-4.4-1.44-8.74-2.95-13.32-3.72s-9.06-1.03-13.6-.73c-2.2.14-4.4.42-6.58.8-.99.18-2.02.31-2.93.75-1.03.49-1.94,1.09-3.02,1.49-4.2,1.58-8.39,3.24-12.37,5.32-3.77,1.97-7.36,4.35-10.47,7.27-1.7,1.6-3.19,3.4-4.84,5.05-1.51,1.51-3.32,2.71-4.78,4.27s-2.38,3.28-3.79,4.75c-.77.81-1.59,1.57-2.41,2.33s-1.97,1.48-2.63,2.38c-.12.16-.16.35-.27.51.15-.22.33-.31.02-.15-.21.1-.42.37-.6.52-.51.41-1.05.77-1.55,1.18-1.68,1.35-3.25,2.85-4.89,4.24-3.3,2.81-6.34,5.96-10.05,8.24-1.74,1.07-3.58,1.99-5.49,2.72s-3.85,1.43-5.57,2.63c-3.18,2.21-5.69,5.17-7.97,8.26s-4.64,6.58-6.65,10.05c-2.28,3.93-4.28,8.01-6.28,12.09s-4.18,8.14-6.13,12.28-3.4,8.59-4.95,12.97-3.03,9.03-3.9,13.75-1.22,9.36-1.93,14.03-1.4,9.39-1.6,14.16c-.39,9.54.37,19.09,1.56,28.55.58,4.63,1.27,9.25,1.99,13.86.3,1.9,3.19,1.09,2.89-.8-1.45-9.28-2.76-18.6-3.3-27.98-.27-4.71-.34-9.43-.13-14.14s.94-9.24,1.62-13.86,1.06-9.38,1.97-14.02,2.34-8.88,3.88-13.23,2.99-8.69,5.01-12.88,3.98-7.87,5.92-11.82c3.75-7.62,7.75-15.02,12.87-21.83,2.2-2.93,4.74-5.84,7.96-7.68,1.8-1.03,3.84-1.56,5.73-2.4s3.63-1.81,5.3-2.94c3.45-2.34,6.41-5.34,9.57-8.04,1.55-1.32,3.07-2.77,4.63-4.03,1-.81,1.99-1.47,2.79-2.48.06-.08.33-.39.15-.23-.25.23.37-.19.36-.19.45-.31.85-.75,1.25-1.11.83-.75,1.65-1.51,2.44-2.3,1.47-1.47,2.53-3.21,3.87-4.78s3.16-2.82,4.71-4.26c1.64-1.53,3.06-3.29,4.65-4.86,6.3-6.23,14.56-9.51,22.67-12.66.89-.35,1.72-.74,2.54-1.23.96-.56,2.09-.69,3.17-.88,2.15-.38,4.33-.61,6.52-.71,4.52-.22,9.06.1,13.5.98s8.57,2.43,12.82,3.79,8.92,2.47,13.45,3.49c4.2.95,8.48,1.88,12.56,3.28,1.91.66,3.52,1.64,5.22,2.71,1.91,1.21,3.87,2.34,5.84,3.45,3.64,2.04,6.93,4.17,9.92,7.12,2.82,2.78,5.32,5.85,7.82,8.92s5.37,5.91,8.52,8.53c1.48,1.23,2.95,2.45,4.34,3.78s2.61,2.86,4.1,4.12c2.93,2.48,6.37,4.28,9.33,6.72s5.74,5.74,8.23,8.83c5.21,6.47,9.53,13.7,12.85,21.32,3.57,8.2,4.76,16.98,6.96,25.58,1.09,4.26,2.24,8.55,2.62,12.95.42,4.75-.04,9.54.22,14.3s.47,9.16.39,13.73-1.04,9.07-2.03,13.5c-2.03,9.06-5.96,17.59-7.82,26.71-.89,4.34-1.35,8.77-1.1,13.2.11,1.92,3.11,1.93,3,0h0Z"/>
      <path class="cls-3" d="M207.79,246.89c3.92-15.43,8.42-30.73,11.74-46.31.82-3.85,1.59-7.72,2.35-11.58s1.39-7.62,1.4-11.48c0-3.44.26-6.78,1.16-10.11s2.44-6.65,4.22-9.75c6.96-12.16,14.31-24.28,23.95-34.54,4.82-5.13,10.18-9.75,16.18-13.45,3.1-1.91,6.37-3.62,9.76-4.95s6.95-2.09,10.52-2.73,7.45-1.23,11.09-2.21,7.53-1.94,11.41-2.51c7.61-1.14,15.35-1.25,23.03-.97s15.62.71,23.27,2.06,14.36,3.37,21.3,5.84c3.56,1.27,7.09,2.64,10.6,4.05,3.31,1.33,6.66,2.6,9.86,4.18,6.17,3.04,11.79,7.07,16.93,11.63s9.85,9.34,14.14,14.5c2.11,2.55,3.29,5.71,4.41,8.78s2.34,6.1,3.86,9.03c1.76,3.39,3.3,6.77,4.27,10.48s1.38,7.45,1.6,11.26c.46,7.91,1.67,15.75,2.05,23.67s.47,16.12-.49,24.06c-.49,4.06-.86,8.05-.93,12.14s-.02,8.3.16,12.44c.17,3.9.45,7.8.83,11.68.19,1.9,3.19,1.92,3,0-.81-8.26-1.15-16.57-.97-24.88.09-4.08.53-8.06,1-12.11s.58-8.32.61-12.49c.08-8.29-.48-16.54-1.38-24.78-.83-7.71-.77-15.63-2.96-23.12-1.06-3.62-2.69-6.96-4.42-10.29-1.61-3.11-2.74-6.34-3.98-9.6-1.17-3.07-2.53-6.05-4.68-8.57-2.29-2.68-4.71-5.26-7.16-7.78-4.77-4.91-9.88-9.52-15.51-13.43-5.99-4.15-12.5-6.94-19.23-9.64-7.06-2.84-14.2-5.52-21.53-7.55s-15-3.25-22.71-3.86-15.8-1.06-23.7-.76-15.62,1.47-23.25,3.56-15.13,2.29-22.26,5.17-13.03,6.62-18.66,11.28c-11.05,9.15-19.49,21-26.9,33.17-3.67,6.02-7.78,12.17-9.88,18.96-1.03,3.34-1.55,6.84-1.61,10.33-.07,4-.4,7.82-1.15,11.76-3.06,15.89-7.08,31.49-11.24,47.12-1.02,3.81-2.02,7.63-2.99,11.46-.48,1.87,2.42,2.67,2.89.8h0Z"/>
      <path class="cls-3" d="M449.41,265.31c.05,0,.11,0,.16,0,.12,0,.07,0-.13-.02,0,0,.21.06.21.06-.17-.08-.21-.09-.11-.04.05.02.1.05.14.08.23.13-.1-.13,0,0,.06.08.27.19.02-.02.07.06.09.16.14.23.1.14-.07-.27,0,0,.08.3,0-.31,0,.03.03.78.67,1.54,1.5,1.5.88-.04,1.41-.66,1.5-1.5.04-.42-.07.3.02-.12.02-.11.04-.21.07-.32.06-.23.13-.46.22-.68-.07.2-.02.06.03-.06.05-.1.1-.19.15-.29.06-.11.13-.22.2-.33.04-.06.26-.37.07-.12.4-.51.62-1.21.23-1.82-.33-.52-1.07-.94-1.69-.69-.88.35-1.56.89-2.25,1.53-.13.12-.26.24-.39.35-.06.06-.13.11-.2.17-.22.19.01.05.02-.01-.01.09-.39.23-.47.29-.13.09.33-.09.04-.02-.1.02-.19.05-.29.07-1.04.21-1.53,1.82-.66,2.51.34.27.75.52,1.02.85l-.39-.66-.02-.21.2-.76c.84-.64,1.44-.7,1.79-.18.07.09.06.08-.02-.04-.04-.08-.09-.16-.13-.24-.06-.12-.12-.24-.18-.36-.02-.03-.16-.36-.09-.19s-.06-.16-.07-.2c-.04-.11-.08-.21-.11-.32-.08-.24-.14-.47-.2-.71-.05-.22-.09-.44-.13-.66.03.22,0,.06,0-.07-.01-.11-.02-.22-.03-.34-.03-.5-.01-.99.04-1.48l-2.56,1.06c.36.35.71.72,1.04,1.1.15.17.3.35.44.53.28.35-.16-.23.1.13.08.11.16.22.24.34.44.61,1.14.92,1.87.61s1.04-1.03.87-1.77c-.28-1.22-.55-2.43-.83-3.65-.17-.73-.94-1.17-1.65-1.07s-1.37.73-1.3,1.47c.09.95.32,1.83.76,2.68.39.76,1.03,1.67,1.79,2.11.82.48,1.83.25,2.36-.54.27-.4.33-.89.41-1.36.17-1.02.27-2.04.27-3.08l-2.95.4c.13.87.34,1.73.63,2.56.26.74,1.04,1.31,1.85,1.05s1.24-1.03,1.05-1.85l-.76-3.17c-.18-.76-1.09-1.29-1.85-1.05-.8.26-1.24,1.03-1.05,1.85l.76,3.17,2.89-.8c-.29-.83-.5-1.69-.63-2.56-.11-.74-.99-1.16-1.65-1.07-.73.1-1.3.72-1.3,1.47,0,.6-.03,1.2-.09,1.79,0,.06-.06.48-.02.19-.02.15-.05.3-.07.44-.02.12-.04.25-.07.37-.01.07-.03.15-.04.22-.04.16-.03.13.03-.09l.54-.54-.08.05.76-.2h-.12c.25.07.5.14.76.21.12.13.12.14,0,.02-.06-.06-.12-.11-.17-.17-.11-.12-.22-.24-.32-.37.22.27-.03-.05-.05-.09-.09-.14-.17-.28-.25-.42-.04-.07-.22-.54-.1-.2-.04-.12-.08-.23-.12-.35-.05-.16-.09-.31-.12-.47-.02-.08-.03-.16-.04-.24.03.2.03.21.01.04l-2.95.4c.28,1.22.55,2.43.83,3.65l2.74-1.16c-.69-.97-1.45-1.88-2.3-2.71-.43-.42-1.08-.55-1.64-.31-.59.25-.86.76-.92,1.37-.21,1.94.21,3.93,1.09,5.67.26.51.57,1,1.06,1.31.69.44,1.66.32,2.24-.24.69-.66.68-1.73.06-2.43-.29-.32-.68-.58-1.02-.85l-.66,2.51c.89-.18,1.64-.74,2.3-1.34.26-.23.51-.48.77-.71.1-.09.22-.28.02-.03.05-.06.15-.11.21-.15.07-.05.14-.09.22-.13.09-.05.38-.17.01-.02l-1.46-2.51c-.94,1.21-1.48,2.5-1.64,4.03h3c-.07-1.8-1.59-3.36-3.43-3.3-.78.02-1.54.67-1.5,1.5s.66,1.53,1.5,1.5h0Z"/>
      <path class="cls-3" d="M449.27,253.82c-.13,2.53-.07,5.06.17,7.59.18,1.89,2.98,1.97,3,0,.07-9.24-1.81-18.8,1.26-27.76l-2.95-.4c-.27,7.01-1.07,13.98-2.4,20.86h2.89c-1.02-6.97-1.55-14.19.71-20.98.61-1.84-2.29-2.62-2.89-.8-2.42,7.32-1.8,15.08-.71,22.58.21,1.46,2.62,1.4,2.89,0,1.38-7.15,2.22-14.39,2.5-21.66.07-1.76-2.42-1.94-2.95-.4-3.16,9.23-1.29,19.04-1.37,28.56h3c-.24-2.53-.3-5.05-.17-7.59.1-1.93-2.9-1.92-3,0h0Z"/>
      <path class="cls-3" d="M456.22,233.71l-.03-9.16h-9l.17,11.62c.03,2.25,1.69,4.12,3.9,4.42,2.4.32,4.06-1.12,4.94-3.22,1.44-3.44,2.88-6.88,4.33-10.31l-8.84-1.2c-.04.77-.09,1.53-.19,2.3.08-.64-.03.15-.07.4-.07.38-.14.76-.22,1.13-.32,1.51-.76,2.98-1.29,4.42l8.84,1.2c.68-12.68,1.05-25.38,1.12-38.08h-9c.58,7.79,1.16,15.57,1.74,23.36.17,2.25,1.58,4.11,3.9,4.42s4.07-1.12,4.94-3.22c2.34-5.7,2.78-11.83,1.88-17.88-.33-2.2-2.96-3.49-4.94-3.22-2.15.29-3.95,2.17-3.9,4.42.02.89.01,1.78-.05,2.67-.03.4-.06.81-.11,1.21.08-.73-.12.68-.12.72h8.68c-1.47-4.82-2.95-9.64-4.42-14.45-.56-1.83-2.34-3.39-4.34-3.3-1.81.08-4.05,1.32-4.34,3.3-1,6.8-1.68,13.64-1.91,20.51h9c.25-8.5.69-17,1.33-25.48l-8.84,1.2c1.48,5.33,2.72,10.71,3.73,16.15.41,2.2,2.9,3.5,4.94,3.22,2.39-.32,3.62-2.16,3.9-4.42l1.4-11.11-8.84,1.2.49,2.43c.45,2.19,2.87,3.5,4.94,3.22,2.37-.32,3.65-2.16,3.9-4.42.54-4.84.12-9.77-1.08-14.49-.96-3.76-6.32-4.4-8.22-1.07l-.12.21,1.61-1.61-.21.12,2.27-.61c2.58,2.8,3.57,3.45,2.97,1.97l-.45-1.07c-.14-.32-.29-.61-.48-.9-.72-1.11-1.6-1.95-2.69-2.7-1.59-1.09-3.72-1.7-5.65-1.47s-3.92,1.23-4.34,3.3c-.34,1.68-.68,3.36-1.03,5.05l8.84,1.2c-.07-.74-.12-1.48-.11-2.23,0-.45.02-.89.05-1.34,0-.1.14-1.24.07-.73-.07.47.15-.75.14-.72.08-.36.16-.73.26-1.09.21-.79.47-1.57.77-2.33l-7.52,1.99c-.53-.68.28.39.31.43.24.34.47.69.7,1.05.41.65.8,1.32,1.15,2,.16.31.32.62.47.94.03.06.52,1.3.22.47.29.79.58,1.58.82,2.38.65,2.16,2.71,3.52,4.94,3.22,2.02-.27,4.13-2.19,3.9-4.42l-.64-6.16-8.39,2.27.47,1.08c.71,1.61,2.9,2.36,4.48,2.15,1.78-.24,3.23-1.49,3.74-3.22,2.3-7.75-1.66-17.11-9.18-20.39-3.18-1.39-6.55.23-6.77,3.89-.15,2.45.16,4.96.85,7.31s3.2,3.9,5.54,3.14,3.76-3.09,3.14-5.54c-.2-.78-.38-1.57-.53-2.36-.08-.4-.15-.79-.21-1.19-.02-.11-.15-1.12-.07-.48-.19-1.61-.27-3.22-.26-4.83l-8.39,2.27,1.67,2.34c1.31,1.84,3.43,2.76,5.62,1.84,1.99-.84,3.28-3.15,2.61-5.31l-1.01-3.2-8.22,3.47,1.23,2.8c.9,2.04,3.76,2.62,5.62,1.84,2.2-.93,2.97-3.06,2.61-5.31-.05-.31-.1-.62-.15-.94.1.67-.04-.33-.05-.45-.08-.71-.15-1.41-.19-2.12-.1-1.42-.13-2.84-.1-4.26l-8.39,2.27c1.41,3.19,2.81,6.38,4.22,9.57.9,2.04,3.76,2.63,5.62,1.84,2.22-.94,2.94-3.05,2.61-5.31-.45-3.01-2.14-6.07-4.47-8.03-1.11-.94-2.29-1.67-3.53-2.4-.24-.14-.47-.3-.71-.44-.7-.41.32.4,0,.03-.08-.09-.57-.4-.56-.55l.34.42c-.23-.43-.21-.36.07.22-.73-2.13-2.64-3.53-4.94-3.22-2.02.27-4.13,2.19-3.9,4.42.08.78.16,1.56.24,2.34l8.39-2.27c-1.97-2.85-3.74-5.82-5.29-8.91-1-2-3.68-2.66-5.62-1.84s-3.26,3.15-2.61,5.31c.7,2.28,1.67,4.5,2.94,6.51l7.77-4.54-.17-.26c-1.31-1.95-4.02-2.99-6.16-1.61-1.94,1.25-3.02,4.07-1.61,6.16l.17.26c1.31,1.95,4.02,2.99,6.16,1.61,1.99-1.29,2.95-4.02,1.61-6.16-.5-.79-.88-1.63-1.35-2.44-.13-.29-.12-.26.02.09-.08-.2-.16-.4-.23-.6-.18-.47-.33-.94-.48-1.42l-8.22,3.47c1.55,3.09,3.32,6.07,5.29,8.91,1.1,1.59,3.1,2.71,5.08,2.07,1.75-.57,3.51-2.34,3.3-4.34-.08-.78-.16-1.56-.24-2.34l-8.84,1.2c1.09,3.17,3.44,4.72,6.18,6.38.24.14.46.29.7.44-.52-.33-.17-.15.13.13.24.22.45.45.67.68.56.58-.1-.28.11.15.14.27.33.56.49.82.43.7-.05-.33.09.14.21.68.4,1.32.5,2.03l8.22-3.47c-1.41-3.19-2.81-6.38-4.22-9.57-.76-1.73-3.35-2.63-5.08-2.07-1.91.62-3.27,2.29-3.3,4.34-.05,3.42.27,6.8.82,10.17l8.22-3.47-1.23-2.8c-.9-2.04-3.76-2.62-5.62-1.84-1.99.84-3.28,3.15-2.61,5.31l1.01,3.2,8.22-3.47-1.67-2.34c-1.13-1.58-3.08-2.72-5.08-2.07-1.89.61-3.3,2.3-3.3,4.34,0,3.79.48,7.59,1.4,11.26l8.68-2.39c-.12-.42-.24-.85-.34-1.28-.06-.29-.12-.58-.17-.87.05.39.05.43.02.1-.05-.97-.1-1.9-.04-2.87l-6.77,3.89c.67.29,1.31.63,1.91,1.03.14.09.28.19.41.29-.42-.33-.51-.4-.26-.19.24.23.5.44.74.68.28.28.53.57.79.86.6.67-.39-.69.1.16.34.58.69,1.15,1,1.75.51.98-.28-.88.07.16.11.32.22.63.31.96s.17.65.24.98c.04.22.08.44.12.66l-.08-.53c.26.36.03,1.58.03,2,0,.92.2-.88-.04.29-.08.38-.18.76-.29,1.14l8.22-1.07-.47-1.08c-.76-1.73-3.36-2.63-5.08-2.07s-3.51,2.34-3.3,4.34l.64,6.16,8.84-1.2c-1.25-4.17-3.29-7.84-5.98-11.25-.96-1.22-2.97-1.54-4.38-1.16-1.63.45-2.56,1.64-3.14,3.14-1.32,3.41-1.85,7.2-1.5,10.84.21,2.25,1.55,4.1,3.9,4.42,2.08.28,4.49-1.02,4.94-3.22.34-1.68.68-3.36,1.03-5.05l-4.34,3.3c.31-.04,1.71.07.49-.09.48.15.44.12-.11-.11.21.1.4.21.59.34-.45-.37-.5-.38-.13-.05-.33-.48-.36-.52-.09-.1.23.45.22.4-.04-.14.11.29.22.57.35.85,1.65,3.92,7.19,4.86,9.47.9l-8.22-1.07c.27,1.05.48,2.1.68,3.16.08.55.09.61.04.18.03.23.06.46.08.69.06.54.1,1.07.14,1.61.14,2.16.07,4.31-.17,6.46l8.84-1.2-.49-2.43c-.45-2.19-2.87-3.5-4.94-3.22-2.39.32-3.62,2.16-3.9,4.42l-1.4,11.11,8.84-1.2c-1.01-5.44-2.25-10.82-3.73-16.15-.6-2.16-2.74-3.52-4.94-3.22-2.31.31-3.73,2.16-3.9,4.42-.64,8.48-1.08,16.98-1.33,25.48-.07,2.36,2.12,4.61,4.5,4.5,2.51-.11,4.41-1.98,4.5-4.5.11-3.15.3-6.3.58-9.44.14-1.53.29-3.06.47-4.58.09-.8.19-1.61.3-2.41-.06.49,0-.07.03-.25.07-.48.14-.96.21-1.44h-8.68c1.47,4.82,2.95,9.64,4.42,14.45.56,1.83,2.34,3.39,4.34,3.3,1.85-.08,3.99-1.32,4.34-3.3.41-2.31.66-4.64.6-6.99l-8.84,1.2c-.07-.49-.01-.14.02.15s.06.6.08.9c.05.6.07,1.2.08,1.8s0,1.2-.04,1.81c-.02.3-.04.6-.06.9,0,.1-.13,1.25-.07.75.05-.42-.07.44-.08.52-.05.3-.11.59-.16.89-.12.59-.26,1.18-.41,1.76-.33,1.24-.75,2.44-1.24,3.63l8.84,1.2c-.58-7.79-1.16-15.57-1.74-23.36-.17-2.34-1.94-4.61-4.5-4.5s-4.49,1.98-4.5,4.5c-.07,12.7-.44,25.4-1.12,38.08-.12,2.23,1.8,4.14,3.9,4.42,2.32.31,4.15-1.09,4.94-3.22,1.26-3.41,1.91-7.01,2.1-10.64.12-2.23-1.8-4.14-3.9-4.42-2.4-.32-4.06,1.12-4.94,3.22l-4.33,10.31,8.84,1.2-.17-11.62c-.03-2.35-2.05-4.61-4.5-4.5s-4.51,1.98-4.5,4.5l.03,9.16c0,2.35,2.06,4.61,4.5,4.5s4.51-1.98,4.5-4.5h0Z"/>
      <path class="cls-3" d="M437.33,138.28c1.31,4.17,2.62,8.34,3.92,12.51.35,1.1,1.06,2.1,2.07,2.69s2.39.8,3.47.45c2.25-.73,3.9-3.13,3.14-5.54-1.31-4.17-2.62-8.34-3.92-12.51-.35-1.1-1.06-2.1-2.07-2.69s-2.39-.8-3.47-.45c-2.25.73-3.9,3.13-3.14,5.54h0Z"/>
      <path class="cls-3" d="M445.38,132.14c-8.67-8.91-18.63-16.43-28.71-23.65-9.38-6.73-18.83-13.6-29.29-18.58-6.07-2.89-12.43-5.18-19.08-6.29-2.31-.38-4.96.6-5.54,3.14s.81,4.57,3.14,5.54c3.69,1.53,7.39,3.05,11.07,4.6.29.12.59.25.88.37.47.2.59.25.35.15-.24-.1-.13-.05.35.15.22.09.44.19.66.28.96.41,1.91.81,2.87,1.22,1.84.79,3.67,1.58,5.5,2.39,7.38,3.26,14.68,6.69,21.83,10.44,1.16-2.74,2.31-5.48,3.47-8.22-12.07-2.26-23.88-5.75-35.23-10.43l-1.2,8.84c-1.05-.14.3.04.42.06.27.04.54.08.81.12.68.1,1.35.2,2.02.31,1.42.23,2.83.48,4.24.76,2.69.53,5.36,1.14,8.01,1.86s5.37,1.58,7.99,2.55c.57.21,1.14.43,1.71.66.32.13.63.25.94.38.81.33.21.09.05.02,1.36.59,2.71,1.22,4.04,1.89,2.4,1.22,4.73,2.58,6.96,4.09.56.38,1.11.77,1.65,1.16.22.16.43.32.65.48,1.07.79-.66-.56.37.29s2.07,1.72,3.06,2.63c3.76,3.49,7.03,7.47,10.54,11.2,4.11,4.37,8.72,8.54,14.28,10.95,1.8.78,4,.88,5.45-.7,1.33-1.45,1.78-3.71.7-5.45s-2.12-3.41-3.2-5.1l-7.77,4.54c1.92,2.56,3.83,5.14,5.38,7.93.38.68.71,1.37,1.06,2.06.42.86-.16-.51.2.46.12.33.24.65.36.98.24.72.45,1.45.62,2.19.09.41.17.81.23,1.23-.12-.81,0,.21.01.47l8.84-1.2c-3.12-11.75-8.95-22.58-16.86-31.8-1.02-1.19-2.92-1.56-4.38-1.16-1.67.46-2.51,1.64-3.14,3.14-3.46,8.2.17,17.18,3.55,24.74l7.77-4.54c-3.5-7.66-8.85-14.54-15.41-19.82-1.83-1.47-4.6-1.92-6.36,0s-1.67,4.48,0,6.36c2.51,2.83,5.01,5.66,7.43,8.57.54.65,1.07,1.3,1.6,1.96.31.38.61.77.92,1.15.1.13.98,1.26.46.58,1.1,1.44,2.18,2.91,3.21,4.4,2.04,2.96,3.92,6.04,5.52,9.26.43.86.83,1.74,1.22,2.62.55,1.24-.31-.82.18.45.15.38.3.77.45,1.15.68,1.81,1.25,3.66,1.72,5.54l8.68-2.39c-4.93-15.32-10.79-30.69-21.65-42.87v6.36c-.47.34-.5.38-.08.11-.56.21-.61.23-.13.07.84-.18-.74-.23.16-.02,1.1.26-.97-.12.15.04-.54-.26-.59-.28-.14-.05.2.11.39.24.56.39,1.52,1.14,4.22.64,5.45-.7,1.3-1.41,1.84-3.76.7-5.45-4.21-6.27-10.15-10.77-16.33-14.97-2.86-1.94-5.75-3.82-8.52-5.87-.15-.11-1.41-1.08-.55-.41-.29-.23-.58-.45-.86-.68-.66-.54-1.32-1.09-1.95-1.65-1.36-1.21-2.65-2.51-3.84-3.89-1.46-1.69-4.25-1.63-5.91-.35-1.84,1.42-2.18,3.77-1.16,5.81,5.32,10.61,12.93,19.83,20.44,28.94l5.45-7.07c-4.03-2.01-7.9-4.31-11.58-6.91-.95-.67-1.89-1.35-2.8-2.07.64.49-.44-.36-.46-.37-.45-.36-.9-.73-1.35-1.1-1.78-1.49-3.5-3.05-5.16-4.67l-4.38,7.52c2.78.61,5.51.61,8.27-.13,1.44-.38,2.83-1.65,3.14-3.14.89-4.25-.89-8.99-4.97-10.93-2.12-1.01-4.95-.66-6.16,1.61-1.06,2-.66,5.08,1.61,6.16.21.09.41.19.6.31-.45-.39-.49-.42-.12-.09.33.36.32.31-.04-.15.13.18.25.37.35.57-.63-.9.22.07.1.51-.08-.64-.1-.71-.08-.19-.03.51-.02.45.03-.2l3.14-3.14c-.44.12-.89.24-1.34.3.64-.09-.14-.02-.4-.02-.38,0-.76,0-1.14-.03.76.04-.46-.09-.61-.12-1.89-.42-4.12.26-5.08,2.07s-.77,4.02.7,5.45c6.81,6.65,14.65,12.27,23.17,16.52,2.03,1.01,4.38.68,5.81-1.16s1.09-4.15-.35-5.91c-1.78-2.15-3.55-4.31-5.3-6.49-.47-.59-.94-1.18-1.41-1.77-.19-.24-.37-.47-.56-.71-.13-.16-.63-.81-.27-.34-.88-1.13-1.74-2.28-2.58-3.44-3.33-4.56-6.39-9.31-8.92-14.36l-7.07,5.45c4.67,5.4,10.76,9.34,16.64,13.3,1.43.96,2.85,1.93,4.25,2.93.69.5,1.38,1.01,2.06,1.52-.84-.64.13.11.24.19.38.3.75.61,1.12.92,1.29,1.09,2.53,2.23,3.68,3.46.53.57,1.05,1.16,1.55,1.76.73.89-.21-.35.3.37.28.4.56.79.83,1.19l6.16-6.16c-3.49-2.63-8.28-1.78-11.43.86-1.93,1.63-1.5,4.68,0,6.36.65.74,1.3,1.48,1.92,2.24.27.33.53.65.79.99-.53-.68.48.64.57.76,1.08,1.47,2.1,2.98,3.06,4.52,1.97,3.16,3.72,6.45,5.29,9.82.39.83.77,1.67,1.14,2.51.17.39.34.78.51,1.17-.35-.81.31.74.36.88.7,1.71,1.36,3.43,2,5.15,1.32,3.59,2.53,7.21,3.7,10.85.72,2.24,3.15,3.91,5.54,3.14s3.76-3.09,3.14-5.54c-3.9-15.54-14.64-27.94-25.02-39.65l-6.36,6.36c3.09,2.49,5.9,5.3,8.34,8.43-.55-.7.31.42.41.56.28.39.56.78.83,1.17.54.79,1.06,1.59,1.56,2.41,1.06,1.75,2.01,3.57,2.87,5.43.98,2.15,4.25,2.84,6.16,1.61,2.23-1.44,2.65-3.85,1.61-6.16-.18-.4-.36-.8-.53-1.2-.05-.11-.54-1.25-.25-.55-.35-.82-.68-1.65-.99-2.49-.62-1.66-1.15-3.36-1.54-5.09-.09-.43-.17-.85-.25-1.28-.19-.96,0,.55-.06-.51-.05-.85-.11-1.69-.07-2.54.02-.42.04-.84.1-1.25-.09.67.01.09.09-.25.2-.91.5-1.78.86-2.63l-7.52,1.99c.46.54.92,1.08,1.37,1.63.22.27.44.55.66.83.09.11.66.87.21.26.8,1.08,1.6,2.16,2.35,3.28,1.55,2.29,2.97,4.66,4.26,7.1.63,1.19,1.22,2.4,1.78,3.62.15.32.29.64.44.97.04.09.48,1.11.28.63-.19-.45.27.67.26.64.11.26.21.53.31.79,1.03,2.64,1.9,5.34,2.63,8.08.58,2.17,2.76,3.52,4.94,3.22s4.05-2.18,3.9-4.42c-.52-7.65-4.61-13.9-9.09-19.87-1.41-1.88-3.95-3.04-6.16-1.61-1.99,1.28-2.97,4.03-1.61,6.16,1.08,1.69,2.14,3.39,3.2,5.1l6.16-6.16c-1.15-.5-2.27-1.06-3.35-1.71-.54-.32-1.06-.66-1.57-1.01-.26-.18-.51-.35-.76-.54-.17-.12-1.23-.96-.43-.31-1.96-1.6-3.8-3.32-5.55-5.14-3.69-3.84-7.05-7.98-10.91-11.65-8.46-8.01-19.11-13.2-30.22-16.42-6.38-1.85-12.91-3-19.48-3.88-2.21-.3-4.16,1.94-4.42,3.9-.32,2.39,1.12,4.07,3.22,4.94,11.35,4.68,23.16,8.17,35.23,10.43,2.23.42,4.39-.43,5.31-2.61.83-1.97.15-4.57-1.84-5.62-14.78-7.76-30.23-14.13-45.65-20.51l-2.39,8.68c2.84.47,5.64,1.15,8.39,2.01,1.23.39,2.45.82,3.66,1.27.67.25,1.34.52,2,.79-.18-.07-.7-.31.12.05.4.17.79.35,1.19.52,5.17,2.33,10.08,5.18,14.85,8.24s9.49,6.42,14.15,9.74c2.42,1.73,4.84,3.46,7.23,5.23,1.17.86,2.33,1.73,3.48,2.6,1.32,1.01,1.67,1.27,3.07,2.38,5.25,4.16,10.3,8.57,14.98,13.37,1.64,1.69,4.74,1.77,6.36,0s1.75-4.56,0-6.36h0Z"/>
      <path class="cls-3" d="M339.2,86.93c2.96.49,5.89,1.15,8.78,1.99,1.44.42,2.87.88,4.28,1.39.67.24,1.34.49,2.01.75.33.13.66.26,1,.4,1.31.52-.78-.35.51.21,5.51,2.41,10.71,5.44,15.51,9.07,1.16-2.74,2.31-5.48,3.47-8.22-13-4.44-26.64-6.95-40.37-7.56v9c16.62-.8,33.35-1.59,49.92.38.55.07,1.1.13,1.65.21-.1-.01-.55-.08-.02,0,.31.04.63.09.94.13,1.18.17,2.35.36,3.53.56,2.35.41,4.69.88,7.01,1.42,1.88.44,4.13-.27,5.08-2.07,1.01-1.92.6-3.82-.7-5.45l-5.43-6.82-5.45,7.07c2.16,1.37,4.31,2.75,6.47,4.12,1.9,1.21,4.49.54,5.81-1.16,1.39-1.8,1.19-4.25-.35-5.91-4.96-5.32-10.14-10.41-15.55-15.26-1.75-1.57-4.66-1.86-6.36,0-1.8,1.96-1.57,4.39,0,6.36l3.1,3.89,5.45-7.07c-14.2-8.05-29.11-16.07-45.35-18.96-4.74-.84-9.55-1.3-14.36-1.19-4.06.09-5.73,4.78-3.18,7.68,3.17,3.61,7.23,6.34,11.24,8.93s8.03,4.97,12.18,7.23c8.5,4.62,17.38,8.59,26.47,11.9,5.07,1.85,10.22,3.47,15.43,4.87,2.17.59,4.44-.56,5.31-2.61.79-1.88.2-4.69-1.84-5.62-15.76-7.13-31.18-15.01-46.19-23.61l-4.54,7.77c9.99,5.06,19.98,10.12,29.96,15.18l-.91-7.07c.44-.32.45-.34.03-.07.54-.19.57-.2.08-.03-.28.07-1.72.21-.61.17-.88.03-1.75.03-2.63-.02-1.28-.08-2.57-.19-3.85-.32-.64-.06-1.28-.13-1.92-.21-.32-.04-.64-.08-.96-.12-.52-.07-.64-.08-.36-.05.28.04.16.02-.36-.05-.32-.05-.64-.09-.95-.14-.64-.1-1.27-.2-1.91-.31-1.19-.2-2.38-.42-3.56-.66-2.44-.5-4.87-1.08-7.28-1.73l-1.2,8.84c2.82.21,5.64.42,8.46.63l-1.2-8.84c-7.07,2.7-14.51,4.09-21.97,5.16-.91.13-1.82.26-2.73.38-.23.03-.46.06-.68.09.36-.05.38-.05.06,0-.53.07-1.06.14-1.6.21-2.07.28-4.14.55-6.21.84-3.79.53-7.57,1.14-11.32,1.93l4.38,7.52c4.31-4.52,8.11-9.59,11.16-15.04,1.56-2.78,2.89-5.67,4.1-8.62.41-1,.03-.18.07-.16.51-.77,0-.66-1.51.33-.67.65-1.35.82-2.05.52l-.28-.22c.18.15.36.31.54.46.3.26.6.52.89.78,1.3,1.15,2.57,2.34,3.81,3.56,1.68,1.65,4.71,1.8,6.36,0,1.77-1.93,1.62-4.43,0-6.36-.8-.96-1.6-1.91-2.4-2.87l-6.36,6.36c3.98,3.88,8.34,7.37,12.98,10.43l1.07-8.22c-3.44.79-6.91,1.44-10.4,1.95-.11.02-1.24.17-.83.12s-.73.09-.83.1c-.96.12-1.91.22-2.87.32-1.76.18-3.52.31-5.28.42l4.34,5.7c-.06.34-.21.63-.46.86.36-.33.31-.32-.15.04.38-.28.79-.51,1.19-.73,1.09-.61,2.14-1.19,3.07-2.04,1.1-1.01,2.04-2.34,2.45-3.79.53-1.85.17-3.41-.57-5.13l-7.07,5.45c.27.33.55.66.81,1-.48-.63.25.37.34.5.49.72.94,1.46,1.3,2.25-.36-.79.1.41.12.49.39,1.18-.06-.81.09.4.14,1.12.18-.72,0,.41-.17,1.07.4-.49-.06.25-.16.26-.77.95-.04.17-.23.24-.46.47-.69.71-.61.63.68-.35-.16.11-.3.17-.59.37-.89.53s-.63.31-.94.47c-.77.38.45-.14-.07.03-.72.24-1.43.52-2.15.75-1.82.59-3.39,2.32-3.3,4.34.08,1.81,1.32,4.04,3.3,4.34,5.82.86,11.66,1.38,17.54,1.39v-9c-7.53.42-15.06.84-22.59,1.26-.98.05-1.96.11-2.95.16-.27.01-.56.01-.83.04-.82.1.35.14.64.31l1.27,1.52c-.1-.5-.11-.5-.04.01-.07-.42-.1-.86-.14-1.29-.08-.86-.12-1.73-.13-2.59-.02-1.59.09-3.16.23-4.74.13-1.4-.16.87.07-.52.05-.28.09-.57.14-.85.18-1,.39-1.99.63-2.97.39-1.55.85-3.08,1.39-4.58.25-.69.51-1.36.78-2.04-.33.83.22-.5.23-.53.24-.53.48-1.06.74-1.59.7-1.44,1.46-2.85,2.28-4.23.15-.25.3-.5.45-.75l.23-.37c.51-.75.25-.54-.79.63-1.61.99-2.24.35-1.23.52.35.06.7.07,1.05.04,1.77-.14,3.23-.91,4.78-1.71.18-.09.37-.18.55-.28.89-.47-.93.25-.06.05-1.87.43-5.34-1.72-4.36-3.6-.16.31-.21.74-.31,1.08-.66,2.09-1.32,4.17-2.02,6.25-.47,1.41-.96,2.81-1.48,4.2-.26.71-.53,1.41-.82,2.11-.11.27-.22.53-.33.8.46-1.12-.12.27-.21.48-.55,1.24-1.15,2.46-1.83,3.63-.28.47-.57.94-.88,1.39-.58.84.14-.04.11-.11.03.07-.54.61-.6.68-1.63,1.7-1.82,4.7,0,6.36s4.62,1.82,6.36,0c1.95-2.04,3.32-4.56,4.48-7.11,1.39-3.07,2.58-6.22,3.67-9.4.85-2.48,1.75-4.99,2.44-7.52.8-2.94.2-6.39-2.88-7.69-2.21-.93-4.35-.13-6.35.91-.32.17-.64.34-.96.51-.03.02-.4.18-.4.2,0-.06.97-.31.41-.18s.42-.03.42-.02c0,0-.55-.03-.52-.03-.26-.02-.52-.07-.78-.07-2.95.03-4.52,2.17-5.89,4.46-2.13,3.58-3.89,7.42-5.23,11.36s-2.14,8.06-2.42,12.21c-.13,1.94-.11,3.89.07,5.82.26,2.82.65,5.73,3.34,7.32,2.3,1.36,5.16.85,7.69.71s4.91-.27,7.37-.41c5.07-.28,10.15-.57,15.22-.85,2.35-.13,4.61-1.98,4.5-4.5s-1.98-4.49-4.5-4.5c-2.65,0-5.31-.1-7.95-.29-1.28-.09-2.56-.21-3.84-.35-.64-.07-1.28-.15-1.92-.22-.8-.1.56.08-.24-.03-.4-.06-.8-.11-1.19-.17v8.68c4.15-1.34,8.7-3.27,10.61-7.51,2.62-5.81-.63-11.16-4.29-15.6-1.42-1.73-4.28-1.61-5.91-.35-1.91,1.48-2.06,3.71-1.16,5.81-.55-1.29-.35-1.35-.06-2.38.14-.5-.67.58-.27.28s-.67.36-.78.42c-.31.17-.63.33-.93.51-2.14,1.24-3.46,2.76-4.41,5.03-1.11,2.64,1.68,5.86,4.34,5.7,7.6-.46,15.18-1.54,22.61-3.24,1.73-.4,3-2.06,3.22-3.74.25-1.84-.62-3.47-2.15-4.48-1.02-.67-2.02-1.36-3-2.08-.49-.36-.98-.72-1.47-1.09.38.29-.02-.02-.17-.13-.3-.24-.6-.47-.89-.71-1.95-1.58-3.82-3.26-5.62-5.01-1.69-1.64-4.71-1.81-6.36,0-1.77,1.93-1.62,4.43,0,6.36.8.96,1.6,1.91,2.4,2.87l6.36-6.36c-1.35-1.33-2.74-2.62-4.17-3.87-1.87-1.64-3.71-3.18-6.33-3.09-3.07.1-4.72,2.5-5.78,5.06-.01.03-.54,1.31-.2.51-.17.4-.34.79-.52,1.18-.35.78-.72,1.56-1.1,2.33-1.53,3.08-3.29,6.05-5.26,8.87-.49.71-1,1.4-1.52,2.09-.47.63.08-.08-.22.28-.27.33-.54.67-.81,1-1.14,1.39-2.33,2.72-3.57,4.02-1.33,1.4-1.8,3.76-.7,5.45s3.05,2.5,5.08,2.07c3.75-.79,7.53-1.4,11.32-1.93.91-.13,1.82-.25,2.74-.38-.82.11.62-.08.63-.08.46-.06.91-.12,1.37-.18,2.15-.29,4.29-.57,6.44-.88,7.46-1.07,14.91-2.46,21.97-5.16,2.11-.81,3.54-2.58,3.22-4.94s-2.16-3.73-4.42-3.9c-2.82-.21-5.64-.42-8.46-.63-2.23-.16-4.14,1.84-4.42,3.9-.29,2.18,1.05,4.35,3.22,4.94,5.6,1.52,11.29,2.58,17.04,3.29,5.42.67,11.46,1.73,15.98-2.07,2.15-1.81,1.53-5.83-.91-7.07-9.99-5.06-19.98-10.12-29.96-15.18-2.1-1.06-4.98-.62-6.16,1.61s-.57,4.91,1.61,6.16c15.01,8.6,30.43,16.47,46.19,23.61,1.16-2.74,2.31-5.48,3.47-8.22-4.49-1.21-8.93-2.58-13.32-4.12-2.12-.74-4.23-1.53-6.32-2.35-1.05-.41-2.09-.83-3.13-1.26-.17-.07-1.39-.58-.79-.33-.62-.26-1.24-.53-1.86-.8-8.45-3.7-16.62-8.02-24.43-12.92-2.12-1.33-4.23-2.68-6.27-4.14-.24-.17-.47-.34-.7-.51.02.02-.92-.71-.58-.43.38.3-.31-.26-.39-.32-.28-.23-.55-.46-.82-.7-.98-.85-1.89-1.77-2.74-2.75l-3.18,7.68c1.92-.04,3.84-.01,5.75.12.95.06,1.9.15,2.85.25.21.02,1.56.19.77.08.51.07,1.01.15,1.52.23,3.84.62,7.63,1.56,11.34,2.72,1.84.58,3.66,1.21,5.46,1.89.91.34,1.81.69,2.7,1.06.41.17.83.34,1.24.51.7.29-.53-.23.16.07.27.12.55.24.82.36,3.64,1.59,7.22,3.34,10.75,5.17,3.98,2.07,7.91,4.25,11.81,6.46,1.96,1.11,4.44.61,5.81-1.16,1.47-1.9,1.07-4.13-.35-5.91l-3.1-3.89-6.36,6.36c5.41,4.86,10.6,9.95,15.55,15.26l5.45-7.07c-2.16-1.37-4.31-2.75-6.47-4.12-1.9-1.21-4.49-.54-5.81,1.16-1.47,1.9-1.07,4.13.35,5.91l5.43,6.82,4.38-7.52c-16.73-3.88-33.98-4.22-51.07-3.64-4.79.16-9.57.39-14.35.62-2.35.11-4.61,1.99-4.5,4.5s1.98,4.39,4.5,4.5c12.93.58,25.27,2.91,37.97,7.24,2.12.72,4.49-.66,5.31-2.61.94-2.22-.02-4.25-1.84-5.62-9.99-7.55-21.89-12.66-34.24-14.72-2.31-.39-4.96.61-5.54,3.14-.5,2.17.66,5.12,3.14,5.54h0Z"/>
      <path class="cls-3" d="M291.81,73.67c.25.87.46,1.75.61,2.64-.15-.83.04.55.05.6.03.45.05.9.05,1.36s-.01.91-.04,1.36c-.01.17-.14,1.44-.03.6-.12.9-.34,1.78-.58,2.65-.61,2.17.57,4.45,2.61,5.31,1.89.8,4.69.2,5.62-1.84,1.07-2.34,2.26-4.62,3.58-6.82.64-1.07,1.32-2.12,2.02-3.16.35-.52.71-1.03,1.08-1.54.2-.28.41-.56.62-.84.09-.12.66-.87.18-.25,3.16-4.06,6.8-7.73,10.8-10.96,1.48-1.19,1.7-3.91.7-5.45-1.09-1.69-3.09-2.6-5.08-2.07-13.25,3.56-24.87,12.59-31.54,24.59l8.39,2.27c.16-1.19.11-2.38.13-3.58,0-.32.03-.64.04-.97.03-.83-.21.6-.01.14.03-.06.23-.63.2-.69-.27.6-.32.76-.15.46.18-.29.09-.16-.28.38-.33.34-.7.34-1.09.51-.33.01-.26.01.22,0l-.35-.05c.81.15,1.59.46,2.37.74,1.71.6,3.43,1.2,5.14,1.8,3.43,1.2,7.34,3.08,11,1.72,4.01-1.48,6.65-6.43,4.11-10.35-1.05-1.62-3.14-2.7-5.08-2.07-1.83.59-3.4,2.31-3.3,4.34.22,4.46.68,8.99.63,13.46,0,.2,0,.4-.02.6.09-.54.07-.56-.05-.05.21-.49.3-.6.67-.97-.46.23-.44.24.04.02-.24.09-.48.17-.72.24-.47.15-.94.3-1.4.45-2.18.7-4.36,1.41-6.55,2.11l5.54,5.54c.12-.88.36-1.7.59-2.56.18-.48.17-.47-.04.02.1-.23.21-.46.32-.68.2-.39.42-.77.66-1.14.12-.19.96-1.2.3-.45.29-.33.58-.66.9-.97s.64-.6.99-.87c-.83.64.48-.26.64-.35,1.93-1.15,2.71-3.56,1.84-5.62-.78-1.86-3.23-3.46-5.31-2.61-8.43,3.48-16.64,7.42-24.57,11.93-3.93,2.24-2.14,8.33,2.27,8.39s9.18-.37,13.72-1.16c2.59-.45,3.48-3.33,3.14-5.54-.82-5.44-3.53-10.52-7.36-14.44v6.36c-.91.84-2.03.67-2.92-.08,1.73,1.46,4.04,1.8,5.91.35s2.18-3.77,1.16-5.81c-2.75-5.51-9.84-6.01-14.86-3.71s-7.5,8.04-10.77,12.33c-1.15,1.51-.63,4.23.7,5.45s3.81,1.89,5.45.7c3.67-2.65,7.59-4.88,11.73-6.69l-6.77-3.89c0,.49-.01.98-.03,1.46-.02.54-.02.24.04-.12-.05.29-.1.59-.16.88-.1.46-.22.92-.36,1.37-.07.23-.15.45-.23.67-.04.1-.35.81-.1.29s-.1.18-.14.27c-.13.27-.27.53-.41.79-.23.42-.48.83-.75,1.23-.17.26-.93,1.29-.37.57-.34.44-.7.86-1.08,1.27-.67.74-1.39,1.45-2.14,2.12-.38.34-.77.67-1.16.99-.3.24-.65.49-.14.12-.21.15-.41.3-.62.45-1.75,1.26-3.6,2.35-5.51,3.33l6.61,2.69c-.87-2.91-.98-5.65-.34-8.41l-8.84-1.2c0,.24-.02.48-.02.71-.02,1.1.16-.56.01.04-.13.52-.22,1.04-.39,1.55-.07.23-.16.45-.24.67.2-.57.16-.37-.06.06-.25.48-.53.93-.82,1.38-.27.41-.19.22.06-.06-.16.18-.31.36-.47.54-.37.4-.77.74-1.16,1.1s.63-.39-.08.04c-.2.12-.4.26-.6.38-.26.15-.53.27-.79.42-.55.32.97-.36-.08.02l5.54,5.54,2.27-6.31c.76-2.11-.69-4.5-2.61-5.31-2.13-.9-4.36-.04-5.62,1.84-.29.43-.58.86-.89,1.28-.15.21-.31.42-.46.62.31-.4.3-.4-.02,0-.68.79-1.34,1.57-2.07,2.31-.63.65-1.29,1.27-1.97,1.87-.39.34-.79.67-1.19,1-.4.32-.4.32,0,.01-.21.16-.41.31-.62.46-1.57,1.14-3.24,2.15-4.97,3.02-.46.23-.93.44-1.4.67q-.47.21,0,0c-.24.1-.48.19-.72.29-.97.37-1.95.69-2.95.98-2.16.63-3.52,2.73-3.22,4.94.27,1.98,2.2,4.19,4.42,3.9,8.4-1.08,16.4-3.7,23.67-8.1,2.01-1.22,2.95-4.09,1.61-6.16-1.43-2.21-3.86-2.67-6.16-1.61,0,0-1.29.57-.58.27-.35.15-.7.28-1.05.42-.77.3-1.55.57-2.34.82-1.43.46-2.89.84-4.36,1.14-.44.09-.89.17-1.33.25-.1.02-1.24.2-.74.13s-.64.08-.74.09c-.45.05-.9.09-1.35.12-1.67.13-3.36.22-5.01.56-3.25.68-6.13,2.85-7.63,5.83s-1.87,5.84-2.17,8.96c-.22,2.26,2.24,4.73,4.5,4.5,7.07-.71,13.72-3.76,18.5-9.1,1.57-1.75,1.86-4.66,0-6.36s-4.41-1.6-6.36,0c-5.94,4.86-11.88,9.72-17.82,14.59-1.83,1.5-1.67,4.83,0,6.36,1.94,1.78,4.41,1.6,6.36,0,5.94-4.86,11.88-9.72,17.82-14.59l-6.36-6.36c-.89,1-1.85,1.91-2.89,2.75.73-.59-.3.2-.37.25-.22.15-.44.3-.67.44-.62.4-1.25.76-1.9,1.1-.3.15-.6.29-.9.44-.75.37.27-.07-.21.1-.63.23-1.25.46-1.89.66s-1.28.36-1.94.49c-.33.07-.65.12-.98.18-.98.18.7-.07-.39.04l4.5,4.5c.03-.29.06-.58.09-.88.03-.24.18-1.09,0-.05.09-.53.17-1.06.29-1.59.13-.58.28-1.15.48-1.71.11-.3.49-.83,0-.04.12-.19.2-.41.32-.6.02-.04.62-.91.21-.38s.22-.19.31-.3c.5-.59-.4.15.02-.03.17-.07.95-.49.14-.16.56-.23,1.15-.31,1.73-.45.51-.12-.66.03.2-.02.34-.02.67-.05,1.01-.08,6.34-.45,12.26-1.88,18.04-4.53l-4.54-7.77c-1.57.95-3.17,1.83-4.82,2.62-.46.22-.93.43-1.4.64-.85.39.41-.15-.54.23-.82.32-1.64.64-2.47.93-1.66.58-3.34,1.08-5.05,1.5-.85.21-1.71.4-2.57.56-.5.1-1.01.19-1.51.27-.17.03-1.65.24-.76.12l1.2,8.84c9.29-2.69,17.27-8.63,22.64-16.65l-8.22-3.47-2.27,6.31c-1.12,3.11,2.41,6.68,5.54,5.54,6.57-2.4,11.15-8.46,11.24-15.54.06-5-7.68-6.21-8.84-1.2-1.01,4.37-.95,8.89.34,13.2.87,2.9,4,4.03,6.61,2.69,8.92-4.57,17.81-12.66,17.63-23.48-.03-1.59-.84-3.07-2.23-3.89-1.51-.89-3.02-.67-4.54,0-4.14,1.81-8.07,4.05-11.73,6.69l6.16,6.16c1.28-1.68,2.34-3.5,3.52-5.25.29-.43.59-.86.9-1.29-.58.8.4-.47.52-.6.35-.39.74-.73,1.1-1.1.42-.35.39-.34-.07.02.16-.12.33-.23.5-.33.17-.11.35-.21.53-.3.44-.21.36-.19-.24.08.15-.2.93-.31,1.17-.37.2-.05.4-.09.6-.13-.69.08-.79.1-.29.05.4,0,.79,0,1.19,0,.84.01-1.06-.14.23.09.78.14-.94-.41.2.09.4.26.32.18-.24-.23.14.12.27.25.4.38-.4-.56-.47-.64-.19-.24.1.16.19.34.28.51l7.07-5.45c-2.96-2.49-6.91-2.6-9.81.08-1.8,1.66-1.65,4.68,0,6.36.38.39.75.78,1.1,1.19.18.2.35.41.51.62-.28-.36-.18-.24.02.06.65.95,1.25,1.92,1.76,2.95.12.24.23.49.35.73.31.61-.2-.61.02.04.17.51.37,1.01.53,1.53.34,1.1.58,2.22.75,3.35l3.14-5.54c-2.12.37-2.98.48-5.28.66-2.01.15-4.03.21-6.04.18l2.27,8.39c3.72-2.12,7.5-4.13,11.35-6.02,1.85-.91,3.72-1.79,5.59-2.64,1.01-.46,2.03-.91,3.05-1.35,1.2-.52,1.22-.53,2.43-1.03-1.16-2.74-2.31-5.48-3.47-8.22-4.41,2.63-7.78,7.24-8.49,12.38-.23,1.65-.09,3.13,1.16,4.38,1.1,1.1,2.87,1.64,4.38,1.16,2.49-.8,4.99-1.61,7.48-2.41,3.12-1.01,5.87-2.53,6.81-5.92.7-2.54.24-5.4.11-7.99-.13-2.74-.26-5.48-.4-8.23l-8.39,2.27c.27.47.26.32-.04-.47-.23-.44-.26-.88-.1-1.34.09-.29.45-.68.1-.24.37-.44.45-.54.21-.3-.24.23-.14.16.29-.22l.51-.2c-.48.12-.58.14-.27.07.51-.01-.74-.17.03-.02-.37-.07-.74-.18-1.1-.29-.84-.25-1.66-.56-2.48-.85-3.08-1.08-6.21-2.5-9.39-3.23-4.19-.96-8.18.76-9.64,4.92-.85,2.41-.35,5.01-.68,7.48-.25,1.85,1.57,3.94,3.3,4.34,1.92.44,4.09-.28,5.08-2.07.74-1.33,1.53-2.62,2.4-3.87.22-.31.44-.62.66-.93.07-.09.83-1.1.21-.3.47-.6.95-1.19,1.44-1.76,1.99-2.31,4.2-4.39,6.58-6.29-.61.49.05-.03.3-.22.31-.23.61-.45.93-.66.62-.44,1.25-.86,1.9-1.26,1.28-.81,2.61-1.56,3.96-2.24.68-.34,1.37-.65,2.06-.97.78-.36-.35.13.15-.07.35-.14.7-.28,1.06-.42,1.48-.56,2.99-1.04,4.52-1.45l-4.38-7.52c-8.38,6.78-15.21,15.58-19.69,25.39l8.22,3.47c1.28-4.57,1.27-9.44-.06-13.99-.66-2.26-3.2-3.9-5.54-3.14s-3.85,3.12-3.14,5.54h0Z"/>
      <path class="cls-3" d="M293.85,66.49c-6.73,1.89-9.45,8.79-13.2,13.98-.21.29-.42.57-.63.86-.09.13-.8,1.04-.33.44-.53.67-1.06,1.33-1.61,1.98-1.05,1.25-2.15,2.45-3.28,3.62-2.32,2.39-4.81,4.6-7.45,6.64-1.76,1.37-1.57,4.33-.35,5.91,1.34,1.73,3.88,2.34,5.81,1.16,2.89-1.77,5.88-3.39,8.94-4.84.8-.38,1.61-.74,2.42-1.1.09-.04,1.12-.48.68-.3-.32.13.74-.3.89-.36,1.57-.63,3.16-1.22,4.77-1.77,3.21-1.09,6.48-2.01,9.79-2.74,1.58-.35,3.18-.67,4.78-.93.09-.02,1.42-.13.51-.08.43-.03.85-.07,1.29-.08.22,0,1.41.14.49-.03.19.04,1.3.41.52.06v-7.77c-.49.29-.98.54-1.48.8-.48.22-.51.24-.08.05-.26.1-.52.2-.79.29-.94.32-1.89.54-2.86.73-.54.09-.55.09-.06.01-.28.03-.56.05-.84.07-.42.02-.84.04-1.26.03-.56,0-1.12-.04-1.68-.09.97.09-.7-.14-.88-.18l-1.2,8.84c.94.03,1.88.08,2.82.17.47.04.94.09,1.41.14.56.07.62.08.21.02.23.03.47.07.7.11,1.94.31,3.85.75,5.74,1.28,2.17.61,4.45-.58,5.31-2.61s.08-4.44-1.84-5.62c-1.64-1.01-3.26-2.06-4.84-3.16-.76-.53-1.51-1.07-2.26-1.61-.37-.27-.74-.55-1.11-.83-.18-.14-.37-.28-.55-.42.3.23.24.18-.18-.15-1.85-1.45-4.59-1.94-6.36,0-1.49,1.62-1.98,4.81,0,6.36,3.46,2.72,7.02,5.27,10.77,7.58,1.16-2.74,2.31-5.48,3.47-8.22-4.31-1.22-8.79-1.89-13.27-2.05-2.24-.08-4.13,1.77-4.42,3.9s1.02,4.47,3.22,4.94c5.79,1.22,11.75.37,16.87-2.63,2.67-1.57,3.19-6.35,0-7.77-4.22-1.88-8.4-1.1-12.78-.22-3.61.73-7.18,1.68-10.68,2.83-7.22,2.38-14.2,5.59-20.69,9.55l5.45,7.07c5.21-4.03,9.71-8.75,13.69-13.99,1.81-2.38,3.36-4.91,4.97-7.42.36-.56.75-1.11,1.13-1.66-.43.63-.06.08.19-.22.19-.22.39-.44.6-.65s.42-.4.63-.6c.77-.74-.73.4.18-.13.3-.17.59-.34.9-.5-.65.36-.24.11.23-.02,2.26-.64,3.89-3.21,3.14-5.54s-3.11-3.83-5.54-3.14h0Z"/>
      <path class="cls-3" d="M231.48,115.37c-3.39,4.96-6.03,10.28-8.4,15.8-2.51,5.85-5,11.71-7.5,17.57-.89,2.09-.76,4.32,1.16,5.81,1.75,1.35,4.32,1.25,5.91-.35,4.18-4.22,8.18-8.62,11.96-13.21.93-1.13,1.85-2.27,2.76-3.42.5-.64,1-1.28,1.49-1.92.29-.38.58-.75.87-1.13-.39.51-.09.12.13-.17.77-.97,1.56-1.92,2.46-2.76.23-.22.48-.42.72-.63.48-.43-.82.5.16-.09.22-.13.43-.26.65-.39.99-.61-.78.24.32-.16l-4.38-7.52c-8.49,8.48-15.69,18.29-21.18,28.97-1.08,2.09-.61,4.98,1.61,6.16,2.06,1.09,5.01.62,6.16-1.61,2.63-5.11,5.63-10.01,9.01-14.66.38-.53.77-1.05,1.17-1.58-.02.03.7-.92.44-.58-.28.37.39-.5.45-.58.9-1.14,1.83-2.26,2.77-3.36,1.89-2.21,3.88-4.33,5.93-6.39,1.36-1.36,1.78-3.79.7-5.45s-3.17-2.77-5.08-2.07c-2.95,1.08-5.38,2.9-7.41,5.29-.42.5-.83,1.01-1.23,1.52s-.79,1.02-1.18,1.53c-.12.16-.35.46-.1.13-.99,1.28-2,2.55-3.03,3.8-3.96,4.84-8.15,9.48-12.55,13.92l7.07,5.45c2.5-5.86,4.99-11.72,7.5-17.57,2.37-5.51,5.01-10.83,8.4-15.8,1.33-1.95.43-5.08-1.61-6.16-2.28-1.21-4.74-.47-6.16,1.61h0Z"/>
      <path class="cls-3" d="M216.01,150.55l-5.16,11.14,8.22,3.47c.68-3.22,1.36-6.44,2.04-9.66.48-2.3-.67-4.97-3.14-5.54-2.6-.59-4.59.8-5.54,3.14-1.8,4.46-3.23,9.05-4.29,13.74-.52,2.29.7,4.98,3.14,5.54s4.68-.77,5.54-3.14c2.66-7.42,5.47-13.78,9.28-20.95l-7.77-4.54c-6.05,13.44-10.06,27.6-13.43,41.92l8.68,2.39c.94-5,1.56-10.06,1.8-15.15.11-2.23-1.8-4.14-3.9-4.42-2.23-.3-4.28,1.06-4.94,3.22-1.28,4.18-1.92,8.58-1.93,12.96,0,3.97,4.89,5.84,7.68,3.18,3.9-3.72,5.89-8.87,7.15-14,.6-2.44,1.07-4.92,1.72-7.35.35-1.3.79-2.55,1.23-3.82.23-.66-.28.54.04-.08.16-.31.29-.63.45-.94.32-.62.68-1.23,1.05-1.82l-8.22-3.47c-3.78,9.33-4.69,19.48-5.59,29.42-.17,1.87,1.51,3.93,3.3,4.34,2.06.47,3.89-.36,5.08-2.07,1.88-2.7,2.81-5.93,2.94-9.2.09-2.24-1.78-4.13-3.9-4.42-2.23-.3-4.28,1.06-4.94,3.22l-5.18,17.16,8.68,2.39c.62-2.4,1.38-4.75,2.28-7.05l-8.84-1.2c0,.39,0,.78-.02,1.17s-.18,1.14-.02.35c-.15.77-.32,1.53-.54,2.29-.46,1.6-1.07,3.15-1.62,4.71-1.28,3.61-1.92,7.1-1.38,10.92.24,1.72,2.2,3.02,3.74,3.22,1.68.23,3.68-.55,4.48-2.15,1.79-3.55,3.23-7.3,4.09-11.18.44-1.98.71-4,.94-6.01.05-.42.09-.84.15-1.26-.12.94.06-.28.09-.47.09-.48.2-.95.35-1.42.06-.2.13-.4.2-.59-.19.44-.16.42.07-.06.85-1.63.79-3.52-.35-5s-2.9-1.95-4.73-1.61c-3.89.72-7.23,3.6-9.16,6.97-2.26,3.93-2.84,8.52-3.29,12.95-.43,4.18-.64,8.49-.38,12.69.13,1.99.62,3.96,2.09,5.41.5.49.64.91-.06-.29-.53-.93-.67-1.89-.42-2.88l-.05.17c.44-1.42,0-.16-.23.23l8.22,3.47c.44-1.59.82-3.21,1.37-4.76.08-.24.19-.47.27-.7.14-.43-.52,1.15-.17.4.07-.15.13-.29.2-.44.44-.96.89-1.91,1.35-2.86l-7.77-4.54c-1.69,3.67-3.05,7.44-3.75,11.42s-.95,8.05-1.09,12.11c-.08,2.36,2.13,4.61,4.5,4.5,2.61-.12,4.28-1.98,4.5-4.5.43-4.95-.23-9.9.2-14.85.21-2.35-2.22-4.6-4.5-4.5-2.61.12-4.28,1.98-4.5,4.5-.43,4.95.23,9.9-.2,14.85h9c.06-1.87.14-3.74.28-5.61.06-.8.14-1.6.23-2.4.04-.35.16-1.17.04-.36.07-.45.14-.9.22-1.34.28-1.61.66-3.21,1.14-4.77.24-.79.51-1.57.79-2.34.15-.4.31-.8.47-1.2-.3.74.38-.83.44-.97.98-2.13.68-4.95-1.61-6.16-2-1.06-5.08-.66-6.16,1.61-.87,1.84-1.79,3.67-2.49,5.59-.59,1.61-.97,3.29-1.43,4.93-1.38,4.94,5.6,7.84,8.22,3.47.98-1.64,1.74-3.46,1.21-5.39-.25-.9-.76-1.71-1.42-2.36-.4-.4-.67-.91,0,.21-.36-.6.26,1.15.1.28-.17-.94-.02,1.13-.01-.11,0-.98-.04-1.96-.05-2.94,0-2.04.04-4.09.16-6.13.06-.98.13-1.96.23-2.93.05-.49.1-.98.15-1.46.03-.24.06-.49.09-.73-.05.37-.04.3.03-.21.27-1.76.63-3.48,1.2-5.16.42-1.25-.37.62.23-.55.19-.37.38-.74.6-1.09.19-.31.63-.9.14-.29.23-.29.48-.56.73-.82s.53-.51.81-.74c-.78.64.07,0,.28-.13.21-.12.42-.23.64-.34-.47.19-.55.23-.24.12.41-.09.81-.23,1.23-.31l-5.08-6.61c-1.02,1.95-1.52,3.91-1.81,6.07-.14,1.04-.24,2.08-.38,3.12.1-.79-.07.43-.1.58-.07.44-.15.88-.24,1.32-.76,3.77-1.92,7.04-3.37,9.91l8.22,1.07c.14,1.04.03-.11.03-.34,0-.38.02-.76.04-1.15.07-1.21-.22.87.05-.32.08-.38.16-.76.25-1.13.37-1.47.9-2.9,1.41-4.32,1.15-3.16,2.18-6.37,2.12-9.78-.04-2.25-1.68-4.12-3.9-4.42-2.36-.32-4.11,1.11-4.94,3.22-.9,2.3-1.66,4.65-2.28,7.05s.75,4.99,3.14,5.54,4.81-.73,5.54-3.14l5.18-17.16-8.84-1.2c0,.27-.02.55-.05.82.08-.51.08-.5-.01.03-.13.54-.28,1.06-.42,1.59-.19.49-.19.52,0,.08-.11.25-.23.5-.36.74-.26.49-.56.95-.87,1.4l8.39,2.27c.22-2.44.44-4.88.71-7.31.12-1.07.24-2.13.39-3.19-.11.8.14-.92.16-1.08.09-.6.19-1.21.29-1.81.79-4.66,1.94-9.24,3.72-13.63.84-2.07-.75-4.53-2.61-5.31-2.1-.89-4.4-.06-5.62,1.84-2.91,4.55-3.94,9.85-5.13,15.02-.51,2.24-1.13,4.44-1.96,6.58-.19.49.29-.58-.09.18-.12.23-.22.47-.34.7-.26.52-.55,1.02-.86,1.51-.17.27-.35.53-.53.8-.24.35-.28.31,0,0-.44.48-.86.96-1.32,1.4l7.68,3.18c0-.96.03-1.91.09-2.86.03-.48.08-.95.13-1.43.15-1.52-.15.81.09-.7.3-1.89.74-3.75,1.3-5.58l-8.84-1.2c-.11,2.26-.29,4.52-.55,6.76-.06.48-.11.96-.18,1.44.05-.4.04-.31-.04.24-.05.32-.09.64-.14.96-.17,1.12-.37,2.23-.58,3.34-.43,2.31.64,4.97,3.14,5.54,2.3.52,4.96-.69,5.54-3.14,1.62-6.89,3.37-13.76,5.44-20.53,1.01-3.31,2.1-6.59,3.28-9.84.59-1.62,1.21-3.24,1.85-4.84.18-.44.35-.87.53-1.31.58-1.43-.33.75.28-.66.37-.87.75-1.73,1.14-2.59.96-2.14.69-4.94-1.61-6.16-2.08-1.1-4.98-.61-6.16,1.61-3.95,7.44-7.35,15.18-10.19,23.1l8.68,2.39c1.06-4.69,2.5-9.28,4.29-13.74l-8.68-2.39c-.68,3.22-1.36,6.44-2.04,9.66-.47,2.21.47,4.41,2.61,5.31,1.9.8,4.68.2,5.62-1.84l5.16-11.14c.99-2.13.67-4.95-1.61-6.16-1.99-1.05-5.1-.67-6.16,1.61h0Z"/>
      <path class="cls-3" d="M203.16,235.26c.05,1.01.03,2.03-.07,3.03-.02.41.07.8.26,1.16.12.37.33.69.62.97.27.29.59.5.97.62.36.19.74.27,1.16.26l.8-.11c.51-.14.95-.4,1.32-.77l.47-.61c.27-.47.41-.97.41-1.51.1-1.01.12-2.02.07-3.03.02-.41-.07-.8-.26-1.16-.12-.37-.33-.69-.62-.97-.27-.29-.59-.5-.97-.62-.36-.19-.74-.27-1.16-.26l-.8.11c-.51.14-.95.4-1.32.77-.52.57-.92,1.33-.88,2.12h0Z"/>
      <path class="cls-2" d="M438.92,108.98c-5.03-.04-10.06-.02-15.09.05-.52,0-.92.35-1.08.83-.58,1.67,1.38,2.5,2.62,2.89,1.54.48,3.18.62,4.78.62s3.19-.13,4.78-.17c.34-.01,1.12.13.64-.32-.11-.11.19-.02-.01-.08-.08-.03-.33.05-.45.04-.75-.06-1.45-.38-2.22-.43v2.25c2.23.08,4.36.68,6.29,1.78l.57-2.1c-2.56-.34-5.03-1.22-7.27-2.51-1.26-.72-2.39,1.22-1.14,1.94,2.61,1.5,5.43,2.42,8.4,2.82,1.15.15,1.47-1.59.57-2.1-2.28-1.29-4.81-1.99-7.43-2.08-1.45-.05-1.44,2.16,0,2.25.83.05,1.6.45,2.45.43s1.67-.34,2.12-1.05c.4-.63.47-1.49.11-2.16-.46-.85-1.34-.96-2.22-.94-1.87.04-3.75.22-5.62.18-.91-.02-1.82-.08-2.71-.26-.45-.09-.89-.21-1.32-.36-.19-.07-.43-.22-.63-.24l-.19-.1c-.15-.1-.14,0,.03.31l-1.08.83c5.03-.08,10.06-.1,15.09-.05,1.45.01,1.45-2.24,0-2.25h0Z"/>
      <path class="cls-2" d="M411.12,87.57c-1.5,1.68-3.38,2.86-5.55,3.45l1.38,1.38c.41-1.91-1.48-2.79-3.1-2.59-1.96.23-2.45,2.36-.68,3.34,3.72,2.05,7.99.36,11.95.81.61.07,1.12-.57,1.12-1.12,0-.67-.52-1.05-1.12-1.12-1.75-.21-3.5-.28-5.26-.22l.57,2.1c.56-.24,1.12-.48,1.68-.72l-1.36-1.77c-.56.64-1.17,1.21-1.88,1.68-.79.53-.7,1.78.27,2.06,3.44.97,7,1.43,10.57,1.37,1.26-.02,1.53-1.86.3-2.21-4.27-1.22-8.71-1.8-13.16-1.72-1.45.03-1.45,2.23,0,2.25,2.62.04,5.24-.03,7.85-.19,1.44-.09,1.45-2.34,0-2.25-2.61.17-5.23.23-7.85.19v2.25c4.26-.08,8.47.46,12.56,1.63l.3-2.21c-3.38.06-6.72-.37-9.97-1.29l.27,2.06c.87-.58,1.65-1.25,2.34-2.04.88-1.01-.21-2.26-1.36-1.77-.56.24-1.12.48-1.68.72-1.05.45-.49,2.14.57,2.1,1.76-.07,3.51,0,5.26.22v-2.25c-2.33-.27-4.62.21-6.94.24-1.02.01-2.03-.07-3-.38-.21-.07-.42-.15-.63-.24-.13-.06-.25-.12-.37-.19l-.22.93s.57-.03.52-.03h.18c.22.11.26.04.12-.23-.18.83.52,1.62,1.38,1.38,2.53-.69,4.8-2.08,6.55-4.03.96-1.08-.62-2.67-1.59-1.59h0Z"/>
      <path class="cls-2" d="M227.61,120.46c3.68-.51,7.01-2.29,10.07-4.31l-1.54-1.54c-2.53,3.29-5.81,5.96-9.5,7.85l1.54.4c-.48-.79-.25-1.88.56-2.36l-1.69-.97c.02,1.38-.59,2.75-1.72,3.58l1.36,1.77c1.92-2.02,4.12-3.68,6.58-4.98l-1.36-1.77c-2.75,2.45-5.49,4.89-8.24,7.34-1.08.97.51,2.55,1.59,1.59,2.75-2.45,5.49-4.89,8.24-7.34.99-.88-.27-2.34-1.36-1.77-2.61,1.38-5,3.19-7.03,5.33-.84.88.29,2.55,1.36,1.77,1.78-1.3,2.86-3.3,2.83-5.52-.01-.84-.95-1.42-1.69-.97-1.84,1.1-2.49,3.6-1.37,5.44.33.54.99.69,1.54.4,4.05-2.08,7.54-5.05,10.3-8.66.69-.91-.64-2.13-1.54-1.54-2.92,1.92-6.03,3.6-9.54,4.08-.6.08-.93.85-.79,1.38.18.65.78.87,1.38.79h0Z"/>
      <path class="cls-2" d="M362.79,57.94c-1.64-.28-3.06.27-4.45,1.09s-2.87,1.76-4.3,2.63c-1.15.7-.35,2.25.87,2.06,2.82-.45,5.35-1.78,8.03-2.68,2.36-.79,5.08-1.25,7.35.03l.27-2.06c-3.26.77-6.62.49-9.93.21v2.25c3.33.04,6.65.08,9.98.13l-.3-2.21c-3.53,1.04-7.2.96-10.84.86l.3,2.21c1.44-.26,2.89-.31,4.36-.2s1.44-2.14,0-2.25c-1.67-.12-3.31-.01-4.95.29-1.28.23-.93,2.18.3,2.21,3.83.1,7.72.15,11.44-.94,1.21-.36.98-2.19-.3-2.21-3.33-.04-6.65-.08-9.98-.13-1.47-.02-1.42,2.13,0,2.25,3.52.29,7.06.53,10.52-.29.94-.22,1.09-1.59.27-2.06-5.77-3.26-11.46,1.52-17.12,2.42l.87,2.06c1.18-.72,2.36-1.45,3.54-2.17,1-.61,2.23-1.54,3.48-1.33,1.42.25,2.02-1.92.6-2.17h0Z"/>
      <path class="cls-2" d="M303.45,57.97c2.09,1.36,4.27,2.54,6.55,3.54l.57-2.1c-3.25.43-6.1-1.98-9.37-1.6l.3,2.21c1.07-.44,2.15-.88,3.22-1.32,1.31-.54.77-2.69-.6-2.17-2.97,1.14-5.95,2.28-8.92,3.42-1.32.51-.82,2.58.6,2.17,3.11-.91,6.22-1.82,9.33-2.73l-1.42-1.08c-.02.73.32,1.27.92,1.67l.57-2.1c-4.63-.42-9.08,1.15-13.35,2.73-1.35.5-.77,2.67.6,2.17,2.01-.74,4.03-1.44,6.07-2.09.99-.32,1.98-.62,2.98-.92.72-.21,1.86-.78,2.56-.33l.57-2.1c-4.87.65-9.53,2.17-13.81,4.6-1.26.72-.13,2.66,1.14,1.94,3.91-2.22,8.21-3.7,12.67-4.3,1.06-.14,1.58-1.45.57-2.1-1.81-1.16-4.4.13-6.22.69-2.39.74-4.77,1.56-7.12,2.42l.6,2.17c4.1-1.52,8.31-3.05,12.76-2.65,1.19.11,1.43-1.54.57-2.1l.19.28c.02-.72-.74-1.29-1.42-1.08-3.11.91-6.22,1.82-9.33,2.73l.6,2.17c2.97-1.14,5.95-2.28,8.92-3.42l-.6-2.17c-1.07.44-2.15.88-3.22,1.32s-1.08,2.37.3,2.21c3.25-.37,6.09,2.04,9.37,1.6.94-.13,1.73-1.59.57-2.1-2.28-1-4.47-2.18-6.55-3.54-1.22-.79-2.35,1.15-1.14,1.94h0Z"/>
      <path class="cls-2" d="M338.15,51.34l-4.17,5.78c-.29.4-.15,1.03.18,1.36.37.37.91.4,1.36.18,2.67-1.29,5.34-2.58,8.01-3.87,1.13-.55.33-2.5-.87-2.06-1.39.52-2.78,1.04-4.18,1.56l1.27,1.65c.27-.43.63-.8,1.07-1.08.51-.33.72-1,.4-1.54s-1.02-.73-1.54-.4c-.77.49-1.39,1.11-1.87,1.88s.34,2,1.27,1.65c1.39-.52,2.78-1.04,4.18-1.56l-.87-2.06c-2.67,1.29-5.34,2.58-8.01,3.87l1.54,1.54,4.17-5.78c.36-.49.09-1.25-.4-1.54-.57-.33-1.18-.09-1.54.4h0Z"/>
      <path class="cls-2" d="M378.74,69.11c2.33.08,4.69-.3,6.88-1.11l-.87-2.06c-.76.49-1.51.97-2.27,1.46-.49.32-.74,1.01-.4,1.54.32.49,1.01.74,1.54.4.76-.49,1.51-.97,2.27-1.46.47-.31.68-.88.46-1.4-.2-.48-.8-.85-1.33-.65-1.03.38-2.09.67-3.18.85-.12.02-.24.04-.36.06.16-.02-.2.03-.25.03-.26.03-.53.05-.79.07-.57.04-1.14.04-1.71.03s-1.15.53-1.12,1.12c.03.63.49,1.1,1.12,1.12h0Z"/>
      <path class="cls-2" d="M281.1,74.23c2.9-.02,5.7-.65,8.35-1.81.49-.21.59-.82.52-1.27l-.18.51-1.09-1.88c-.58.57-1.39.9-2.1,1.27-.85.44-1.7.88-2.55,1.32s-1.67.88-2.51,1.3c-.71.36-1.55.79-2.37.66l.27,2.06c1.59-1.18,3.43-1.65,5.39-1.39v-2.25c-3.46.14-6.79.93-9.96,2.3-1.04.45-.49,2.14.57,2.1,1.39-.05,2.73-.32,4.02-.86.57-.23.95-.74.79-1.38-.14-.53-.82-1.01-1.38-.79l-4.77,1.94c-.57.23-.95.75-.79,1.38.14.53.82,1.01,1.38.79l4.77-1.94-.6-2.17c-1.1.46-2.23.73-3.42.78l.57,2.1c2.79-1.21,5.8-1.87,8.83-2,1.49-.06,1.4-2.07,0-2.25-2.29-.3-4.67.32-6.53,1.7-.68.5-.79,1.89.27,2.06,2.25.36,4.17-.91,6.08-1.91,1.03-.53,2.06-1.07,3.08-1.6.9-.47,1.83-.9,2.56-1.62.84-.83-.03-2.09-1.09-1.88s-1.56,1.25-1.39,2.26l.52-1.27c-2.28.99-4.74,1.48-7.22,1.5-1.45,0-1.45,2.26,0,2.25h0Z"/>
      <path class="cls-2" d="M213.43,152.56l6.49-7.19-2.56-1.06c-.33,2.78-2.4,5.08-4.48,6.78-2.62,2.14-5.66,3.7-8.28,5.85-.63.51-.53,1.59,0,2.12.62.62,1.49.52,2.12,0,2.79-2.28,6.06-3.9,8.78-6.27,2.55-2.22,4.47-5.08,4.87-8.49.15-1.3-1.74-1.97-2.56-1.06l-6.49,7.19c-1.29,1.43.82,3.56,2.12,2.12h0Z"/>
      <path class="cls-2" d="M464,168.91l-6.68-8.33c-1.07-1.33-3.27.4-2.36,1.82,3.06,4.78,6.12,9.57,9.18,14.35,1.04,1.62,3.63.12,2.59-1.51-3.06-4.78-6.12-9.57-9.18-14.35l-2.36,1.82c2.23,2.78,4.45,5.55,6.68,8.33.51.63,1.59.53,2.12,0,.62-.62.51-1.49,0-2.12h0Z"/>
    </g>
  </g>
</svg>