<svg viewBox="111.776 148.94656 304.64000000000004 259.84000000000003" version="1.1" xmlns="http://www.w3.org/2000/svg" style="max-height: 500px" width="304.64000000000004" height="259.84000000000003">
  <defs>
    <style>
      .cls-1, .cls-2, .cls-3, .cls-4, .cls-5 {
        stroke-miterlimit: 10;
      }

      .cls-1, .cls-6 {
        fill: #367deb;
      }

      .cls-1, .cls-3 {
        stroke: #367deb;
      }

      .cls-2 {
        stroke: #fff;
      }

      .cls-2, .cls-5 {
        fill: none;
      }

      .cls-7 {
        fill: #fff;
      }

      .cls-3, .cls-8 {
        fill: aqua;
      }

      .cls-9, .cls-4 {
        fill: #282828;
      }

      .cls-4 {
        stroke: #282828;
      }

      .cls-5 {
        stroke: #91b8f4;
      }
    </style>
  </defs>
  
  <g>
    <g id="Layer_2">
      <rect height="607.04" width="566" y="-8.9" x="-1.26" class="cls-9"/>
      <path d="M410.68,380.57c-.19,5.6-.35,11.2-.48,16.8-.04,1.93,2.96,1.93,3,0,.13-5.6.29-11.2.48-16.8.07-1.93-2.93-1.93-3,0h0Z" class="cls-7"/>
      <path d="M153.55,327.6c-2.57,2.76-5.85,4.77-9,6.78s-6.29,4.12-9.21,6.52c-3.14,2.58-6.08,5.46-8.3,8.88-1.64,2.53-4.28,5.73-3.92,8.92.22,1.9,3.22,1.92,3,0-.17-1.51.69-2.91,1.45-4.15.81-1.32,1.63-2.67,2.51-3.95,2.25-3.25,5.27-5.93,8.35-8.37,5.53-4.39,12.39-7.31,17.25-12.52,1.32-1.41-.8-3.54-2.12-2.12h0Z" class="cls-7"/>
      <path d="M123.56,355.86c.08.91-.21,1.79-.45,2.66-.31,1.14-.58,2.29-.87,3.44-.63,2.5-1.27,4.99-1.94,7.48-.5,1.87,2.39,2.66,2.89.8.69-2.57,1.36-5.15,2-7.74.28-1.13.55-2.26.86-3.38.29-1.04.59-2.16.5-3.25-.07-.81-.64-1.5-1.5-1.5-.76,0-1.57.69-1.5,1.5h0Z" class="cls-7"/>
      <path d="M120.54,369.22c-.98,2.26-1.94,4.53-2.28,6.99-.3,2.16.22,4.49-.63,6.54-.31.75.34,1.65,1.05,1.85.86.24,1.53-.3,1.85-1.05.87-2.09.44-4.35.64-6.54s1.11-4.28,1.97-6.27c.32-.74.22-1.61-.54-2.05-.63-.37-1.73-.21-2.05.54h0Z" class="cls-7"/>
      <path d="M117.76,383.49c.39,1.29-.34,2.49-.98,3.56-.7,1.17-1.32,2.35-1.84,3.61-1.02,2.45-1.75,5.01-3.28,7.21-.46.66-.12,1.67.54,2.05.75.44,1.59.13,2.05-.54,1.71-2.45,2.45-5.34,3.64-8.05s3.76-5.39,2.77-8.65c-.56-1.84-3.46-1.06-2.89.8h0Z" class="cls-7"/>
      <path d="M255.93,283.26c-.27-5.96-.8-11.9-1.59-17.81-.11-.8-.61-1.5-1.5-1.5-.73,0-1.61.69-1.5,1.5.79,5.91,1.32,11.85,1.59,17.81.09,1.92,3.09,1.93,3,0h0Z" class="cls-7"/>
      <path d="M254.33,265.59c-.31-4.31-.34-8.64-.06-12.95.14-2.09.29-4.2.62-6.27.09-.59.34-1.1.46-1.68.06-.3.1-.6.17-.9.03-.14.06-.29.1-.43.18-.5-.06-.33-.73.51,1.88-.45,1.08-3.34-.8-2.89-1.41.33-1.42,2.06-1.69,3.19-.07.31.18-.45-.02.12-.11.31-.25.58-.32.9-.12.54-.16,1.12-.23,1.67-.16,1.26-.3,2.52-.4,3.78-.43,4.98-.45,9.98-.09,14.96.14,1.91,3.14,1.93,3,0h0Z" class="cls-7"/>
      <path d="M255.38,244.85c.22-1.54.85-2.91,1.97-4,.81-.79,2.5-2.07,3.5-1.26.56.45.95,1.18,1.32,1.8.53.88,1.02,1.79,1.46,2.71.86,1.81,1.52,3.71,2.02,5.65s3.37,1.08,2.89-.8c-.62-2.42-1.51-4.77-2.63-7.01-.96-1.9-2.13-4.39-4.19-5.3-2.22-.98-4.74.43-6.36,1.95-1.52,1.42-2.59,3.4-2.88,5.46-.11.8.2,1.61,1.05,1.85.7.19,1.73-.24,1.85-1.05h0Z" class="cls-6"/>
      <path d="M253.46,285.12c1.12,1.36,3.37,1.76,5.04,1.69,2.17-.09,3.47-1.48,4.17-3.42,1.38-3.87,2.03-8.13,2.42-12.21.08-.81-.75-1.5-1.5-1.5-.88,0-1.42.69-1.5,1.5-.32,3.32-.94,6.61-1.84,9.83-.23.84-.45,2.52-1.47,2.77-.91.22-2.59-.02-3.21-.77-.52-.63-1.59-.53-2.12,0-.62.62-.52,1.49,0,2.12h0Z" class="cls-7"/>
      <path d="M265.04,271.57c.4-1.7.45-3.46.83-5.17.43-1.92.97-3.82,1.43-5.73s.9-3.9,1.28-5.87.76-4.03.18-6.05c-.53-1.85-3.43-1.07-2.89.8s-.05,3.87-.43,5.72-.79,3.63-1.23,5.44-.94,3.47-1.29,5.22c-.32,1.61-.39,3.25-.76,4.84-.45,1.88,2.45,2.68,2.89.8h0Z" class="cls-7"/>
      <path d="M258.49,286.4c-.81,7.4-.06,14.92,2.17,22.01.58,1.84,3.47,1.05,2.89-.8-2.16-6.87-2.85-14.06-2.06-21.21.09-.81-.75-1.49-1.5-1.5-.88,0-1.41.7-1.5,1.5h0Z" class="cls-7"/>
      <path d="M260.81,308.77c5.59,8.21,13.05,15.45,21.5,20.69,8.79,5.46,19,8.75,29.12,10.64,1.25.23,2.61.62,3.89.52.1,0,1.4-.26.93-.24.36-.01.79.19,1.13.29.68.2,1.47.55,2.19.34,1.09-.31,1.35-1.43.92-2.36-.8-1.76-3.38-.23-2.59,1.51l.04.08-.15-1.16v.05c.22-.3.45-.6.68-.9.58-.3.99-.06.38-.27-.26-.09-.52-.16-.78-.24-.59-.17-1.23-.36-1.85-.34-.4.01-.71.18-1.1.22-.44.05-.89-.06-1.32-.13-1.2-.2-2.39-.43-3.57-.67-4.67-.96-9.28-2.24-13.76-3.89-8.63-3.19-16.38-7.87-23.1-14.17-3.7-3.47-7.1-7.3-9.96-11.5-1.08-1.59-3.68-.09-2.59,1.51h0Z" class="cls-7"/>
      <path d="M312.21,340.09c4.46.64,8.95,1.26,13.44.57,4.08-.63,7.81-2.52,11.15-4.89,6.63-4.69,12.48-10.59,17.44-17,2.86-3.69,5.42-7.59,7.67-11.68.93-1.69-1.66-3.21-2.59-1.51-3.7,6.73-8.25,12.94-13.59,18.46-2.61,2.7-5.4,5.23-8.34,7.57s-6.34,4.58-10.07,5.63c-4.66,1.31-9.59.63-14.3-.05-.81-.12-1.6.2-1.85,1.05-.2.7.25,1.73,1.05,1.85h0Z" class="cls-7"/>
      <path d="M362.62,306.01c2.97-8.31,8.76-16.37,8.45-25.55-.07-1.93-3.07-1.93-3,0,.15,4.37-1.45,8.85-3.15,12.81s-3.73,7.85-5.19,11.94c-.65,1.82,2.25,2.61,2.89.8h0Z" class="cls-7"/>
      <path d="M371.47,280.81c.27-3.67,1.51-7.16,2.52-10.67s1.67-7.23,1.52-11.02c-.08-1.91-.26-3.83-.22-5.74.04-2.08.5-3.98,1.11-5.96.5-1.64.87-3.26,1.03-4.96.13-1.44.13-3.03,1.3-4.04,1.47-1.26-.66-3.37-2.12-2.12-1.24,1.07-1.75,2.57-1.97,4.15-.25,1.81-.35,3.54-.86,5.31-.55,1.9-1.15,3.75-1.36,5.73s-.08,4.13.04,6.2.2,4.07-.06,6.09c-.25,1.89-.75,3.75-1.28,5.57-1.09,3.79-2.33,7.51-2.63,11.47-.14,1.93,2.86,1.92,3,0h0Z" class="cls-7"/>
      <path d="M378.21,238.28c-.07-3.04.71-5.95,1.37-8.89s1.06-6.04,1.11-9.11c.11-6.26-.97-12.47-2.03-18.61-.33-1.9-3.22-1.09-2.89.8,1.04,6.04,2.08,12.14,1.91,18.29-.08,2.97-.53,5.85-1.2,8.73s-1.35,5.8-1.27,8.79c.05,1.93,3.05,1.93,3,0h0Z" class="cls-6"/>
      <path d="M378.35,201c-.97-2.62-2.26-5.06-4.03-7.23-.5-.61-1.61-.56-2.12,0-.6.65-.53,1.47,0,2.12.1.12.2.23.29.36-.23-.32.07.09.11.15.18.25.35.5.52.75.34.51.65,1.03.94,1.56s.56,1.08.81,1.64c.06.14.12.28.18.42.07.15.06.14-.02-.04.03.07.06.14.09.21.11.28.22.57.33.85.27.73,1.03,1.31,1.85,1.05.72-.23,1.34-1.06,1.05-1.85h0Z" class="cls-6"/>
      <path d="M373.85,193.32v-1.5c0-.24.01-.48,0-.72s-.04-.47-.08-.7-.14-.43-.24-.64c-.15-.32-.57-.6-.9-.69-.36-.1-.84-.05-1.16.15s-.6.51-.69.9l-.05.4c0,.27.07.52.2.76l.02.04-.15-.36c.04.09.06.19.07.28l-.05-.4c.04.4.02.81.01,1.21v1.25c0,.38.16.79.44,1.06s.69.46,1.06.44.79-.14,1.06-.44.44-.65.44-1.06h0Z" class="cls-6"/>
      <path d="M371.1,194.69c.09.14.2.27.31.39.03.03.06.06.09.08,0,0,.01.01.02.02.1.09.21.17.32.25.02.01.03.02.05.04.03.02.07.04.11.06.17.11.36.17.56.18.2.04.4.04.6-.03.2-.05.37-.14.51-.27.16-.11.29-.25.39-.42l.15-.36c.07-.27.07-.53,0-.8l-.15-.36c-.13-.23-.31-.4-.54-.54-.06-.03-.11-.06-.16-.1l.3.23c-.06-.05-.12-.1-.17-.17l.23.3s-.02-.03-.03-.04c-.09-.17-.22-.32-.39-.42-.14-.13-.31-.22-.51-.27-.2-.06-.4-.07-.6-.03-.2,0-.39.07-.56.18l-.3.23c-.19.19-.31.41-.39.66l-.05.4c0,.27.07.52.2.76h0Z" class="cls-6"/>
      <path d="M373.77,189.61c.14-1.23-.34-2.5-1-3.51s-1.44-1.89-2.19-2.8c-.23-.28-.72-.44-1.06-.44-.37,0-.81.16-1.06.44s-.46.66-.44,1.06c.02.42.18.73.44,1.06.28.35.57.7.85,1.05.13.16.27.33.4.49.03.04.06.07.09.11.1.13.08.1-.06-.08,0,.05.14.19.17.23.24.33.46.68.65,1.04.05.11.11.37,0-.01.02.09.07.18.1.27.07.21.12.42.15.64l-.05-.4c.04.28.04.56.01.84-.04.36.2.82.44,1.06.26.26.69.46,1.06.44s.79-.14,1.06-.44c.29-.31.39-.64.44-1.06h0Z" class="cls-6"/>
      <path d="M369.89,182.86c-2.4-2.05-4.86-4.03-7.37-5.95-.29-.22-.83-.24-1.16-.15-.35.1-.73.36-.9.69-.42.79-.13,1.54.54,2.05.14.11.29.22.43.33-.12-.09-.07-.06.02.01.07.06.14.11.21.17.3.24.61.47.91.71.59.46,1.17.93,1.75,1.4,1.16.94,2.31,1.89,3.44,2.86.6.51,1.54.63,2.12,0,.51-.56.64-1.58,0-2.12h0Z" class="cls-6"/>
      <path d="M363.08,177.36c-.46-1.06-1.36-1.91-2.18-2.7-.87-.84-1.8-1.63-2.76-2.37-1.93-1.49-4.11-3.16-6.59-3.46-.81-.1-1.5.76-1.5,1.5,0,.89.69,1.4,1.5,1.5-.13-.02.14.04.14.04.15.04.29.08.43.13.12.04.31.13.48.22.46.24.9.51,1.34.78.83.52,1.73,1.14,2.44,1.7.81.63,1.58,1.31,2.33,2.03.36.35.72.71,1.07,1.08s.5.58.71,1.07c.32.74,1.41.91,2.05.54.77-.45.86-1.31.54-2.05h0Z" class="cls-6"/>
      <path d="M351.96,168.8c-.62-.57-1.27-1.12-1.94-1.64-.71-.55-1.43-1.15-2.26-1.53-1.72-.79-3.76-.92-5.62-1.03-.78-.05-1.53.72-1.5,1.5.04.85.66,1.45,1.5,1.5.44.03.89.06,1.33.1.17.02.33.04.5.06.19.02.22.03.1.01.11.02.22.03.33.05.37.06.74.12,1.11.2.2.04.41.1.6.16.1.03.2.07.29.1-.1-.04-.11-.04-.01,0,.33.17.64.37.95.58.12.09.25.18.37.27.05.04.46.35.33.25.63.49,1.23,1.01,1.81,1.55s1.56.61,2.12,0c.53-.58.62-1.55,0-2.12h0Z" class="cls-6"/>
      <path d="M341.68,164.55c-.4.02-.79,0-1.19-.03-.33-.03-.51-.06-.95-.15-.76-.15-1.51-.35-2.26-.53-.83-.2-1.66-.35-2.51-.45-.4-.04-.8-.06-1.2-.1-.37-.03-.51-.05-.95-.18-.76-.21-1.67.26-1.85,1.05s.24,1.62,1.05,1.85,1.73.28,2.6.35c.44.04.53.05.96.13s.84.18,1.26.28c1.65.4,3.32.84,5.03.77.78-.03,1.54-.67,1.5-1.5-.04-.78-.66-1.54-1.5-1.5h0Z" class="cls-6"/>
      <path d="M331.07,163.32c-1.58.24-3.24-.39-4.76-.74-1.8-.42-3.64-.67-5.48-.77-.81-.04-1.5.72-1.5,1.5,0,.85.69,1.46,1.5,1.5,1.79.09,3.54.37,5.28.81,1.92.48,3.78.9,5.76.6.8-.12,1.24-1.13,1.05-1.85-.24-.86-1.04-1.17-1.85-1.05h0Z" class="cls-6"/>
      <path d="M318.98,162.32l-2.39.48.8,2.89c.29-.08.57-.19.85-.3.23-.09.45-.19.68-.29.29-.13-.18.06.15-.06.26-.1.53-.18.8-.24-.31.07.08,0,.15,0,.18.01.18,0,0-.02.09.02.18.04.27.07l-.9-2.2c.2-.34.47-.52.82-.53-.06,0-.13,0-.19,0-.14,0-.27.02-.41.03-.42.05-.81.13-1.21.26-.64.2-1.27.42-1.91.63-1.31.44-2.61.88-3.91,1.34-.74.26-1.31,1.04-1.05,1.85.24.73,1.05,1.32,1.85,1.05,1.44-.5,2.89-1,4.34-1.48.69-.23,1.41-.41,2.08-.65.11-.02.09-.02-.06,0,.09-.01.18-.02.28-.02.24,0,.45-.02.69-.06.57-.11.95-.43,1.27-.89.59-.82-.05-1.94-.9-2.2s-1.74-.18-2.56.1c-.38.13-.76.3-1.13.46-.16.07-.17.07-.02.01-.09.04-.17.07-.26.1-.17.07-.35.12-.53.17-.75.21-1.3,1.07-1.05,1.85.26.82,1.02,1.21,1.85,1.05l2.39-.48c.77-.15,1.28-1.11,1.05-1.85-.26-.82-1.02-1.21-1.85-1.05h0Z" class="cls-6"/>
      <path d="M312.5,164.32c-2.28.46-4.56.95-6.82,1.47-.77.18-1.29,1.1-1.05,1.85.26.8,1.03,1.24,1.85,1.05,2.27-.53,4.54-1.02,6.82-1.47.77-.15,1.28-1.11,1.05-1.85-.26-.82-1.02-1.21-1.85-1.05h0Z" class="cls-6"/>
      <path d="M305.55,165.86c-1.17.08-2.34.16-3.51.25-.63.05-1.28.1-1.88.28-1.04.31-1.81,1.21-1.54,2.34.19.76,1.09,1.29,1.85,1.05s1.25-1.03,1.05-1.85c.1.61-.07,1.05-.49,1.32.1-.05.08-.05-.05.01-.29.12.12-.02.18-.03.1-.02.2-.04.29-.06.05,0,.1-.02.15-.02.12-.02.07-.01-.15.02,0,0,1.23-.1,1.33-.11l2.77-.2c.78-.06,1.54-.65,1.5-1.5-.03-.76-.66-1.56-1.5-1.5h0Z" class="cls-6"/>
      <path d="M298.91,167.38c-1.18.28-2.36.59-3.52.94-.56.17-1.12.35-1.68.54-.72.24-1.43.47-2.01.99s-.58,1.59,0,2.12c.63.57,1.5.56,2.12,0-.17.12-.19.13-.05.04.15-.07.13-.07-.07.02.08-.06.23-.08.32-.11.28-.1.56-.19.83-.28.52-.17,1.04-.33,1.56-.49,1.09-.32,2.18-.61,3.28-.87.76-.18,1.29-1.1,1.05-1.85-.26-.8-1.03-1.24-1.85-1.05h0Z" class="cls-6"/>
      <path d="M291.38,169.95c-1.58.38-2.93,1.24-4.19,2.23-.58.46-1.14.95-1.7,1.43-.3.26-.6.52-.91.77-.14.11-.27.22-.41.33.17-.13.02-.02-.07.05s-.18.13-.27.19c-.64.45-1,1.33-.54,2.05.41.64,1.37,1.02,2.05.54,1.3-.92,2.45-2.02,3.68-3.02.08-.06.42-.32.18-.14.13-.1.26-.19.39-.29.28-.2.57-.39.87-.56.16-.09.32-.18.48-.26.07-.04.15-.07.22-.11.15-.07.08-.05-.03,0,.31-.17.7-.25,1.04-.33.76-.18,1.29-1.09,1.05-1.85-.26-.8-1.03-1.24-1.85-1.05h0Z" class="cls-6"/>
      <path d="M282.57,175.96c-2.56,1.54-4.73,3.64-6.85,5.72-.56.55-.59,1.58,0,2.12s1.52.59,2.12,0c1.01-.99,2.01-1.98,3.07-2.91.25-.22.5-.43.76-.65.14-.11.27-.22.41-.33,0,0,.29-.23.13-.1-.15.12.05-.04.08-.06.58-.43,1.18-.84,1.79-1.21.67-.4.98-1.37.54-2.05s-1.33-.97-2.05-.54h0Z" class="cls-6"/>
      <path d="M283.12,175.6l-.24.18c-.17.09-.32.22-.42.39-.13.14-.22.31-.27.51-.06.2-.07.4-.03.6,0,.2.07.39.18.56l.23.3c.19.19.41.31.66.39l.4.05c.27,0,.52-.07.76-.2l.24-.18c.17-.09.32-.22.42-.39.13-.14.22-.31.27-.51.06-.2.07-.4.03-.6,0-.2-.07-.39-.18-.56l-.23-.3c-.19-.19-.41-.31-.66-.39l-.4-.05c-.27,0-.52.07-.76.2h0Z" class="cls-6"/>
      <path d="M275.49,182.05c-.18.32-.37.63-.57.94-.1.16-.21.32-.32.48-.05.07-.1.14-.15.21-.12.17-.06.13.01-.01-.15.3-.49.58-.72.82-.12.12-.25.24-.38.36-.06.06-.13.11-.2.17-.04.03-.08.07-.12.1-.09.07-.05.04.11-.08-.09.12-.28.21-.4.29-.14.1-.27.19-.41.29-.36.26-.72.52-1.06.81-.27.22-.51.47-.72.74-.12.15-.23.29-.34.45-.12.16.03-.05.07-.09-.06.05-.12.14-.18.2l-.06.06c.1-.11.22-.18.37-.22-.38.15-.68.33-.9.69-.19.32-.27.8-.15,1.16.23.7,1.06,1.36,1.85,1.05.58-.23.99-.54,1.37-1.03.08-.1.15-.2.22-.3.19-.26-.24.26,0,0,.12-.13.24-.27.38-.39.1-.1.28-.31.41-.35-.16.12-.2.15-.11.08.04-.03.08-.06.12-.09.08-.06.16-.12.24-.17.3-.21.6-.42.89-.64,1.4-1.08,2.46-2.46,3.33-3.99.39-.68.18-1.67-.54-2.05s-1.64-.19-2.05.54h0Z" class="cls-6"/>
      <path d="M269.5,188.24c-.7,1-1.24,2.11-1.65,3.26-.09.25-.17.51-.26.77-.04.12-.1.23-.13.35.02-.07.13-.28.04-.1-.04.07-.07.14-.11.21-.04.06-.24.36-.09.15s0-.01-.04.03c-.04.04-.08.07-.12.11-.16.16.11-.09.11-.09,0,0-.12.07-.14.08-.22.14.24-.07.1-.04-.06.01-.13.03-.19.05-.77.15-1.28,1.12-1.05,1.85.27.82,1.02,1.21,1.85,1.05.74-.14,1.38-.63,1.83-1.22s.71-1.26.94-1.95c.09-.27.18-.55.29-.82.02-.05.04-.09.05-.14l-.08.18c.03-.06.05-.12.08-.18.07-.15.14-.3.21-.44.27-.56.59-1.09.95-1.6.45-.65.14-1.69-.54-2.05-.77-.4-1.57-.15-2.05.54h0Z" class="cls-6"/>
      <path d="M266.82,193.41c-1.44,1.23-2.49,2.87-3.32,4.55-.93,1.87-1.69,3.83-2.31,5.83-.23.75.27,1.67,1.05,1.85s1.6-.24,1.85-1.05c.55-1.8,1.19-3.46,2-5.12s1.55-2.83,2.85-3.94c.62-.53.54-1.58,0-2.12-.61-.61-1.5-.53-2.12,0h0Z" class="cls-6"/>
      <path d="M261.51,203.29l-1.32,4.49c-.21.7-.43,1.41-.6,2.12-.11.45-.17.92-.22,1.38-.01.13-.02.26-.03.39.02-.18.02-.19-.02-.02.03-.09.08-.17.15-.23-.51.59-.63,1.54,0,2.12.56.52,1.58.64,2.12,0,.33-.38.57-.78.67-1.28.05-.24.07-.48.09-.72,0-.05.07-.55.03-.35.13-.77.38-1.53.6-2.28l1.42-4.82c.22-.75-.27-1.67-1.05-1.85s-1.61.24-1.85,1.05h0Z" class="cls-6"/>
      <path d="M259.26,212.4c-.5,1.63-.57,3.36-.61,5.05s-.05,3.03-.58,4.58c-.25.74.29,1.67,1.05,1.85.83.19,1.58-.25,1.85-1.05.54-1.61.63-3.34.67-5.03.02-.8.03-1.61.1-2.41.04-.45.04-.56.11-.95.07-.42.18-.83.3-1.24.23-.75-.27-1.67-1.05-1.85-.81-.19-1.6.24-1.85,1.05h0Z" class="cls-6"/>
      <path d="M258.11,222.49c-.01.39-.42.96-.57,1.32-.21.52-.34,1.05-.42,1.6-.18,1.1-.21,2.22-.26,3.34-.09,2.25-.12,4.51-.46,6.74-.12.8.2,1.61,1.05,1.85.71.2,1.72-.24,1.85-1.05.37-2.41.47-4.84.56-7.28.04-1.08.02-2.2.24-3.26.24-1.14.97-2.06,1.01-3.25.06-1.93-2.94-1.93-3,0h0Z" class="cls-6"/>
      <path d="M256.42,236.01l-.11.92c0,.21.04.4.13.58.06.19.16.35.31.48.14.15.3.25.48.31.18.09.37.14.58.13l.4-.05c.25-.07.47-.2.66-.39l.23-.3c.14-.23.2-.49.2-.76l.11-.92c0-.21-.04-.4-.13-.58-.06-.19-.16-.35-.31-.48-.14-.15-.3-.25-.48-.31-.18-.09-.37-.14-.58-.13l-.4.05c-.25.07-.47.2-.66.39l-.23.3c-.14.23-.2.49-.2.76h0Z" class="cls-6"/>
      <path d="M270.02,247.8c1.13-1.58,2.06-3.27,2.83-5.06s1.93-3.43,2.53-5.3c.24-.75-.28-1.67-1.05-1.85-.82-.19-1.59.25-1.85,1.05-.24.76-.7,1.52-1.14,2.31s-.81,1.61-1.17,2.44c-.74,1.73-1.66,3.36-2.75,4.89-.47.66-.11,1.67.54,2.05.75.44,1.58.12,2.05-.54h0Z" class="cls-6"/>
      <path d="M275.55,236.66c-.09-2.12-.12-4.11.95-6.01.53-.94,1.17-1.82,1.78-2.7.33-.47.63-.97.98-1.42.04-.06.24-.29.36-.38-.07.06-.03.04.12-.06-.03.03-.07.06-.11.07,1.93,0,1.93-2.99,0-3-1.49,0-2.41,1.07-3.19,2.2s-1.61,2.24-2.32,3.42-1.22,2.37-1.43,3.68c-.22,1.4-.2,2.79-.14,4.2.04.81.66,1.5,1.5,1.5.79,0,1.54-.69,1.5-1.5h0Z" class="cls-6"/>
      <path d="M280.75,224.68c.18-.84.63-1.54,1.04-2.34.45-.86.87-1.74,1.28-2.62.43-.94.84-1.9,1.24-2.86.17-.41.33-.82.49-1.23.1-.24.2-.46.45-.67.61-.53.54-1.58,0-2.12-.61-.61-1.51-.53-2.12,0-.8.7-1.11,1.73-1.49,2.69-.36.9-.75,1.8-1.15,2.68-.43.94-.89,1.88-1.37,2.8s-1.04,1.85-1.26,2.88c-.17.79.23,1.62,1.05,1.85.75.2,1.68-.25,1.85-1.05h0Z" class="cls-6"/>
      <path d="M285.59,213.98c0-.86.38-1.74.72-2.57s.7-1.73,1.01-2.61.61-1.77.87-2.66c.11-.35.19-.72.34-1.05-.11.26.13-.21.17-.26-.1.13-.09.13.03,0-.06.07-.13.1-.21.12.75-.3,1.28-1,1.05-1.85-.2-.71-1.09-1.35-1.85-1.05-1.13.46-1.72,1.25-2.13,2.37-.36.99-.62,2.02-.96,3.02s-.75,2.07-1.17,3.08c-.46,1.12-.87,2.23-.86,3.46,0,.81.69,1.5,1.5,1.5s1.5-.69,1.5-1.5h0Z" class="cls-6"/>
      <path d="M289,204.07c.9-2.3,2.71-4.23,4.67-5.68,1.16-.85,2.4-1.56,3.63-2.29.67-.39,1.32-.82,1.96-1.26.54-.37,1.03-.68,1.68-.79.8-.13,1.25-1.12,1.05-1.85-.23-.85-1.04-1.18-1.85-1.05-1.63.26-2.97,1.54-4.36,2.35s-2.71,1.58-3.96,2.53c-2.51,1.92-4.57,4.26-5.72,7.23-.29.75.32,1.65,1.05,1.85.85.23,1.55-.29,1.85-1.05h0Z" class="cls-6"/>
      <path d="M301.19,193.63c3.14-1.9,7.33-1.24,10.83-1.82,3.99-.66,8.05-2.09,12.13-1.31,1.89.36,2.69-2.53.8-2.89-4.53-.87-8.85.45-13.29,1.24-4,.7-8.37,0-11.99,2.2-1.65,1-.14,3.59,1.51,2.59h0Z" class="cls-6"/>
      <path d="M324.23,190.17c4.37.15,8.71,0,13.06-.31s8.49.44,12.73,1.31c1.88.39,2.69-2.5.8-2.89-4.32-.9-8.65-1.72-13.08-1.45s-8.98.5-13.5.34c-1.93-.07-1.93,2.93,0,3h0Z" class="cls-6"/>
      <path d="M349.15,190.65c3.98.71,7.7,2.51,10.69,5.25,1.47,1.35,2.75,2.89,3.78,4.6.13.22.26.44.38.66.06.11.12.22.18.34.13.26.15.3.08.14.04-.38-.1-.41-.04.03.12.86.79,1.48,1.38,2.07,1.36,1.37,3.48-.75,2.12-2.12-.21-.21-.4-.46-.62-.65-.07-.06-.02-.08,0,.04.14.68.13.22.03-.19-.2-.83-.8-1.66-1.26-2.37-1.19-1.85-2.64-3.55-4.29-5.01-3.29-2.89-7.31-4.92-11.63-5.69-.8-.14-1.62.22-1.85,1.05-.2.73.25,1.7,1.05,1.85h0Z" class="cls-6"/>
      <path d="M365.01,202.95c1.38,4.62,3.2,9.21,3.7,14.04.08.81.63,1.5,1.5,1.5.75,0,1.58-.69,1.5-1.5-.53-5.12-2.34-9.94-3.81-14.84-.55-1.85-3.45-1.06-2.89.8h0Z" class="cls-6"/>
      <path d="M368.71,216.36c0,4.73.3,9.46.88,14.15.1.8.62,1.5,1.5,1.5.73,0,1.6-.69,1.5-1.5-.58-4.7-.87-9.42-.88-14.15,0-1.93-3-1.93-3,0h0Z" class="cls-6"/>
      <path d="M369.15,229.68c.38,6.98,1.06,13.93,2,20.86.11.81,1.14,1.23,1.85,1.05.87-.23,1.16-1.05,1.05-1.85-.91-6.66-1.53-13.35-1.9-20.06-.1-1.92-3.11-1.93-3,0h0Z" class="cls-6"/>
      <path d="M255.87,285.68c-1.08,1.13-2.26,2.17-3.41,3.23-.58.54-.58,1.59,0,2.12.62.57,1.51.57,2.12,0,1.14-1.06,2.33-2.1,3.41-3.23.27-.28.44-.67.44-1.06,0-.37-.16-.81-.44-1.06s-.66-.46-1.06-.44-.78.15-1.06.44h0Z" class="cls-7"/>
      <path d="M253.18,288.84c-2.83.11-5.66.19-8.49.24-.78.01-1.54.68-1.5,1.5s.66,1.51,1.5,1.5c2.83-.05,5.66-.13,8.49-.24.78-.03,1.54-.67,1.5-1.5-.04-.79-.66-1.53-1.5-1.5h0Z" class="cls-7"/>
      <path d="M243.17,289.4c-3.33.09-6.77-.18-9.88,1.21-1.46.65-2.88,1.4-4.29,2.16s-3.07,1.48-4.21,2.63c-1.36,1.37.76,3.49,2.12,2.12.94-.94,2.44-1.53,3.6-2.16,1.32-.71,2.65-1.41,4.01-2.03s2.61-.77,4.05-.81c1.53-.04,3.06-.08,4.6-.12,1.93-.05,1.93-3.05,0-3h0Z" class="cls-7"/>
      <path d="M224.79,295.28c-5.05,1.96-10.04,4.07-14.96,6.31-.74.34-.92,1.4-.54,2.05.44.76,1.31.88,2.05.54,4.69-2.14,9.44-4.14,14.24-6.01.75-.29,1.28-1.01,1.05-1.85-.2-.72-1.09-1.34-1.85-1.05h0Z" class="cls-7"/>
      <path d="M210.16,301.7c-4.64,1.36-9.16,3.07-13.55,5.09-.74.34-.92,1.4-.54,2.05.44.76,1.31.88,2.05.54,4.15-1.91,8.45-3.5,12.83-4.79,1.85-.54,1.06-3.44-.8-2.89h0Z" class="cls-7"/>
      <path d="M196.78,306.85c-5.18,1.68-10.25,3.66-15.2,5.92-.74.34-.92,1.4-.54,2.05.44.76,1.31.88,2.05.54,4.72-2.16,9.55-4.03,14.49-5.62,1.83-.59,1.05-3.49-.8-2.89h0Z" class="cls-7"/>
      <path d="M182.6,315.55c1.93,0,1.93-3,0-3s-1.93,3,0,3h0Z" class="cls-7"/>
      <path d="M181.81,312.67c-6.24,2.79-12.88,4.67-18.87,8-1.41.79-2.78,1.66-4.08,2.63-1.49,1.12-2.78,2.47-4.28,3.58-.95.7-1.92,1.37-2.86,2.1-.47.37-2.01,1.73-2.48,1.64-1.89-.36-2.7,2.53-.8,2.89,2.58.49,4.69-1.99,6.59-3.34,2.86-2.03,5.33-4.5,8.36-6.3,6.24-3.71,13.32-5.66,19.92-8.61,1.76-.79.24-3.37-1.51-2.59h0Z" class="cls-7"/>
      <path d="M258.28,296.73c-.97,4.5-1.43,9.11-1.36,13.72.03,1.93,3.03,1.93,3,0-.07-4.35.34-8.67,1.25-12.92.17-.79-.24-1.62-1.05-1.85-.75-.21-1.67.25-1.85,1.05h0Z" class="cls-7"/>
      <path d="M256.86,310.84c.49,8.23,1.2,16.45,2.12,24.64.21,1.9,3.22,1.92,3,0-.92-8.19-1.63-16.41-2.12-24.64-.11-1.92-3.11-1.93-3,0h0Z" class="cls-7"/>
      <path d="M259.09,335.77c1.5,6,2.32,12.12,2.44,18.29.04,1.93,3.04,1.93,3,0-.12-6.44-.98-12.85-2.54-19.09-.47-1.87-3.36-1.08-2.89.8h0Z" class="cls-7"/>
      <path d="M261.39,352.76l.83,10.38.4,5c.12,1.47-.07,3.44.71,4.74.99,1.65,3.59.15,2.59-1.51-.27-.45-.15-1.37-.19-1.88l-.19-2.31-.39-4.8-.77-9.61c-.15-1.91-3.15-1.93-3,0h0Z" class="cls-7"/>
      <path d="M262.59,371.46c-.12,1.31,0,2.59.29,3.86.32,1.39,2.02,1.3,2.74.36,1.9-2.48,3.79-4.95,5.69-7.43,1.78-2.33,3.51-4.74,5.61-6.79,3.82-3.74,8.76-6.11,13.63-8.17.75-.32,1.27-.99,1.05-1.85-.19-.71-1.1-1.36-1.85-1.05-5.25,2.21-10.47,4.69-14.65,8.65-2.19,2.07-3.96,4.53-5.78,6.91-2.1,2.74-4.19,5.47-6.29,8.21l2.74.36c-.24-1.03-.28-2.01-.19-3.06.17-1.92-2.83-1.91-3,0h0Z" class="cls-7"/>
      <path d="M291.56,350.61c-4.36-6.19-8.97-12.28-12.98-18.71-.95-1.52-1.84-3.08-2.63-4.68-.73-1.49-1.24-3.18-2.39-4.41-.52-.56-1.21-.95-1.69-1.53s-.8-1.44-1.13-2.15c-.84-1.81-1.68-3.62-2.52-5.42s-3.4-.23-2.59,1.51c1.47,3.16,2.58,6.86,5.26,9.2,1.28,1.11,1.74,2.84,2.47,4.33.79,1.61,1.69,3.16,2.63,4.68,4,6.43,8.62,12.52,12.98,18.71,1.1,1.57,3.7.07,2.59-1.51h0Z" class="cls-7"/>
      <path d="M290.17,353.68c2.59,3.21,5.17,6.41,7.76,9.62.51.63,1.59.53,2.12,0,.62-.62.51-1.49,0-2.12-2.59-3.21-5.17-6.41-7.76-9.62-.51-.63-1.59-.53-2.12,0-.62.62-.51,1.49,0,2.12h0Z" class="cls-7"/>
      <path d="M299.96,365.29c1.95-.13,3.47-1.28,5.06-2.31,1.76-1.14,3.51-2.28,5.25-3.45s3.37-2.29,5.03-3.47c1.49-1.07,3.22-2.09,3.73-3.97s-2.38-2.66-2.89-.8c-.16.58-.66.93-1.12,1.28-.72.55-1.47,1.06-2.21,1.58-1.43,1.01-2.89,2-4.35,2.97s-2.93,1.93-4.4,2.89c-.75.48-1.49.98-2.24,1.45-.57.36-1.18.77-1.88.82-1.92.13-1.93,3.13,0,3h0Z" class="cls-7"/>
      <path d="M317.79,353.53c2.59-2.38,4.46-5.39,6.99-7.84,1.02-.99,1.82-1.99,2.48-3.25.27-.53.55-1.06.86-1.57.07-.12.14-.23.21-.34.02-.04.27-.38.11-.18.08-.1.18-.18.26-.28.14-.2-.13.06-.25.11.75-.31,1.28-1,1.05-1.85-.19-.71-1.09-1.36-1.85-1.05-1.28.53-1.95,1.72-2.58,2.89-.29.53-.55,1.08-.85,1.61s-.68.93-1.21,1.45c-1.32,1.29-2.52,2.64-3.68,4.08s-2.3,2.85-3.65,4.09c-1.42,1.31.7,3.43,2.12,2.12h0Z" class="cls-7"/>
      <path d="M313.8,356.55c5.24,2.26,9.88,5.65,13.61,9.98.53.61,1.58.54,2.12,0,.61-.61.53-1.51,0-2.12-3.88-4.49-8.77-8.09-14.22-10.44-.74-.32-1.61-.22-2.05.54-.37.63-.21,1.73.54,2.05h0Z" class="cls-7"/>
      <path d="M332.97,338.27c-.81,4.16-1.58,8.32-2.43,12.47-.41,2.01-.86,4.02-1.38,6-.26.99-.54,1.98-.85,2.96-.14.45-.29.9-.44,1.35-.1.3-.21.6-.31.89-.22.41-.15.45.22.11-1.84.56-1.06,3.46.8,2.89s2.26-3.25,2.76-4.9c.69-2.27,1.24-4.57,1.74-6.88,1.01-4.68,1.86-9.39,2.77-14.09.37-1.89-2.52-2.69-2.89-.8h0Z" class="cls-7"/>
      <path d="M287.11,405.43c3.86,0,3.87-6,0-6s-3.87,6,0,6h0Z" class="cls-7"/>
      <path d="M355.12,319.58c5.09,4.25,10.79,7.62,16.35,11.19,2.7,1.73,5.29,3.59,7.88,5.48s5.26,3.45,8.44,3.17c1.91-.17,1.93-3.17,0-3-2.94.26-5.35-1.58-7.59-3.25-2.47-1.84-5-3.57-7.59-5.23-5.22-3.34-10.6-6.5-15.37-10.48-1.47-1.23-3.61.88-2.12,2.12h0Z" class="cls-7"/>
      <path d="M385.5,339.51c3.39,1.96,6.66,4.13,9.53,6.82,2.59,2.43,4.64,5.9,8.46,6.33.81.09,1.5-.75,1.5-1.5,0-.89-.69-1.41-1.5-1.5-1.4-.16-2.51-1.41-3.4-2.38-1.24-1.34-2.45-2.67-3.83-3.88-2.83-2.49-5.99-4.59-9.25-6.48-1.67-.97-3.19,1.62-1.51,2.59h0Z" class="cls-7"/>
      <path d="M401.16,352.07c1.65,2.19,3.2,4.45,4.66,6.77.63,1.01,1.43,2.07,1.79,3.22.39,1.23.65,2.36,1.46,3.4.5.64,1.6.52,2.12,0,.63-.63.5-1.48,0-2.12-.23-.29-.32-.76-.41-1.11-.17-.59-.33-1.16-.57-1.73-.51-1.19-1.24-2.29-1.93-3.38-1.42-2.25-2.93-4.44-4.52-6.56-.49-.65-1.3-.98-2.05-.54-.64.37-1.03,1.4-.54,2.05h0Z" class="cls-7"/>
      <path d="M408.73,363.69c.57,2.81.97,5.64,1.18,8.5.1,1.39.16,2.78.18,4.17s.02,2.8.64,4.14c.34.73,1.4.92,2.05.54.75-.44.88-1.31.54-2.05-.48-1.02-.22-2.49-.25-3.59-.04-1.39-.11-2.78-.24-4.17-.24-2.8-.65-5.58-1.21-8.34-.38-1.89-3.28-1.09-2.89.8h0Z" class="cls-7"/>
      <path d="M327.35,364.71c.25,1.76-.19,3.54-.7,5.21-.56,1.82-1.21,3.6-1.82,5.4-1.1,3.22-2.42,6.2-5.21,8.31-.65.49-.97,1.29-.54,2.05.36.64,1.41,1.03,2.05.54,1.53-1.16,2.84-2.48,3.92-4.07,1.17-1.73,1.88-3.71,2.55-5.67,1.39-4.05,3.26-8.21,2.65-12.57-.11-.81-1.13-1.23-1.85-1.05-.87.23-1.16,1.05-1.05,1.85h0Z" class="cls-7"/>
      <path d="M306.96,366.2c.79-.27,1.57-.62,2.29-1.06.33-.2.59-.52.69-.9.06-.2.07-.4.03-.6,0-.2-.07-.39-.18-.56-.21-.32-.51-.6-.9-.69s-.81-.06-1.16.15c-.74.45-1.49.88-2.26,1.28-.32.17-.59.55-.69.9-.06.2-.07.4-.03.6,0,.2.07.39.18.56.21.32.51.6.9.69.4.09.79.04,1.16-.15.76-.41,1.52-.84,2.26-1.28l-1.51-2.59c-.41.25-.83.47-1.28.66l.36-.15c-.21.09-.43.17-.65.25-.37.13-.69.34-.9.69-.11.17-.17.36-.18.56-.04.2-.04.4.03.6.12.36.34.71.69.9s.77.28,1.16.15h0Z" class="cls-7"/>
      <path d="M386.85,336.38l3.61,1.45c.34.14.86.02,1.16-.15s.61-.54.69-.9c.09-.38.07-.81-.15-1.16l-.23-.3c-.19-.19-.41-.31-.66-.39l-3.61-1.45c-.34-.14-.86-.02-1.16.15s-.61.54-.69.9c-.09.38-.07.81.15,1.16l.23.3c.19.19.41.31.66.39h0Z" class="cls-7"/>
      <path d="M384.88,334.81c1.28,1.04,2.56,2.06,3.86,3.08l1.82-2.36c-.32-.14-.61-.31-.9-.51-.04-.03-.28-.21-.1-.07s-.08-.07-.09-.08c-.13-.11-.27-.22-.4-.34-.6-.51-1.2-1.03-1.9-1.4s-1.47-.22-1.94.39c-.42.54-.46,1.5.12,1.97.65.53,1.33,1.01,2.08,1.38l1.16-2.74-.82-.15-.4,2.95c.83,0,1.66.04,2.48.14.07,0,.16.03.23.03-.31.03-.17-.02-.03,0,.16.03.31.06.47.1.08.02.17.06.25.08.18.04-.3-.17-.02-.01.06.03.12.07.18.1.29.16-.22-.21.03.02l1.46-2.51h-.04c-.69-.12-1.31.07-1.69.68-.32.52-.29,1.2.03,1.71.23.37.62.64.94.92l.3-2.36c.12-.07.25-.1.38-.1.22.04.27.04.15.01-.11-.03-.07-.01.12.05-.05-.02-.1-.05-.14-.08-.09-.06-.06-.03.08.08-.06-.04-.11-.09-.16-.14-.08-.07-.15-.15-.23-.22-.31-.32-.6-.66-.89-1-.65-.75-1.34-1.47-2.2-1.98-.65-.38-1.49-.2-1.94.39-.48.62-.37,1.39.12,1.97.79.94,1.57,1.88,2.36,2.81l1.46-2.51c.37.14-.07-.05-.15-.09-.14-.09-.13-.08.03.03-.06-.05-.11-.1-.17-.15-.56-.55-1.57-.6-2.12,0s-.6,1.53,0,2.12c.47.46,1,.76,1.61.99s1.4-.14,1.69-.69c.33-.63.21-1.28-.23-1.82-.79-.94-1.57-1.88-2.36-2.81l-1.82,2.36c.12.07.24.15.35.23.13.1.11.08-.05-.04.05.04.11.09.16.14.19.16.36.34.53.51.35.38.68.78,1.02,1.16.4.46.82.91,1.33,1.24.79.51,1.72.58,2.56.15s1.01-1.73.3-2.36c-.12-.1-.23-.21-.35-.31-.05-.04-.1-.09-.15-.13-.3-.29-.23-.05.19.72l-.2.76.02-.03-1.69.69h.04c.64.11,1.36-.06,1.69-.68.3-.57.27-1.36-.23-1.82-.83-.75-1.81-1.01-2.89-1.15-.94-.12-1.88-.17-2.82-.18-.75,0-1.38.57-1.47,1.3-.09.68.34,1.51,1.07,1.65l.82.15c.74.14,1.46-.14,1.77-.87.27-.65.06-1.54-.61-1.87-.3-.15-.59-.31-.87-.49-.13-.08-.26-.17-.39-.26-.06-.05-.13-.09-.19-.14-.18-.13.28.22-.02-.02l-1.82,2.36c.15.08.3.17.45.26.07.05.14.1.21.15.16.12.13.06-.01-.02.29.16.55.46.8.67.6.5,1.21,1.01,1.93,1.32s1.44.25,1.94-.39c.41-.53.47-1.51-.12-1.97-1.3-1.01-2.58-2.04-3.86-3.08-.61-.49-1.53-.64-2.12,0-.5.55-.65,1.59,0,2.12h0Z" class="cls-9"/>
      <path d="M403.55,350.19c.3.58.63,1.13,1.07,1.62.23.27.71.46,1.06.44s.64-.11.91-.32c.25-.19.47-.47.54-.78.09-.38.08-.83-.15-1.16-.38-.56-.77-1.11-1.15-1.67-.23-.34-.47-.67-.73-.99s-.56-.57-.9-.8l-1.16,2.74s.09.03.14.05l-.36-.15c.21.09.41.2.59.34l-.3-.23c.13.1.25.21.36.33.25.28.69.44,1.06.44s.81-.16,1.06-.44.46-.66.44-1.06-.16-.76-.44-1.06c-.48-.52-1.09-.87-1.75-1.11-.33-.12-.86-.04-1.16.15-.28.18-.48.41-.61.72s-.18.66-.08.98c.12.39.35.67.69.9.04.03.08.06.12.08l-.3-.23c.19.15.36.33.51.52l-.23-.3c.57.74,1.08,1.54,1.62,2.32l2.36-1.82c-.06-.07-.11-.13-.17-.2l.23.3c-.26-.35-.47-.73-.67-1.12-.17-.32-.55-.59-.9-.69s-.84-.05-1.16.15-.6.51-.69.9c-.09.41-.04.78.15,1.16h0Z" class="cls-9"/>
      <path d="M378.09,236.98c.04.9,0,1.8-.12,2.69l.05-.4c-.01.09-.03.19-.04.28l2.95.4.02-.44c.03-.75-.59-1.38-1.3-1.47-.76-.1-1.4.36-1.65,1.07l-.17.49,2.89.8c.3-1.34.5-2.7.64-4.07l-.05-.4c-.05-.2-.14-.37-.27-.51-.19-.25-.47-.47-.78-.54-.26-.06-.53-.06-.8,0-.4.09-.66.38-.9.69l-.15.19,2.36-.3-.03-.03.23.3-.02-.04.2.76v-.05c-.05-.41-.14-.76-.44-1.06-.26-.26-.69-.46-1.06-.44s-.79.14-1.06.44-.46.66-.44,1.06c.02.51.02,1.01,0,1.52-.04.78.72,1.53,1.5,1.5.85-.04,1.45-.66,1.5-1.5.03-.5.03-1.01,0-1.52h-3c.03.29.06.53.21.8.08.14.18.26.28.38.31.35.82.47,1.26.41.2,0,.39-.07.56-.18.23-.13.4-.31.54-.54l.15-.19-2.8-.76c-.04.38-.08.76-.13,1.14l.05-.4c-.12.85-.27,1.7-.45,2.54-.09.39-.06.8.15,1.16.18.31.54.61.9.69.38.09.81.07,1.16-.15s.56-.51.69-.9l.17-.49-2.95-.4-.02.44c-.03.75.59,1.38,1.3,1.47.32.04.68,0,.96-.18.31-.2.63-.52.69-.9.17-1.12.26-2.24.22-3.37-.02-.39-.16-.78-.44-1.06-.26-.26-.69-.46-1.06-.44s-.79.14-1.06.44-.46.66-.44,1.06h0Z" class="cls-9"/>
      <path d="M369.47,203.11c1.93,0,1.93-3,0-3s-1.93,3,0,3h0Z" class="cls-6"/>
      <path d="M367.46,200.14c.22.52.45,1.03.71,1.54.21.4.42.81.59,1.22l-.15-.36c.1.25.19.5.27.76l2.51-1.46c-.12-.12-.22-.24-.33-.37l.23.3c-.22-.29-.41-.61-.55-.95l-.23-.3c-.14-.15-.3-.25-.48-.31-.3-.13-.66-.18-.98-.08-.64.21-1.09.76-1.1,1.45,0,.37.05.74.13,1.1s.38.73.69.9.62.22.96.18c.31-.04.64-.17.86-.41.28-.3.41-.65.44-1.06.04-.58-.34-1.1-.56-1.61l.15.36c-.24-.58-.41-1.18-.49-1.8-.05-.34-.4-.73-.69-.9-.32-.19-.8-.27-1.16-.15s-.71.34-.9.69l-.15.36c-.07.27-.07.53,0,.8.06.45.16.88.31,1.31.18.53.43,1.03.66,1.54l-.15-.36s.02.07.03.11l-.05-.4v.06c.98-.13,1.96-.27,2.94-.4-.02-.1-.04-.19-.05-.29l.05.4c-.02-.14-.02-.27-.02-.41l-2.8.76c.26.6.66,1.15,1.11,1.62s1.27.59,1.82.23.87-1.03.69-1.69c-.33-1.21-1.04-2.27-1.53-3.41l.15.36s-.03-.07-.04-.11c-.05-.2-.14-.37-.27-.51-.11-.16-.25-.29-.42-.39-.32-.19-.8-.27-1.16-.15s-.71.34-.9.69-.3.79-.15,1.16h0Z" class="cls-9"/>
      <path d="M363.03,204.17c1.93,0,1.93-3,0-3s-1.93,3,0,3h0Z" class="cls-9"/>
      <path d="M363.14,204.35c1.93,0,1.93-3,0-3s-1.93,3,0,3h0Z" class="cls-9"/>
      <path d="M363.1,204.14c1.93,0,1.93-3,0-3s-1.93,3,0,3h0Z" class="cls-9"/>
      <path d="M363.31,204.45c1.93,0,1.93-3,0-3s-1.93,3,0,3h0Z" class="cls-9"/>
      <path d="M363.38,204.7c1.93,0,1.93-3,0-3s-1.93,3,0,3h0Z" class="cls-9"/>
      <path d="M369.73,196.45c1.93,0,1.93-3,0-3s-1.93,3,0,3h0Z" class="cls-6"/>
      <path d="M368.43,195.71c.13.29.33.55.55.78.41.44,1.11.54,1.64.31.5-.21.99-.79.92-1.37-.04-.39-.09-.78-.13-1.17-.09-.78-.63-1.54-1.5-1.5-.81.04-1.5.66-1.5,1.5,0,1.5.6,2.83,1.23,4.16.32.67,1.24.88,1.87.61.72-.3,1.01-1.02.87-1.77-.12-.64-.41-1.24-.68-1.82-.07-.15-.13-.29-.2-.44-.15-.32.07.2-.04-.11s-.22-.59-.31-.89c-.08-.28-.16-.57-.22-.85-.03-.14-.06-.29-.08-.43,0-.04-.07-.51-.05-.3s-.02-.26-.03-.3c-.01-.15-.02-.29-.03-.44-.01-.31-.01-.63,0-.94.03-.79-.71-1.54-1.5-1.5-.84.04-1.47.66-1.5,1.5-.05,1.32.12,2.68.48,3.95.19.67.45,1.31.74,1.95.12.25.25.51.35.77-.14-.36.04.14.06.2.05.15.08.31.11.46l2.74-1.16c-.12-.26-.25-.53-.37-.79-.17-.38.11.29-.04-.1-.05-.14-.1-.27-.15-.41-.09-.25-.16-.51-.22-.77-.02-.08-.03-.16-.04-.24l.02.16c-.05-.14-.02-.34-.02-.49h-3c.04.39.09.78.13,1.17l2.56-1.06c-.11-.12-.1-.11.02.03-.04-.07-.07-.14-.1-.21-.31-.72-1.43-.94-2.05-.54-.75.48-.87,1.28-.54,2.05h0Z" class="cls-6"/>
      <path d="M368.22,190.5c-.28,2.22.02,4.54.86,6.62.15.38.32.68.69.9.32.19.8.27,1.16.15.7-.23,1.36-1.07,1.05-1.85-.2-.49-.37-.99-.5-1.5-.07-.26-.13-.51-.18-.77-.02-.11-.04-.22-.06-.33,0-.04-.06-.49-.04-.25s-.02-.21-.02-.25c-.01-.11-.02-.23-.03-.34-.02-.26-.03-.53-.03-.79,0-.53.04-1.06.1-1.58.05-.35-.2-.82-.44-1.06-.26-.26-.69-.46-1.06-.44s-.79.14-1.06.44c-.29.31-.39.64-.44,1.06h0Z" class="cls-9"/>
      <path d="M280.28,225.12c-.17.37-.38.72-.61,1.05l2.74,1.16s.02-.08.04-.13l-.15.36c.07-.16.18-.3.27-.45s.2-.3.3-.45c.21-.31.42-.63.62-.94.11-.17.17-.36.18-.56.04-.2.04-.4-.03-.6-.05-.2-.14-.37-.27-.51-.11-.16-.25-.29-.42-.39-.35-.18-.77-.28-1.16-.15l-.36.15c-.23.13-.4.31-.54.54-.23.34-.45.68-.68,1.02-.27.41-.59.82-.71,1.31-.06.2-.07.4-.03.6,0,.2.07.39.18.56l.23.3c.14.15.3.25.48.31.12.07.24.1.38.1.2.04.4.04.6-.03l.36-.15c.23-.13.4-.31.54-.54.23-.33.44-.68.61-1.05.11-.17.17-.36.18-.56.04-.2.04-.4-.03-.6-.05-.2-.14-.37-.27-.51-.11-.16-.25-.29-.42-.39-.35-.18-.77-.28-1.16-.15-.35.11-.73.34-.9.69h0Z" class="cls-9"/>
      <path d="M285.16,215.14s0,.09,0,.13l.05-.4s-.02.09-.04.14l.15-.36s-.03.06-.04.09l2.8.76c-.02-.16-.01-.32,0-.48l-.05.4c.02-.16.06-.31.12-.46.06-.2.07-.4.03-.6,0-.2-.07-.39-.18-.56-.09-.17-.22-.32-.39-.42-.14-.13-.31-.22-.51-.27l-.4-.05c-.27,0-.52.07-.76.2l-.3.23c-.19.19-.31.41-.39.66-.08.22-.12.43-.15.66s-.06.45-.03.68l.05.4c.05.2.14.37.27.51.07.11.16.2.27.27.14.13.31.22.51.27l.4.05.4-.05c.2-.05.37-.14.51-.27.16-.11.29-.25.39-.42.02-.03.03-.06.04-.09.04-.09.14-.3.18-.44.04-.16.05-.32.07-.48,0-.04,0-.07,0-.1,0-.21-.04-.4-.13-.58-.06-.19-.16-.35-.31-.48-.14-.15-.3-.25-.48-.31-.18-.09-.37-.14-.58-.13l-.4.05c-.25.07-.47.2-.66.39l-.23.3c-.14.23-.2.49-.2.76h0Z" class="cls-9"/>
      <path d="M286.7,216.02c1.93,0,1.93-3,0-3s-1.93,3,0,3h0Z" class="cls-9"/>
      <path d="M289.14,203.93l-.33.84h2.89s-.02-.05-.03-.08c-.05-.2-.14-.37-.27-.51-.11-.16-.25-.29-.42-.39-.17-.11-.36-.17-.56-.18-.2-.04-.4-.04-.6.03l-.36.15c-.23.13-.4.31-.54.54l-.15.36c-.07.27-.07.53,0,.8,0,.03.02.05.03.08l.15.36c.09.17.22.32.39.42.09.09.2.16.33.19.18.09.37.14.58.13l.4-.05.36-.15c.17-.09.32-.22.42-.39.13-.14.22-.31.27-.51l.33-.84c.06-.2.07-.4.03-.6,0-.2-.07-.39-.18-.56-.09-.17-.22-.32-.39-.42-.14-.13-.31-.22-.51-.27l-.4-.05c-.27,0-.52.07-.76.2l-.3.23c-.19.19-.31.41-.39.66h0Z" class="cls-9"/>
      <path d="M289.2,203.77l-.3.39,2.8.76s0-.09,0-.14l-.05.4c0-.05.02-.1.04-.15l-.15.36c.04-.09.09-.17.15-.25l-.23.3c.1-.12.22-.23.33-.35.05-.05.1-.11.15-.17.12-.15.27-.31.35-.49.11-.17.17-.36.18-.56.04-.2.04-.4-.03-.6-.05-.2-.14-.37-.27-.51-.11-.16-.25-.29-.42-.39l-.36-.15c-.27-.07-.53-.07-.8,0l-.36.15c-.23.13-.4.31-.54.54-.03.07-.07.13-.12.19l.23-.3c-.14.18-.32.32-.46.5s-.31.36-.4.57c-.07.16-.16.33-.19.5-.03.15-.05.31-.06.46,0,.03,0,.06,0,.09l.05.4c.05.2.14.37.27.51.07.11.16.2.27.27.14.13.31.22.51.27l.4.05.4-.05c.2-.05.37-.14.51-.27.16-.11.29-.25.39-.42l.3-.39c.11-.17.17-.36.18-.56.04-.2.04-.4-.03-.6-.05-.2-.14-.37-.27-.51-.11-.16-.25-.29-.42-.39l-.36-.15c-.27-.07-.53-.07-.8,0l-.36.15c-.23.13-.4.31-.54.54h0Z" class="cls-9"/>
      <path d="M301.16,193.82c-.16.17-.34.33-.52.48l.3-.23c-.08.07-.17.13-.26.19-.17.09-.32.22-.42.39-.13.14-.22.31-.27.51-.06.2-.07.4-.03.6,0,.2.07.39.18.56l.23.3c.19.19.41.31.66.39l.4.05c.27,0,.52-.07.76-.2.26-.14.5-.33.73-.52.14-.12.26-.25.37-.39.15-.14.25-.3.31-.48.09-.18.14-.37.13-.58l-.05-.4c-.05-.2-.14-.37-.27-.51-.07-.11-.16-.2-.27-.27-.14-.13-.31-.22-.51-.27l-.4-.05c-.27,0-.52.07-.76.2-.27.13-.54.28-.8.44l1.82,2.36c.17-.15.34-.31.52-.44l-.3.23c.18-.14.37-.26.57-.35l-.36.15c.07-.03.13-.05.2-.07.2-.05.37-.14.51-.27.16-.11.29-.25.39-.42.11-.17.17-.36.18-.56.04-.2.04-.4-.03-.6l-.15-.36c-.13-.23-.31-.4-.54-.54l-.36-.15c-.27-.07-.53-.07-.8,0-.06.02-.12.04-.18.07-.18.07-.36.14-.52.23-.12.06-.23.13-.34.21-.32.23-.62.48-.91.74-.15.14-.25.3-.31.48-.09.18-.14.37-.13.58l.05.4c.05.2.14.37.27.51.07.11.16.2.27.27.14.13.31.22.51.27l.4.05c.27,0,.52-.07.76-.2.26-.16.52-.31.8-.44l-1.82-2.36c-.13.17-.29.32-.46.46l.3-.23c-.11.08-.22.16-.34.22l1.51,2.59c.25-.16.48-.35.71-.54.13-.11.26-.23.38-.36.15-.14.25-.3.31-.48.09-.18.14-.37.13-.58,0-.21-.04-.4-.13-.58-.06-.19-.16-.35-.31-.48l-.3-.23c-.23-.14-.49-.2-.76-.2l-.4.05c-.25.07-.47.2-.66.39h0Z" class="cls-9"/>
      <path d="M324.79,190.36s-.06.01-.09.02l.4-.05c-.14.02-.28.02-.42,0l.4,2.95c.1-.03.2-.06.31-.07l-.4.05c.15-.02.3-.02.45,0v-3c-.39.02-.77-.01-1.16-.01-.19,0-.37,0-.56.03-.2.03-.42.05-.62.09-.08.02-.17.05-.25.06l.4-.05s-.06,0-.1,0l.4.05s-.06-.01-.09-.02l.36.15-.03-.02.3.23-.02-.02c-.3-.26-.65-.44-1.06-.44-.37,0-.81.16-1.06.44s-.46.66-.44,1.06.14.8.44,1.06c.25.21.45.35.77.44.08.01.15.02.23.03.08.02.15.03.23.03.15,0,.39-.04.47-.06.16-.03.31-.08.47-.1l-.4.05c.57-.08,1.14,0,1.72-.02.4-.02.77-.15,1.06-.44.26-.26.46-.69.44-1.06s-.14-.79-.44-1.06l-.3-.23c-.23-.14-.49-.2-.76-.2-.13-.02-.27-.02-.4,0-.25.02-.51.05-.75.13-.35.11-.72.35-.9.69l-.15.36c-.06.2-.07.4-.03.6,0,.14.03.26.1.38.06.19.16.35.31.48l.3.23c.23.14.49.2.76.2.3.03.61-.02.91-.07.2-.05.37-.14.51-.27.16-.11.29-.25.39-.42.19-.32.27-.8.15-1.16s-.34-.71-.69-.9l-.36-.15c-.27-.07-.53-.07-.8,0h0Z" class="cls-9"/>
      <path d="M322.6,193.28h.02c.13.02.27.04.4.06.01,0,.03,0,.04,0,.08,0,.34-.04.41-.06.01,0,.02,0,.04-.01l.36-.15c.17-.09.32-.22.42-.39.09-.09.16-.2.19-.33.09-.18.14-.37.13-.58l-.05-.4-.15-.36c-.09-.17-.22-.32-.39-.42-.14-.13-.31-.22-.51-.27l-.26-.07-.4,2.95c.07,0,.14,0,.21,0l-.4-.05c.27.04.54.08.81.12.2.06.4.07.6.03.2,0,.39-.07.56-.18.17-.09.32-.22.42-.39.13-.14.22-.31.27-.51l.05-.4c0-.27-.07-.52-.2-.76l-.23-.3c-.19-.19-.41-.31-.66-.39-.17-.03-.35-.05-.52-.08-.09-.01-.17-.02-.26-.04-.17-.02-.33-.05-.5-.07-.04,0-.09,0-.13,0-.21,0-.4.04-.58.13-.19.06-.35.16-.48.31l-.23.3c-.11.17-.17.36-.18.56-.04.13-.04.27,0,.4,0,.2.07.39.18.56l.23.3c.19.19.41.31.66.39l.26.07v-2.89s-.03,0-.05.01l.4-.05s-.03,0-.05,0l.4.05h-.02c-.2-.07-.4-.07-.6-.03-.2,0-.39.07-.56.18-.17.09-.32.22-.42.39-.13.14-.22.31-.27.51l-.05.4c0,.27.07.52.2.76l.23.3c.19.19.41.31.66.39h0Z" class="cls-9"/>
      <path d="M324.03,187.34c.15-.05.29-.08.44-.1l-.4.05c.17-.02.33-.02.5-.01.21,0,.4-.04.58-.13.19-.06.35-.16.48-.31l.23-.3c.11-.17.17-.36.18-.56.04-.13.04-.27,0-.4,0-.2-.07-.39-.18-.56l-.23-.3c-.19-.19-.41-.31-.66-.39-.29-.12-.62-.15-.94-.14s-.64.07-.95.13l-.36.15-.3.23-.23.3c-.11.17-.17.36-.18.56-.04.13-.04.27,0,.4,0,.14.03.26.1.38.04.13.1.24.19.33.11.16.25.29.42.39.51.31,1.13.28,1.7.32.21,0,.4-.04.58-.13.19-.06.35-.16.48-.31l.23-.3c.11-.17.17-.36.18-.56.04-.13.04-.27,0-.4,0-.2-.07-.39-.18-.56-.2-.31-.52-.63-.9-.69-.52-.09-1.03-.15-1.56-.1l-.4.05c-.2.05-.37.14-.51.27-.11.07-.2.16-.27.27-.13.14-.22.31-.27.51-.06.26-.06.53,0,.8.05.2.14.37.27.51.11.16.25.29.42.39.24.1.47.22.73.26s.51.08.77.08c.42,0,.84-.09,1.25-.14l-.4.05c.22-.03.43-.05.65-.05.38,0,.79-.17,1.06-.44s.46-.69.44-1.06-.14-.79-.44-1.06-.65-.43-1.06-.44c-.45-.01-.91.08-1.36.14l.4-.05c-.29.04-.59.07-.88.03l.4.05c-.13-.02-.25-.05-.38-.1l.36.15-.04-.02-.76,2.8c.33-.03.66-.02.99.02l-.4-.05c.06,0,.11.02.17.03l.4-2.95c-.25-.01-.49-.02-.74-.04l.4.05s-.1-.02-.14-.03l.36.15s-.04-.02-.06-.03l-.36,2.74c.1-.02.21-.04.32-.05l-.4.05c.17-.02.34-.03.51,0l-.4-.05c.09.01.18.04.26.07l.4-2.95c-.17-.01-.33,0-.5.01-.29.03-.57.07-.84.16-.37.12-.7.35-.9.69-.11.17-.17.36-.18.56-.04.2-.04.4.03.6.12.36.34.71.69.9s.77.28,1.16.15h0Z" class="cls-9"/>
      <path d="M350.28,190.96l-.39-.02c-.21,0-.4.04-.58.13-.19.06-.35.16-.48.31l-.23.3c-.11.17-.17.36-.18.56-.04.13-.04.27,0,.4,0,.2.07.39.18.56.2.32.52.61.9.69.25.05.5.1.75.16l.8-2.89c-.07,0-.13-.03-.19-.05l.36.15s-.05-.02-.07-.04l-.76,2.8c.15,0,.3.01.45.03v-3c-.81-.04-1.62-.07-2.44-.11l.4,2.95c.06-.01.12-.02.19-.03l-.4.05c.54-.07,1.09-.07,1.64,0l-.4-.05c.12.02.25.04.37.06.4.08.8.06,1.16-.15.31-.18.61-.54.69-.9.09-.38.07-.81-.15-1.16-.2-.31-.52-.61-.9-.69-.49-.1-.99-.16-1.49-.17s-1,.06-1.5.14c-.2.05-.37.14-.51.27-.16.11-.29.25-.39.42l-.15.36c-.06.2-.07.4-.03.6,0,.14.03.26.1.38.06.19.16.35.31.48.3.28.65.42,1.06.44.81.04,1.62.07,2.44.11.37.02.8-.18,1.06-.44s.46-.69.44-1.06-.14-.79-.44-1.06l-.3-.23c-.23-.14-.49-.2-.76-.2-.15-.02-.3-.03-.45-.03l-.4.05c-.2.05-.37.14-.51.27-.25.19-.47.47-.54.78-.06.26-.06.53,0,.8.08.35.38.73.69.9.19.1.4.21.62.24.2.06.4.07.6.03.2,0,.39-.07.56-.18.31-.18.61-.54.69-.9.09-.38.07-.81-.15-1.16-.2-.32-.52-.61-.9-.69-.25-.05-.5-.1-.75-.16l-.4,2.95.39.02c.37.02.8-.18,1.06-.44s.46-.69.44-1.06-.14-.79-.44-1.06-.65-.42-1.06-.44h0Z" class="cls-9"/>
      <path d="M349.22,187.79c.24.02.48.03.72.02.75-.02,1.37-.56,1.47-1.3.09-.68-.34-1.51-1.07-1.65-.3-.05-.59-.1-.89-.13s-.59.02-.89.06c-.33.04-.75.41-.9.69-.16.3-.22.62-.18.96.04.31.17.64.41.86.31.28.64.4,1.06.44.83.09,1.66.17,2.5.26.34.04.83-.19,1.06-.44s.37-.53.41-.86c.1-.71-.34-1.48-1.07-1.65-.78-.18-1.59-.36-2.4-.35-.63,0-1.3.46-1.45,1.1-.16.68.12,1.31.69,1.69.39.26.85.46,1.31.54.41.07.79.06,1.16-.15.31-.18.61-.54.69-.9.09-.38.07-.81-.15-1.16s-.51-.54-.9-.69c-.53-.21-1.11-.3-1.68-.33-.36-.02-.82.18-1.06.44-.23.25-.37.53-.41.86-.1.71.35,1.47,1.07,1.65.91.22,1.85.26,2.77.37l-.4-.05c.46.06.92.15,1.36.32.35.13.85.03,1.16-.15s.61-.54.69-.9c.09-.38.07-.81-.15-1.16s-.51-.55-.9-.69c-1.05-.39-2.2-.4-3.3-.54l.4.05c-.28-.04-.56-.09-.83-.15l-.4,2.95c.12,0,.24.02.36.03l-.4-.05c.32.05.62.13.92.24l.8-2.89c-.17-.03-.34-.08-.5-.14l.36.15c-.16-.07-.31-.15-.46-.25l-.76,2.8c.25,0,.5.02.75.05l-.4-.05c.42.06.84.15,1.25.25l.4-2.95c-.83-.09-1.66-.17-2.5-.26l.4,2.95h.07c-.13,0-.27.03-.4.04.19-.02.38,0,.56.02l-.4-.05c.12.02.23.04.35.06l.4-2.95c-.24,0-.48,0-.72-.02-.36-.03-.81.19-1.06.44s-.46.69-.44,1.06.14.79.44,1.06.64.4,1.06.44h0Z" class="cls-9"/>
      <path d="M147.01,328.51l-.19.17c-.15.14-.25.3-.31.48-.09.18-.14.37-.13.58,0,.21.04.4.13.58.06.19.16.35.31.48l.3.23c.23.14.49.2.76.2l.4-.05c.25-.07.47-.2.66-.39l.19-.17c.15-.14.25-.3.31-.48.09-.18.14-.37.13-.58,0-.21-.04-.4-.13-.58-.06-.19-.16-.35-.31-.48l-.3-.23c-.23-.14-.49-.2-.76-.2l-.4.05c-.25.07-.47.2-.66.39h0Z" class="cls-7"/>
      <path d="M146.37,327.95c-.2.6-.3,1.23-.34,1.86-.04.52.31,1.04.74,1.3.47.28,1.04.26,1.51,0,.27-.15.55-.29.83-.41l-.36.15c.09-.04.18-.07.27-.11l-1.69-2.2-.02.03.23-.3c-.06.08-.13.15-.21.21l.3-.23c-.26.2-.57.32-.83.51-.24.17-.48.36-.68.58s-.39.49-.57.74l-.15.36c-.06.2-.07.4-.03.6.04.31.17.64.41.86.19.18.41.31.66.39.39.13.8.02,1.16-.15l.04-.02-.36.15c.05-.02.1-.03.16-.04l-.4.05h.04c-.35-.86-.71-1.71-1.06-2.56-.06.06-.12.13-.18.19-.52.55-.58,1.37-.12,1.97.19.25.47.47.78.54l.4.05c.27,0,.52-.07.76-.2.28-.12.55-.28.79-.46.17-.09.32-.22.42-.39.13-.14.22-.31.27-.51.1-.36.05-.84-.15-1.16s-.51-.6-.9-.69-.84-.09-1.16.15c-.24.19-.51.34-.79.46l1.82,2.36c.06-.06.12-.13.18-.19.17-.18.32-.42.39-.66.09-.33.05-.67-.08-.98-.1-.25-.25-.44-.46-.6-.25-.19-.59-.35-.91-.32-.42.04-.62.09-.99.27l2.05,2.05c.06-.09.13-.17.19-.26l-.23.3c.14-.18.29-.35.47-.49l-.3.23c.2-.15.42-.25.63-.38.2-.12.38-.26.56-.4.19-.15.33-.35.47-.55l.15-.36.05-.4c0-.33-.12-.65-.32-.91-.16-.21-.35-.36-.6-.46-.28-.12-.68-.19-.98-.08-.5.19-.99.41-1.46.67l2.26,1.3c0-.13.02-.26.04-.38l-.05.4c.05-.37.13-.73.25-1.08s.04-.84-.15-1.16-.54-.61-.9-.69c-.38-.09-.81-.07-1.16.15s-.56.51-.69.9h0Z" class="cls-9"/>
      <path d="M146.6,332.73c1.93,0,1.93-3,0-3s-1.93,3,0,3h0Z" class="cls-9"/>
      <path d="M147.93,331.73c1.93,0,1.93-3,0-3s-1.93,3,0,3h0Z" class="cls-9"/>
      <path d="M120.81,354.36c-.15.49-.32.97-.51,1.45l2.95.4c0-.1.01-.19.02-.29l-.05.4c.04-.31.13-.61.25-.9l-.15.36c.2-.47.47-.91.76-1.34.2-.3.26-.82.15-1.16-.1-.32-.27-.58-.54-.78-.56-.43-1.47-.44-1.97.12-1.02,1.15-1.54,2.6-1.76,4.11-.06.2-.07.4-.03.6,0,.2.07.39.18.56.18.31.54.61.9.69.38.09.81.07,1.16-.15.3-.2.63-.52.69-.9.11-.73.27-1.45.55-2.13l-.15.36c.16-.38.36-.73.61-1.06l-.23.3c.07-.09.14-.17.21-.26l-2.36-1.82c-.67.99-1.2,2.07-1.24,3.28-.03.75.59,1.38,1.3,1.47.32.04.68,0,.96-.18l.3-.23c.19-.19.31-.41.39-.66.19-.48.36-.96.51-1.45.23-.75-.28-1.67-1.05-1.85-.81-.19-1.6.25-1.85,1.05h0Z" class="cls-9"/>
      <path d="M280.32,193.57c1.93,0,1.93-3,0-3s-1.93,3,0,3h0Z" class="cls-9"/>
      <path d="M280.83,191.95c-1.68,1.82-2.95,3.92-3.83,6.23-.13.34-.03.85.15,1.16s.54.61.9.69c.86.2,1.54-.26,1.85-1.05.05-.12.09-.24.14-.36.02-.06.05-.12.07-.18-.15.38-.06.14-.02.05.1-.23.21-.46.32-.69.24-.49.5-.96.79-1.42s.58-.88.89-1.3c.12-.16-.01.02-.06.08.04-.05.08-.1.12-.15.08-.1.16-.2.24-.3.18-.22.37-.43.57-.65.53-.58.61-1.56,0-2.12-.58-.53-1.55-.62-2.12,0h0Z" class="cls-9"/>
      <path d="M272.95,201.39c-.19,2.01-.08,4.01.24,6,.06.35.4.73.69.9.32.19.8.27,1.16.15.84-.27,1.18-1.01,1.05-1.85-.02-.12-.04-.25-.06-.37,0-.05-.02-.11-.02-.16.03.2.03.25.02.13-.03-.23-.06-.47-.08-.7-.04-.45-.07-.9-.08-1.35-.03-.92,0-1.84.09-2.75.07-.78-.74-1.53-1.5-1.5-.88.04-1.42.66-1.5,1.5h0Z" class="cls-6"/>
      <path d="M264.79,239.33c3.92,0,7.68-3.45,7.5-7.5s-3.3-7.5-7.5-7.5c-3.92,0-7.68,3.45-7.5,7.5s3.3,7.5,7.5,7.5h0Z" class="cls-6"/>
      <path d="M274.58,231.68c-.04-1.57.04-3.13.23-4.69l-.27,1.99c1.21-8.93,5.75-16.91,8.08-25.54.83-3.09-.52-6.92-3.45-8.47-1.18-.62-2.45-.96-3.79-1.02-1.64-.07-4.26.85-5.3,2.2-3.63,4.69-6.54,9.66-9.33,14.88,4.32,2.52,8.63,5.05,12.95,7.57,1.03-2.36,2.05-4.71,3.08-7.07.43-1,.86-2,1.33-2.98.27-.55.55-1.1.87-1.62.16-.26.32-.52.5-.77.46-.63.33-.47-.39.48.83-.63,1.58-1.82,2.23-2.64.92-1.14,1.79-2.32,2.63-3.51.32-.44.67-.87.97-1.33-1.23,1.92-.29.41.15-.05.18-.19.38-.38.58-.55.59-.49.39-.34-.59.45.41-.09.97-.56,1.38-.74l-1.79.76c.49-.18.96-.32,1.47-.41l-1.99.27c.52-.05.99-.05,1.51.02l-1.99-.27.38.08c3.82.84,8.29-1.15,9.23-5.24.86-3.79-1.14-8.32-5.24-9.23-4.82-1.06-9.12.45-12.81,3.58-1.36,1.15-2.41,2.67-3.46,4.09-.41.55-.8,1.12-1.2,1.68-.17.24-.94,1.25-.15.23s-.09.09-.21.23c-2.18,2.58-4.2,5.07-5.58,8.17-1.3,2.92-2.56,5.86-3.83,8.79-.84,1.92-1.34,3.67-.76,5.78.48,1.74,1.82,3.63,3.45,4.48,3.48,1.84,8.29,1.01,10.26-2.69,1.2-2.24,2.39-4.48,3.68-6.67.62-1.06,1.27-2.11,1.94-3.13.34-.51.68-1.02,1.03-1.52.31-.45,1.69-2.28.33-.52l-12.54-7.3c-2.92,10.81-8.9,20.69-8.57,32.22.11,3.92,3.37,7.68,7.5,7.5s7.62-3.3,7.5-7.5h0Z" class="cls-6"/>
      <path d="M282.75,184.81l-.93.47c-.87.47-1.58,1.12-2.1,1.93-.66.72-1.11,1.57-1.34,2.55-.31,1-.36,1.99-.13,2.99.05,1,.34,1.93.89,2.79l1.17,1.52c.94.93,2.04,1.57,3.31,1.93l1.99.27c1.35,0,2.62-.35,3.79-1.02l.93-.47c.87-.47,1.58-1.12,2.1-1.93.66-.72,1.11-1.57,1.34-2.55.31-1,.36-1.99.13-2.99-.05-1-.34-1.93-.89-2.79l-1.17-1.52c-.94-.93-2.04-1.57-3.31-1.93l-1.99-.27c-1.35,0-2.62.35-3.79,1.02h0Z" class="cls-6"/>
      <path d="M281.72,200.81c3.92,0,7.68-3.45,7.5-7.5s-3.3-7.5-7.5-7.5c-3.92,0-7.68,3.45-7.5,7.5s3.3,7.5,7.5,7.5h0Z" class="cls-6"/>
      <path d="M275.51,203.45c3.92,0,7.68-3.45,7.5-7.5-.18-4.06-3.3-7.5-7.5-7.5-3.92,0-7.68,3.45-7.5,7.5s3.3,7.5,7.5,7.5h0Z" class="cls-6"/>
      <path d="M273.8,206.87c3.92,0,7.68-3.45,7.5-7.5s-3.3-7.5-7.5-7.5c-3.92,0-7.68,3.45-7.5,7.5s3.3,7.5,7.5,7.5h0Z" class="cls-6"/>
      <path d="M277.99,211.53c3.92,0,7.68-3.45,7.5-7.5s-3.3-7.5-7.5-7.5c-3.92,0-7.68,3.45-7.5,7.5s3.3,7.5,7.5,7.5h0Z" class="cls-6"/>
      <path d="M274.73,221.31c3.92,0,7.68-3.45,7.5-7.5s-3.3-7.5-7.5-7.5c-3.92,0-7.68,3.45-7.5,7.5s3.3,7.5,7.5,7.5h0Z" class="cls-6"/>
      <path d="M273.8,226.13c3.92,0,7.68-3.45,7.5-7.5s-3.3-7.5-7.5-7.5c-3.92,0-7.68,3.45-7.5,7.5s3.3,7.5,7.5,7.5h0Z" class="cls-6"/>
      <path d="M272.72,223.88c3.92,0,7.68-3.45,7.5-7.5s-3.3-7.5-7.5-7.5c-3.92,0-7.68,3.45-7.5,7.5s3.3,7.5,7.5,7.5h0Z" class="cls-6"/>
      <path d="M279.86,214.01c3.92,0,7.68-3.45,7.5-7.5s-3.3-7.5-7.5-7.5c-3.92,0-7.68,3.45-7.5,7.5s3.3,7.5,7.5,7.5h0Z" class="cls-6"/>
      <path d="M281.26,210.28c3.92,0,7.68-3.45,7.5-7.5s-3.3-7.5-7.5-7.5c-3.92,0-7.68,3.45-7.5,7.5s3.3,7.5,7.5,7.5h0Z" class="cls-6"/>
      <path d="M286.38,197.55c3.92,0,7.68-3.45,7.5-7.5s-3.3-7.5-7.5-7.5c-3.92,0-7.68,3.45-7.5,7.5s3.3,7.5,7.5,7.5h0Z" class="cls-6"/>
      <path d="M284.83,203.92c3.92,0,7.68-3.45,7.5-7.5s-3.3-7.5-7.5-7.5c-3.92,0-7.68,3.45-7.5,7.5s3.3,7.5,7.5,7.5h0Z" class="cls-6"/>
      <path d="M286.38,194.71c10.3-3.35,20.71-6.53,31.46-8.02l-1.99.27c2.84-.38,5.68-.63,8.55-.75,3.75-.15,6.86-2.74,7.37-6.5.46-3.39-1.69-7.58-5.37-8.23-4.14-.73-8.28-1.41-12.44-2.02-4.85-.71-9.99-2.04-14.78-.43-3.87,1.3-7.78,2.82-11.05,5.3-3.54,2.68-6.33,5.71-9.03,9.22-1.12,1.47-2.18,2.98-3.21,4.52-.55.82-1.1,1.65-1.64,2.48-.25.38-.5.77-.76,1.15-.11.16-.22.33-.32.49-.81,1.23-.73.15,1.63-1.48l1.79-.76-.29.09h3.99l-.3-.06c-2-.39-3.97-.3-5.78.76-1.56.91-3.04,2.69-3.45,4.48-.85,3.71,1.12,8.42,5.24,9.23s7.19-.64,9.59-3.92c.73-.99,1.37-2.05,2.05-3.08s1.31-1.99,1.99-2.97c.34-.49.68-.98,1.02-1.46.3-.41.74-1.32,1.17-1.59-.13.08-1.1,1.38-.45.59.21-.25.41-.51.62-.76.37-.45.76-.9,1.15-1.33.78-.86,1.59-1.69,2.46-2.47.48-.43,2.28-1.68.26-.3.48-.33.93-.68,1.42-.99,1.11-.72,2.29-1.32,3.5-1.85l-1.79.76c1.96-.82,4.06-1.76,6.17-2.08l-1.99.27c1.4-.12,2.78.09,4.16.27l-1.99-.27c5.71.77,11.41,1.66,17.09,2.67l1.99-14.73c-14.45.58-28.35,4.58-42,9.03-3.72,1.21-6.53,5.25-5.24,9.23,1.2,3.72,5.23,6.54,9.23,5.24h0Z" class="cls-6"/>
      <path d="M277.53,198.48c3.92,0,7.68-3.45,7.5-7.5s-3.3-7.5-7.5-7.5c-3.92,0-7.68,3.45-7.5,7.5s3.3,7.5,7.5,7.5h0Z" class="cls-6"/>
      <path d="M294.3,195.22c3.92,0,7.68-3.45,7.5-7.5s-3.3-7.5-7.5-7.5c-3.92,0-7.68,3.45-7.5,7.5s3.3,7.5,7.5,7.5h0Z" class="cls-6"/>
      <path d="M307.66,191.65c3.92,0,7.68-3.45,7.5-7.5s-3.3-7.5-7.5-7.5c-3.92,0-7.68,3.45-7.5,7.5s3.3,7.5,7.5,7.5h0Z" class="cls-6"/>
      <path d="M316.36,191.65c3.92,0,7.68-3.45,7.5-7.5s-3.3-7.5-7.5-7.5c-3.92,0-7.68,3.45-7.5,7.5s3.3,7.5,7.5,7.5h0Z" class="cls-6"/>
      <path d="M322.41,189.32c3.92,0,7.68-3.45,7.5-7.5s-3.3-7.5-7.5-7.5c-3.92,0-7.68,3.45-7.5,7.5s3.3,7.5,7.5,7.5h0Z" class="cls-6"/>
      <path d="M329.87,187.92c3.92,0,7.68-3.45,7.5-7.5s-3.3-7.5-7.5-7.5c-3.92,0-7.68,3.45-7.5,7.5s3.3,7.5,7.5,7.5h0Z" class="cls-6"/>
      <path d="M313.72,177.02c2.66,1.69,5.92,2.57,9.06,2.45,3.92-.15,7.69-3.34,7.5-7.5s-3.3-7.27-7.5-7.5c-3.79-.21-7.6.19-11.32.93s-5.83,4.79-5.37,8.23c.52,3.87,3.6,6.19,7.37,6.5,6.24.52,12.51.42,18.73,1.22l-1.99-.27c3.51.48,6.94,1.27,10.22,2.63,1.67.69,4.3.11,5.78-.76,1.56-.91,3.04-2.69,3.45-4.48.44-1.92.34-4.07-.76-5.78s-2.57-2.65-4.48-3.45c-9.75-4.04-20.63-3.27-30.94-4.12l1.99,14.73c.77-.15,1.54-.29,2.31-.4l-1.99.27c2.33-.31,4.67-.4,7.01-.27v-15c-.58.02-1.13,0-1.71-.07l1.99.27c-.71-.12-1.38-.3-2.06-.56l1.79.76c-.53-.23-1.02-.49-1.51-.8-3.32-2.11-8.42-.8-10.26,2.69-1.96,3.71-.85,8.01,2.69,10.26h0Z" class="cls-6"/>
      <path d="M347.58,187.76c3.92,0,7.68-3.45,7.5-7.5s-3.3-7.5-7.5-7.5c-3.92,0-7.68,3.45-7.5,7.5s3.3,7.5,7.5,7.5h0Z" class="cls-6"/>
      <path d="M337.79,187.61c3.92,0,7.68-3.45,7.5-7.5s-3.3-7.5-7.5-7.5c-3.92,0-7.68,3.45-7.5,7.5s3.3,7.5,7.5,7.5h0Z" class="cls-6"/>
      <path d="M337.17,188.85c3.92,0,7.68-3.45,7.5-7.5s-3.3-7.5-7.5-7.5c-3.92,0-7.68,3.45-7.5,7.5s3.3,7.5,7.5,7.5h0Z" class="cls-6"/>
      <path d="M343.23,189.32c3.92,0,7.68-3.45,7.5-7.5s-3.3-7.5-7.5-7.5c-3.92,0-7.68,3.45-7.5,7.5s3.3,7.5,7.5,7.5h0Z" class="cls-6"/>
      <path d="M336.86,179.38c3.92,0,7.68-3.45,7.5-7.5s-3.3-7.5-7.5-7.5c-3.92,0-7.68,3.45-7.5,7.5s3.3,7.5,7.5,7.5h0Z" class="cls-6"/>
      <path d="M341.05,180.62c3.92,0,7.68-3.45,7.5-7.5s-3.3-7.5-7.5-7.5c-3.92,0-7.68,3.45-7.5,7.5s3.3,7.5,7.5,7.5h0Z" class="cls-6"/>
      <path d="M343.07,181.55c3.92,0,7.68-3.45,7.5-7.5s-3.3-7.5-7.5-7.5c-3.92,0-7.68,3.45-7.5,7.5s3.3,7.5,7.5,7.5h0Z" class="cls-6"/>
      <path d="M346.64,182.48c3.92,0,7.68-3.45,7.5-7.5s-3.3-7.5-7.5-7.5c-3.92,0-7.68,3.45-7.5,7.5s3.3,7.5,7.5,7.5h0Z" class="cls-6"/>
      <path d="M350.37,185.74c3.92,0,7.68-3.45,7.5-7.5s-3.3-7.5-7.5-7.5c-3.92,0-7.68,3.45-7.5,7.5s3.3,7.5,7.5,7.5h0Z" class="cls-6"/>
      <path d="M352.39,189.16c3.92,0,7.68-3.45,7.5-7.5s-3.3-7.5-7.5-7.5c-3.92,0-7.68,3.45-7.5,7.5s3.3,7.5,7.5,7.5h0Z" class="cls-6"/>
      <path d="M355.34,189.94c3.92,0,7.68-3.45,7.5-7.5s-3.3-7.5-7.5-7.5c-3.92,0-7.68,3.45-7.5,7.5s3.3,7.5,7.5,7.5h0Z" class="cls-6"/>
      <path d="M358.76,192.73c3.92,0,7.68-3.45,7.5-7.5s-3.3-7.5-7.5-7.5c-3.92,0-7.68,3.45-7.5,7.5s3.3,7.5,7.5,7.5h0Z" class="cls-6"/>
      <path d="M362.8,195.53c3.92,0,7.68-3.45,7.5-7.5s-3.3-7.5-7.5-7.5c-3.92,0-7.68,3.45-7.5,7.5s3.3,7.5,7.5,7.5h0Z" class="cls-6"/>
      <path d="M363.48,193.95c.84,3.36,2.13,6.6,3.8,9.63,1.48,2.68,5.51,1.37,5.59-1.51.1-3.67-.05-7.33-.47-10.98-.18-1.61-1.25-3-3-3-1.55,0-3.1,1.37-3,3,.26,4.19.74,8.36,1.41,12.51l3.69-3.69c-.53-.14-.76-.22-1.17-.54.07.06-.49-.47-.61-.6-.05-.06-.58-.7-.34-.38-.85-1.12-1.47-2.42-2.07-3.68l-5.18,3.03c3.32,5.32,5.69,11.07,7.08,17.18.36,1.58,2.18,2.51,3.69,2.1,1.62-.45,2.46-2.11,2.1-3.69-1.49-6.57-4.11-12.9-7.68-18.62-.86-1.37-2.68-1.91-4.1-1.08-1.5.88-1.77,2.64-1.08,4.1,1.64,3.45,3.86,6.92,7.78,7.95,2.39.63,4.04-1.49,3.69-3.69-.58-3.62-.96-7.26-1.19-10.92h-6c.41,3.65.57,7.31.47,10.98l5.59-1.51c-1.43-2.6-2.47-5.32-3.19-8.2-.93-3.74-6.72-2.16-5.79,1.6h0Z" class="cls-6"/>
      <path d="M369.27,216.76v18.48c0,1.57,1.38,3.07,3,3s3-1.32,3-3v-18.48c0-1.57-1.38-3.07-3-3s-3,1.32-3,3h0Z" class="cls-6"/>
      <path d="M369.25,237.11l.66,7.41c.14,1.61,1.28,3,3,3s2.79-1.39,3-3c1-7.68,3.23-15.19,3.41-22.97s-2.43-15.14-5.39-22.35l-5.48,2.31c1.02,1.51,2.04,3.02,3.06,4.53.91,1.34,2.64,1.93,4.1,1.08s1.74-2.62,1.08-4.1c-1-2.22-2-4.45-3-6.67-.67-1.48-2.81-1.83-4.1-1.08-1.52.89-1.74,2.62-1.08,4.1,1,2.22,2,4.45,3,6.67l5.18-3.03c-1.02-1.51-2.04-3.02-3.06-4.53-.83-1.23-2.33-1.85-3.75-1.23-1.23.54-2.31,2.14-1.74,3.54,2.82,6.87,5.42,13.69,5.16,21.23s-2.41,14.99-3.39,22.5h6l-.66-7.41c-.14-1.61-1.28-3-3-3-1.51,0-3.14,1.38-3,3h0Z" class="cls-6"/>
      <path d="M267.97,228.5c1.93,0,1.93-3,0-3s-1.93,3,0,3h0Z" class="cls-9"/>
      <path d="M265.71,225.03c-.01,2.3.71,4.52.76,6.81.03,1.15-.07,2.3-.05,3.46.02,1.24.16,2.47.37,3.68.14.8,1.12,1.25,1.85,1.05.84-.23,1.19-1.04,1.05-1.85-.39-2.21-.13-4.39-.22-6.61s-.76-4.33-.75-6.54c.01-1.93-2.99-1.93-3,0h0Z" class="cls-6"/>
      <path d="M266.71,239.87l.05,2.25c.03,1.21,1.68,2.09,2.56,1.06l1.67-1.95-2.56-1.06c0,.49,0,.98-.04,1.48-.03.29-.28.96-.19,1.21-.11.31.06.27.51-.11-.19-.15-.34-.34-.45-.55-.22-.32-.41-.68-.57-1.03-.09-.18-.17-.36-.23-.55-.1-.41-.21-.25-.31.49,0,.01,1.07-.59,1.23-.67.99-.52,2.01-.98,3.05-1.4l-1.85-1.85c-.3,1.65-1.54,2.76-2.4,4.12s-1.3,2.9-.97,4.54,3.11,1.29,2.95-.4c-.23-2.49-.72-4.91-1.53-7.28-.33-.98-1.29-1.32-2.2-.9-.37.17-.66.35-.99.59l1.82,2.36c3.23-4.05,6.11-8.34,8.59-12.9.56-1.03-.15-2.2-1.3-2.26-.95-.05-1.9-.08-2.84-.08-.81,0-1.78-.11-2.53.25-1.37.67-1.32,2.4-.28,3.32,1.11.99,2.72.71,3.86-.04.71-.47,1.35-1.03,2.09-1.48.56-.34,1.2-.28.1-.67-.58-.43-.79-.39-.62.1.01.24-.03.47-.12.69-.45,1.61,1.92,2.68,2.74,1.16,1.97-3.67,3.84-7.39,5.59-11.16.81-1.74-1.78-3.27-2.59-1.51-1.75,3.78-3.62,7.5-5.59,11.16l2.74,1.16c.42-1.51.3-4.16-1.81-4.27-.83-.04-1.68.57-2.33,1-.48.31-.92.66-1.38,1-.21.17-.44.33-.67.46-.52.06-.45.39.2.97l-.69.9c-.26.17.37-.02.58-.02.4,0,.79,0,1.19,0,.79.01,1.58.04,2.37.08l-1.3-2.26c-2.35,4.32-5.05,8.44-8.12,12.29-.96,1.2.33,3.47,1.82,2.36.32-.24.62-.42.99-.59l-2.2-.9c.72,2.11,1.21,4.26,1.42,6.48l2.95-.4c-.26-1.32.89-2.57,1.62-3.54.81-1.08,1.51-2.18,1.76-3.53.18-.99-.68-2.31-1.85-1.85-1.06.42-2.12.88-3.14,1.38-.84.41-1.93.82-2.57,1.53-1.21,1.34-.08,3.4.74,4.66.89,1.36,2.6,2.77,4.26,1.72,1.58-1,1.52-3.64,1.51-5.26-.01-1.22-1.68-2.09-2.56-1.06l-1.67,1.95,2.56,1.06-.05-2.25c-.04-1.93-3.04-1.93-3,0h0Z" class="cls-6"/>
      <path d="M280.54,213.6l-.51.43c-.15.14-.25.3-.31.48-.09.18-.14.37-.13.58,0,.21.04.4.13.58.06.19.16.35.31.48l.3.23c.23.14.49.2.76.2l.4-.05c.25-.07.47-.2.66-.39l.51-.43c.15-.14.25-.3.31-.48.09-.18.14-.37.13-.58,0-.21-.04-.4-.13-.58-.06-.19-.16-.35-.31-.48l-.3-.23c-.23-.14-.49-.2-.76-.2l-.4.05c-.25.07-.47.2-.66.39h0Z" class="cls-6"/>
      <path d="M255.16,245.21c.22-1.02.54-2.02,1.01-2.96.15-.31.34-.69.51-.85.37-.35.83-.66,1.22-.99.29-.24.62-.44.96-.62.18-.09.35-.17.54-.24.1-.04.21-.07.31-.1.25-.04.29-.07.12-.07l-.16-.03c.1.02.2.04.3.06.16.04.32.08.47.12.36.09.77.21,1.15.17-.58.07-1.13-.64-.66-.16.15.15.3.3.43.48.25.34.45.72.64,1.1.41.83.72,1.7,1.13,2.52.87,1.75,2.56,3.39,2.62,5.43.06,1.93,3.06,1.93,3,0-.09-2.8-1.97-4.73-3.12-7.13-.49-1.02-.85-2.1-1.44-3.07-.56-.91-1.37-2.07-2.52-2.17-.13-.01-.58-.11-.14,0-.2-.05-.39-.1-.59-.15-.53-.13-1.04-.22-1.58-.12-1.24.24-2.42.92-3.39,1.71-.91.74-1.76,1.38-2.32,2.47-.61,1.2-1.08,2.47-1.36,3.78-.17.79.24,1.62,1.05,1.85.75.21,1.67-.25,1.85-1.05h0Z" class="cls-7"/>
      <path d="M294.98,169.47" class="cls-5"/>
      <path d="M289.59,171.41" class="cls-5"/>
      <path d="M301.58,168.26" class="cls-2"/>
      <path d="M273.3,185.91" class="cls-4"/>
      <path d="M285.47,191.07c3.92,0,7.68-3.45,7.5-7.5s-3.3-7.5-7.5-7.5c-3.92,0-7.68,3.45-7.5,7.5s3.3,7.5,7.5,7.5h0Z" class="cls-6"/>
      <path d="M279.77,183.72s-1.35-2.39-7.01-2.22-5.17,1.1-5.17,1.1l5.17,1.77s1.29-1.34,3.4,1.46,3.61-2.11,3.61-2.11Z" class="cls-1"/>
      <path d="M332.24,166.13s-1.35-2.39-7.01-2.22-5.17,1.1-5.17,1.1l5.17,1.77s1.29-1.34,3.4,1.46,3.61-2.11,3.61-2.11Z" class="cls-1"/>
      <path d="M351.55,165.72s-1.35-2.39-7.01-2.22-5.17,1.1-5.17,1.1l5.17,1.77s1.29-1.34,3.4,1.46,3.61-2.11,3.61-2.11Z" class="cls-1"/>
      <path d="M295.14,175.34s-1.35-2.39-7.01-2.22-5.17,1.1-5.17,1.1l5.17,1.77s1.29-1.34,3.4,1.46,3.61-2.11,3.61-2.11Z" class="cls-1"/>
      <path d="M323.62,167.4s2.59.89,6.72-2.99c4.12-3.88,3.13-4.25,3.13-4.25l-5.04,2.1s-.08,1.86-3.51,1.16-1.3,3.98-1.3,3.98Z" class="cls-1"/>
      <path d="M302.73,238.58" class="cls-3"/>
      <path d="M271.89,186.25c.15-.02.31-.02.46,0,.01,0,.12.01.05,0,.03,0,.06.01.09.02.08.01.15.03.22.05.07.02.13.04.2.07-.06-.02.05.02.05.02.03.02.07.03.1.05.07.04.13.08.2.12.03.02.05.04.08.06.02.02.02.02,0,0,.02.02.04.03.06.05.14.12.34.15.49.03s.19-.32.1-.48c-.18-.33-.42-.64-.7-.9-.3-.27-.66-.55-1.06-.65-.43-.11-.93.03-1.15.45-.19.38-.21.86-.17,1.27.02.19.16.38.38.38.19,0,.39-.17.38-.38-.03-.31-.04-.62.07-.9-.02.06.02-.03.02-.04.02-.03.03-.04.01-.02-.01.02,0,.01.02-.01-.06.04.04-.02.04-.02-.06.03.04,0,.05,0,.07-.02-.03,0,.04,0,0,0,.1,0,.06,0-.02,0-.02,0,.03,0,.02,0,.04,0,.06.02.02,0,.09.03.09.03.11.05.26.14.37.23,0,0,.09.07.05.04.03.02.06.05.09.07.05.05.11.09.16.14s.1.1.15.15c.03.03.05.06.08.09,0,0,.07.09.04.05.09.12.18.26.25.39l.59-.45c-.57-.48-1.31-.74-2.05-.65-.19.02-.38.16-.38.38,0,.18.17.4.38.38h0Z" class="cls-8"/>
      <path d="M271.3,185.84c.24.14.49.26.75.35l.1-.74c-.78-.1-1.61-.13-2.24.43l.53.53c.25-.26.5-.53.76-.78.11-.1.27-.24.35-.31.07-.05.14-.1.21-.14-.04.02.03-.01.05-.02.02,0,.04-.01.06-.01-.03,0-.02,0,.02,0l-.38-.38c0-.22.14-.23.05-.17-.02.01-.03.03-.05.04-.06.06-.11.14-.13.22-.05.21.05.37.19.52.11.11.21.22.32.32l.17.17.07.07.05.05s.02.02-.03-.05v-.2.03c.02-.06.05-.11.08-.17,0,0-.04.03-.01.02-.03.02-.06.05-.1.07-.05.04-.1.07-.16.11-.12.08-.24.16-.36.24-.23.15-.47.3-.71.44-.17.1-.24.34-.13.51s.34.24.51.13c.39-.22.66-1.04.13-1.27-.28-.12-.55.04-.69.29-.1.19-.2.34-.33.49-.11.12-.14.31-.06.45.08.13.27.23.42.17.58-.23,1.14-.51,1.67-.85.28-.18.21-.57-.09-.69s-.64-.12-.97-.11c-.14,0-.29,0-.43,0-.03,0-.06,0-.09,0,.05,0,0,0-.03,0-.07-.01-.13-.03-.19-.05,0,0-.1-.03-.06-.02s-.04-.02-.05-.03c-.03-.01-.05-.03-.08-.04-.03-.02.03.03-.02-.01-.02-.02-.05-.06-.07-.07.08.06.06.27-.03.29-.03,0,.04-.03.06-.04.03-.02.06-.03.09-.05.01,0,.08-.03.04-.02.04-.01.08-.03.11-.04.03,0,.06-.02.1-.02.03,0,.03,0,0,0h.04c.07,0,.13,0,.2,0-.06,0,.05.01.06.01.04,0,.08.02.11.03v-.72c-.15.03-.34.02-.49-.02l.17.63s.08-.06.05-.05c-.02.02.03-.02.04-.02.03-.02.06-.03.08-.04-.04.02,0,0,.02,0,.11-.04.22-.07.34-.09.06-.01.11-.02.17-.03.04,0-.03,0,.04,0,.03,0,.05,0,.08,0,.03,0,.06,0,.1,0,.01,0,.1,0,.03,0,.02,0,.05,0,.07.02,0,0,.09.03.06.02-.04-.02.04.03.01,0-.02-.02.05.04.05.04-.04-.04.05.09.04.07.02.05.06.22.07.29,0,.03,0,.12,0,.17,0-.03,0,.03,0,.03-.02.11.01,0,0,.04,0,0-.04.07-.02.04.02-.03-.03.04-.04.04.03-.03,0,0-.01,0,.09,0-.08,0,.02,0-.2.01-.38.16-.38.38,0,.19.17.39.38.38.49-.04.79-.43.81-.9.02-.37-.09-.84-.37-1.1-.32-.29-.74-.29-1.14-.23-.37.06-.73.16-1.01.43-.2.19-.11.56.17.63.3.08.59.08.89.02.15-.03.28-.21.28-.36,0-.17-.11-.31-.28-.36-.4-.13-.84-.09-1.21.1-.2.1-.42.25-.46.49-.03.25.12.45.3.6.31.25.7.33,1.08.34s.76-.05,1.11.08l-.09-.69c-.47.31-.99.58-1.49.78l.36.63c.12-.12.22-.26.31-.4.04-.06.08-.12.11-.19.01-.02.05-.06.05-.09h-.01c-.11.1-.22.09-.33,0l-.1-.17s0-.03,0,.01c0,.02,0,.05,0,.07,0-.07,0,.01-.01.03.02-.06,0,.01-.02.03.03-.03.03-.03,0,0,.03-.02.03-.02,0,0l.38.65c.27-.16.54-.33.81-.51.13-.08.25-.17.37-.26.16-.11.35-.22.4-.41.06-.23-.06-.39-.21-.55-.11-.11-.22-.23-.33-.34l-.17-.17s-.04-.05-.07-.07c-.07-.08-.08-.03-.04.15-.05.18-.05.23.01.17.13-.06.2-.26.2-.39,0-.2-.17-.38-.38-.38-.46,0-.8.31-1.12.6-.3.28-.58.57-.86.87-.14.15-.15.38,0,.53s.38.14.53,0c0,0,.09-.07.05-.04.03-.02.05-.04.08-.05s.06-.03.09-.05c0,0,.1-.04.06-.03.07-.03.14-.05.21-.06.03,0,.07-.01.1-.02,0,0,.12-.02.06-.01.36-.04.72,0,1.07.05.18.02.35-.16.37-.33.03-.19-.09-.35-.27-.41-.19-.07-.38-.17-.57-.28-.17-.1-.41-.04-.51.13s-.04.41.13.51h0Z" class="cls-9"/>
      <path d="M283.13,176.54c.52-.7,1.48-1.02,2.32-.81l.2-.72c-.88-.14-1.76-.13-2.63.09-.32.08-.87.16-.95.55-.02.12,0,.38.14.45.15-.3.15-.4.02-.32-.04.02-.09.05-.13.07-.11.06-.23.12-.34.19-.21.11-.25.42-.08.59.16.15.33.28.53.37l.09-.69c-.07.03-.15.06-.23.06-.17.02-.31.1-.36.28-.04.15.02.36.17.42l.22.09.19-.7c-.44-.06-.87-.15-1.3-.26l-.1.74c.76-.09,1.49-.04,2.25.06.37.05.6-.11.88-.35.3-.26.61-.51.91-.77s-.03-.69-.36-.63c-.75.14-1.39.57-2.11.82s-1.49.34-2.25.27c-.48-.04-.48.71,0,.75.79.07,1.6-.02,2.36-.26s1.42-.7,2.2-.85l-.36-.63c-.26.22-.53.45-.79.67-.09.07-.21.22-.32.24-.12.02-.31-.05-.43-.06-.65-.09-1.31-.09-1.97-.02-.39.04-.54.62-.1.74.49.13.99.22,1.5.29.36.05.52-.56.19-.7l-.22-.09-.19.7c.15-.02.29-.04.43-.09.27-.1.41-.54.09-.69-.14-.07-.26-.14-.38-.25l-.08.59c.29-.16.76-.3.79-.69,0-.12-.05-.32-.16-.39-.16.3-.16.42,0,.35.05-.02.09-.03.14-.04.09-.03.18-.05.28-.08.74-.19,1.52-.22,2.27-.1.47.08.68-.6.2-.72-1.2-.3-2.44.17-3.17,1.16-.12.16-.03.42.13.51.19.11.39.03.51-.13h0Z" class="cls-9"/>
      <path d="M267.95,184.98c1.07-.06,2.13-.06,3.2,0,.42.02.52-.67.1-.74-.97-.16-1.94-.32-2.92-.42-.88-.08-1.79-.16-2.62.21l.38.65c1.27-.81,2.72-1.3,4.23-1.41l-.1-.74c-.64.21-1.22.55-1.72,1-.17.15-.14.49.08.59.74.34,1.58.32,2.27-.11.37-.23.12-.76-.29-.69-.77.15-1.56.15-2.35.15l.1.74c.58-.24,1.19-.42,1.81-.52.08-.01.23-.05.31-.02.11.03.1.1.12.2.06.34.09.69.12,1.04l.74-.1c-.07-.3-.14-.59-.21-.89-.08-.35-.66-.37-.72,0-.07.41-.2.79-.4,1.16-.18.33.18.69.51.51.46-.25.92-.65,1.16-1.13.11-.23.13-.47.05-.71s-.28-.43-.38-.67l-.69.29c.3.39.5.81.62,1.29s.83.27.72-.2c-.13-.54-.36-1.04-.69-1.47-.12-.15-.28-.23-.47-.15-.16.07-.28.27-.22.44s.15.33.26.48c.09.14.18.24.11.4-.16.34-.53.61-.85.79l.51.51c.23-.42.39-.87.48-1.34h-.72c.07.3.14.59.21.89.09.4.77.33.74-.1s-.06-.89-.16-1.32c-.08-.36-.34-.61-.71-.66s-.78.05-1.14.14c-.44.1-.88.24-1.3.42-.37.15-.36.74.1.74.86,0,1.71-.02,2.55-.17l-.29-.69c-.46.28-1.02.34-1.52.11l.08.59c.4-.36.87-.64,1.39-.81.38-.13.34-.77-.1-.74-1.64.11-3.22.62-4.61,1.51-.41.27-.06.84.38.65.71-.32,1.61-.17,2.35-.1.87.09,1.74.23,2.61.38l.1-.74c-1.07-.06-2.13-.06-3.2,0-.48.03-.48.78,0,.75h0Z" class="cls-9"/>
      <path d="M285.42,173.32c.73.08,1.51.12,2.21-.15.63-.25,1.14-.68,1.4-1.32.08-.21-.13-.5-.36-.47-.76.09-1.49.34-2.14.76-.37.24-.13.76.29.69.5-.09.98-.29,1.39-.59.16-.12.24-.33.13-.51-.09-.16-.35-.25-.51-.13-.37.27-.77.44-1.21.52l.29.69c.53-.34,1.13-.58,1.76-.66l-.36-.47c-.17.41-.59.71-1.01.85-.6.2-1.25.15-1.87.07-.2-.02-.38.19-.38.38,0,.22.17.35.38.38h0Z" class="cls-9"/>
      <path d="M351.24,166.56c-.37-.1-.79-.14-1.09.15s-.23.69-.01.99c.48.65,1.14,1.22,1.76,1.74.37.3.87-.17.53-.53-.51-.54-1.01-1.08-1.52-1.62l-.08.59c.11-.05.22-.11.34-.16l-.45-.06c.79.65,1.52,1.35,2.2,2.1l.45-.59c-.44-.2-.88-.35-1.35-.46-.4-.09-.68.48-.29.69.74.39,1.55.59,2.39.59.41,0,.53-.66.1-.74-1.14-.22-2.29-.52-3.3-1.1-.36-.2-.82-.5-.82-.97,0-.59.62-.45,1.01-.34.29.08.63-.28.42-.55-.1-.13-.19-.25-.29-.38l-.22.55c.14-.04.06,0,0-.09l.32-.56c-.89-.09-1.79.04-2.62.37-.23.09-.41.43-.17.63.39.31.8.56,1.26.76l.29-.69-.59-.2c-.37-.13-.61.37-.36.63.29.31.59.59.91.87.36.31.9-.22.53-.53-.32-.27-.62-.56-.91-.87l-.36.63.59.2c.4.14.68-.52.29-.69s-.77-.38-1.11-.64l-.17.63c.78-.32,1.59-.43,2.42-.35.3.03.44-.34.32-.56-.16-.32-.54-.35-.85-.25-.21.06-.38.35-.22.55.1.13.19.25.29.38l.42-.55c-.64-.18-1.44-.25-1.81.44-.32.59-.1,1.3.36,1.75.51.5,1.22.79,1.87,1.04.74.28,1.51.47,2.29.62l.1-.74c-.7,0-1.38-.17-2.01-.49l-.29.69c.4.09.79.22,1.17.38s.75-.26.45-.59c-.68-.76-1.42-1.46-2.2-2.1-.14-.11-.29-.14-.45-.06-.11.05-.22.11-.34.16-.23.11-.23.42-.08.59.51.54,1.01,1.08,1.52,1.62l.53-.53c-.4-.33-.77-.67-1.13-1.04-.18-.18-.36-.36-.52-.56-.03-.04-.06-.07-.08-.12-.03.05-.03.07,0,.05.12-.02.23.02.35.05.47.13.66-.59.2-.72h0Z" class="cls-9"/>
      <path d="M348.98,166.99c.38.43.81.79,1.3,1.08.37.22.74-.28.45-.59-.37-.4-.75-.8-1.12-1.2-.28-.3-.69.02-.63.36.33,1.82,1.94,3.25,3.77,3.43.56.05,1.1-.07,1.65-.12.58-.05,1.08.07,1.59.36.85.49,1.54,1.19,2.48,1.52.46.16.65-.56.2-.72-.87-.31-1.52-.99-2.3-1.45-.9-.52-1.73-.49-2.73-.37-1.85.21-3.6-.99-3.93-2.85l-.63.36c.37.4.75.8,1.12,1.2l.45-.59c-.44-.26-.81-.58-1.15-.96s-.85.17-.53.53h0Z" class="cls-9"/>
      <path d="M327.67,162.07s.08-.02.12-.02c.02,0,.04,0,.06,0-.05,0-.05,0,0,0,.08,0,.16,0,.24,0,.04,0,.04,0-.01,0,.02,0,.04,0,.06.01.02,0,.04.01.05.02-.05-.02-.05-.02-.01,0,.02,0,.03.02.05.03-.04-.03-.04-.03-.01,0,.03.03.03.03,0-.01.01.02.02.04.03.06-.04-.09.02.11,0,0,0,.05,0,.09,0,.14s0,.1-.01.14c0-.08,0,.06-.01.07,0,.05-.02.09-.03.14.02-.04.02-.04,0,0,.03-.03.03-.03,0,0,.02-.02.05-.04.08-.05-.04,0-.03,0,.02,0,.06.01.07.01.03,0,.08.03.14.08.16.17l-.36.47c.22-.01.46-.03.67-.11.26-.1.46-.26.61-.5.12-.2.21-.43.31-.65.11-.24.22-.48.34-.72h-.65s0,.03.01.04c.01.03.02.06.03.09s.02.06.02.09c0,.01.02.09,0,.03,0,.06.01.12.01.17,0,.03,0,.06,0,.1,0,.01-.01.12,0,.05-.03.19.05.41.26.46.18.04.43-.05.46-.26.06-.41.01-.78-.15-1.16-.11-.25-.54-.24-.65,0-.19.41-.38.83-.58,1.24-.02.05-.04.09-.07.13-.01.02-.03.04-.04.06.02-.03.02-.02-.01.01,0,0-.09.07-.03.03-.04.02-.08.05-.12.07.07-.03-.06.01-.07.02-.05.01-.09.02-.14.03.08-.01-.06,0-.08,0-.05,0-.09,0-.14,0-.21.01-.46.23-.36.47.09.22.26.37.51.38.18,0,.36-.06.48-.2s.19-.32.22-.5c.03-.17.06-.34.04-.51-.04-.38-.26-.69-.63-.81-.29-.09-.6-.04-.89.01-.19.04-.32.28-.26.46.07.2.25.3.46.26h0Z" class="cls-9"/>
      <path d="M332.38,162.77c-.37,0-.62.27-.8.57s-.35.59-.52.89l.69.29c.04-.18.1-.36.17-.54,0-.02.02-.04.02-.06.01-.03.01-.04,0,0,.02-.05.04-.09.06-.14.04-.08.08-.17.13-.25.09-.16.19-.31.29-.46.02-.02.03-.04.05-.07-.02.03-.02.02,0,0,.03-.03.06-.07.08-.1.06-.08.13-.15.2-.22.14-.14.15-.39,0-.53s-.38-.15-.53,0c-.58.6-1.01,1.36-1.2,2.17-.04.18.04.37.22.44s.37,0,.47-.15c.15-.25.3-.5.45-.76.03-.06.07-.11.1-.17.02-.03.03-.05.05-.07.04-.06-.02.02,0,0,.02-.02.03-.04.05-.05.01-.01.02-.02.03-.03.02-.02.01-.01-.02.02.01,0,.1-.05,0,0,.07-.03-.07,0,0,0,.2,0,.38-.17.38-.38s-.16-.38-.38-.38h0Z" class="cls-9"/>
      <path d="M329.54,161.54l-.31.58c-.05.09-.06.19-.04.29.02.09.09.18.17.22.09.05.19.07.29.04.09-.03.18-.09.22-.17l.31-.58c.05-.09.06-.19.04-.29-.02-.09-.09-.18-.17-.22-.09-.05-.19-.07-.29-.04-.09.03-.18.09-.22.17h0Z" class="cls-9"/>
      <path d="M329.82,162.23c.04-.05.08-.1.12-.16.02-.02.01-.02,0,0l.02-.03s.04-.06.07-.08c.08-.1.16-.2.24-.29.17-.2.34-.39.51-.58l-.59-.08c-.04-.09,0,.05-.02-.06,0,.07.03-.06,0,0,0,.01-.04.08,0,.03.03-.05-.02.03-.02.03.03-.03.03-.04.02-.02,0,.01-.02.02-.03.03-.02.02-.08.06-.02.02-.04.03-.09.05-.13.08-.2.11-.41.19-.59.32-.41.3-.71.7-.9,1.17-.07.18.08.42.26.46.22.05.38-.07.46-.26.03-.08-.03.05,0-.02.01-.03.02-.05.04-.08.03-.05.05-.1.08-.15s.06-.1.1-.15c.06-.08-.05.06.01-.02.02-.02.04-.04.06-.07.07-.08.15-.16.24-.23.01,0,.02-.02.03-.03-.03.03-.04.03-.02.01.02-.02.05-.03.07-.05.05-.03.1-.06.15-.09.23-.13.48-.21.67-.4.25-.25.33-.61.18-.93-.1-.22-.44-.24-.59-.08-.38.41-.74.84-1.07,1.29-.12.16-.03.43.13.51.2.1.39.03.51-.13h0Z" class="cls-9"/>
      <path d="M332.18,163.09c.77.6,1.74.83,2.7.62.41-.09.32-.76-.1-.74-.86.05-1.72.21-2.54.47-.18.06-.3.22-.27.41.02.17.18.35.37.33,1.27-.16,2.55-.31,3.8-.62l-.29-.69c-.76.35-1.55.65-2.36.9-.46.14-.26.86.2.72.87-.26,1.72-.59,2.54-.97.4-.18.11-.78-.29-.69-1.18.29-2.39.45-3.6.59l.1.74c.76-.24,1.55-.39,2.35-.44l-.1-.74c-.67.15-1.43,0-1.97-.43-.16-.12-.37-.16-.53,0-.13.13-.16.41,0,.53h0Z" class="cls-9"/>
      <path d="M332.38,162.53c.48,0,.48-.75,0-.75s-.48.75,0,.75h0Z" class="cls-9"/>
      <path d="M332.75,162.16c.48,0,.48-.75,0-.75s-.48.75,0,.75h0Z" class="cls-9"/>
      <path d="M333.07,161.69c.48,0,.48-.75,0-.75s-.48.75,0,.75h0Z" class="cls-9"/>
      <path d="M333.07,161.69c.48,0,.48-.75,0-.75s-.48.75,0,.75h0Z" class="cls-9"/>
      <path d="M333.44,161.21v-.1c0-.05,0-.1-.03-.14-.02-.05-.04-.09-.08-.12-.03-.04-.07-.06-.12-.08-.04-.02-.09-.03-.14-.03h-.1c-.06.03-.12.06-.17.11l-.06.08c-.03.06-.05.12-.05.19v.1c0,.05,0,.1.03.14.02.05.04.09.08.12.03.04.07.06.12.08.04.02.09.03.14.03h.1c.06-.03.12-.06.17-.11l.06-.08c.03-.06.05-.12.05-.19h0Z" class="cls-9"/>
      <path d="M333.07,161.27c.48,0,.48-.75,0-.75s-.48.75,0,.75h0Z" class="cls-9"/>
      <path d="M333.06,160.37c0,.36.09.71.26,1.03.04.08.14.15.22.17s.21.01.29-.04c.18-.11.23-.33.13-.51-.02-.04-.04-.09-.06-.14l.04.09c-.06-.15-.1-.31-.13-.47v.1c0-.08,0-.16,0-.24,0-.1-.04-.2-.11-.27s-.17-.11-.27-.11c-.2,0-.38.16-.38.38h0Z" class="cls-9"/>
      <path d="M266.18,181.21v1.66c-.01.63.46,1.3,1.09,1.45.68.16,1.31-.12,1.69-.69.29-.43.43-.94.47-1.46.02-.25-.02-.5-.06-.75-.01-.08-.03-.15-.05-.23-.11-.35.06.05-.05.38l-.39.66c-.51.22-.63.3-.38.22-.24.03-.28.04-.12.02.24,0,.48-.05.72-.1.4-.1.78-.28,1.15-.45.05-.02.42-.15.12-.06.17-.05.33-.11.5-.15.13-.03.25-.06.38-.07-.37.05.18,0,.25,0,.15,0,.31,0,.46.01.07,0,.54.06.19,0,.3.04.61.11.9.19.8.21,1.66.41,2.46.1.6-.23,1.13-.75,1.1-1.45s-.45-1.23-1.1-1.45c-2.18-.71-4.51-1-6.79-.85-.78.05-1.54.65-1.5,1.5.03.77.66,1.56,1.5,1.5,1.06-.07,2.11-.04,3.17.08.33.04-.21-.04.15.02.11.02.23.04.34.06.25.04.5.09.74.15.54.12,1.07.27,1.6.44v-2.89s-.36.08-.17.07c.21-.01-.14-.02-.19-.02.22.02.08,0-.06-.03-.11-.03-.22-.05-.32-.08-.52-.14-1.03-.23-1.56-.29-.92-.11-1.91-.06-2.79.26-.27.1-.52.21-.78.33,0,0-.36.16-.18.08s-.15.05-.18.07c0,0-.38.11-.18.06.19-.04-.07,0-.11,0-.37.04-.69.09-1.02.28-.72.41-1.04,1.29-.81,2.07.02.07.05.14.07.2.11.34-.01-.19,0,0,0,.15.1-.24-.01,0,.1-.23.03-.07-.06.06l2.8.76v-1.66c.01-.78-.68-1.54-1.49-1.5s-1.5.66-1.5,1.5h0Z" class="cls-9"/>
      <path d="M271.44,186.69c.53.03,1.06.02,1.59-.04s1.01-.25,1.3-.74.23-1.01,0-1.51c-.32-.69-.83-1.48-1.59-1.71-.47-.14-.98-.08-1.4.17-.16.1-.31.23-.45.36-.03.03-.06.06-.1.1.13-.12.27-.21.44-.26l1.46.39c.24.24.17.26.09.09-.03-.06-.05-.12-.08-.17-.19-.34-.49-.57-.83-.71-.94-.39-1.77.16-2.26.95-.21.34-.37.71-.58,1.05-.03.05-.06.09-.09.14-.06.09-.04.06.08-.09-.03.08-.14.17-.2.23-.13.14-.26.26-.4.39-.72.69-1.18,1.46-1.55,2.38-.14.35-.26.72-.4,1.07-.02.05-.04.1-.06.14-.04.1-.03.06.05-.12-.04.06-.08.16-.12.23-.13.24.23-.21.02-.03.18-.16.38-.23.62-.25l1.06,2.56c1.46-1.37,2.82-2.85,4.06-4.42.26-.33.44-.63.44-1.06,0-.37-.16-.81-.44-1.06-.54-.5-1.6-.66-2.12,0-1.24,1.57-2.59,3.05-4.06,4.42-.44.41-.54,1.1-.31,1.64s.78.96,1.37.92,1.14-.25,1.56-.69c.36-.39.54-.82.74-1.3.13-.3.23-.62.35-.93.03-.08.06-.16.09-.24.02-.05.13-.33.04-.11s.04-.08.05-.1c.04-.08.08-.15.12-.23.07-.12.2-.26.25-.39-.12.15-.15.19-.07.1.02-.03.04-.05.07-.08.06-.06.12-.12.18-.18.24-.24.5-.46.72-.72.3-.34.54-.71.76-1.11.08-.14.15-.29.23-.43.04-.08.1-.15.14-.24.13-.26-.19.16.01-.01l-.66.39-.26.03-.76-.2-.42-.44.03.05s.04.08.05.12c.08.17.2.33.33.47.52.55,1.37.61,2,.22.16-.1.32-.23.45-.37.05-.05.17-.15-.03,0-.22.2-.49.2-.82,0-.37.14-.62.09-.78-.15-.15-.14,0,.01.04.06.04.06.08.12.12.19.09.14.16.29.23.44l1.3-2.26c-.53.05-1.06.07-1.59.04-.78-.04-1.53.72-1.5,1.5.04.85.66,1.46,1.5,1.5h0Z" class="cls-9"/>
      <path d="M268.83,181.04l-.38.07,1.85,1.85c.07-.25.13-.5.2-.74.03-.12.07-.25.1-.37.01-.05.03-.1.04-.15-.04.13-.11.24-.21.34-.11.12-.25.21-.41.25l.07-.02c.1-.01.21-.04.31-.06.28-.05.55-.15.79-.3.67-.41.98-1.36.54-2.05-.48-.74-1.28-.88-2.05-.54-.59.27-.98.84-1.18,1.44s.08,1.23.54,1.58,1.17.46,1.67.12c.04-.03.6-.4.61-.37-.2.08-.25.1-.14.06.04-.02.09-.03.13-.04.09-.03.18-.04.27-.06.16-.03.12-.02-.13.02.06,0,.12-.01.18-.01.09,0,.19,0,.28,0,.21,0,.41.01.62.03.92.06,1.89.14,2.76-.23.38-.16.68-.32.9-.69.19-.32.27-.8.15-1.16s-.34-.71-.69-.9-.79-.3-1.16-.15c-.2.09-.41.11-.62.18.25-.03.29-.04.12-.02-.05,0-.09,0-.14,0-.11,0-.22,0-.33,0-.43,0-.86-.05-1.29-.07-1.11-.05-2.12.18-3.05.82l2.2,1.69c-.1.21-.13.27-.07.16.06-.1.02-.05-.11.14l-.17.13s.1-.06.15-.08l-1.51-2.59c-.18.11.12-.06.15-.05-.03,0-.12.03-.15.04-.12.02-.23.04-.35.06-.4.09-.8.3-1.08.6-.54.57-.66,1.46-.86,2.19-.14.52,0,1.08.39,1.46.4.4.92.49,1.46.39l.38-.07c.77-.15,1.28-1.11,1.05-1.85-.27-.82-1.02-1.21-1.85-1.05h0Z" class="cls-9"/>
      <path d="M277.93,179.96c-.06,0-.11,0-.02,0,.05,0,.1,0,.15,0,.04,0,.08,0,.12,0,.02,0,.15.02.05,0-.11-.02.08.01.08.02.04,0,.08.02.12.03.08.02.16.04.24.06.43.13.9.45,1.36.26.1-.04.12-.05.2-.11-.02.01.11-.08.12-.1.04-.04.01-.02-.09.05-.04.04-.1.07-.15.06-.04,0-.23-.02-.12,0,.38.06.75-.03.95-.39.05-.09.08-.2.11-.3,0-.02.02-.11.04-.12l-.03.09.02-.04.03-.04-.05.07c.06-.07,0,0-.04.03-.1.04-.13.05-.07.03.04-.01.03,0-.03,0-.04,0-.23-.03-.12,0,.37.13.84-.15.92-.52.1-.42-.13-.78-.52-.92s-.86,0-1.16.28c-.12.11-.22.25-.29.39-.04.09-.08.18-.11.27-.01.03-.02.07-.03.1-.04.14,0,.07.13-.19l.33-.19c.3.01.38,0,.24-.01-.08-.02-.16-.03-.25-.03-.1,0-.2.02-.3.04s-.19.07-.27.12c-.06.05-.13.1-.19.15-.06.05-.03.04.07-.05l.38-.1c.07,0,.11.03.03-.02-.04-.02-.1-.04-.14-.06-.08-.03-.15-.06-.23-.09-.17-.06-.35-.12-.53-.17-.45-.11-.87-.12-1.33-.06-.17.03-.36.2-.45.34-.09.16-.13.4-.08.58.14.43.51.59.92.52h0Z" class="cls-9"/>
      <path d="M299.82,166.84c-.8.19-1.44.67-1.9,1.33l1.18-.15c-.4-.39-.95-.63-1.5-.4s-.77.76-.66,1.32c.13.66,1.06.7,1.37.18.23-.38.42-.79.57-1.21.19-.52-.4-1.11-.92-.92-2.14.77-4.35,1.33-6.6,1.67-.4.06-.62.57-.52.92.12.43.52.58.92.52,2.25-.34,4.46-.9,6.6-1.67l-.92-.92c-.11.3-.25.58-.41.85l1.37.18-.02-.1v.4c-.37.04-.48.12-.32.25.37.36.9.25,1.18-.15.24-.35.59-.55,1-.64.94-.22.54-1.67-.4-1.45h0Z" class="cls-9"/>
      <path d="M291.52,170.17c.81.08,1.57-.17,2.32-.45s1.42-.47,2.18-.55,1.56-.13,2.34-.24c.36-.05.73-.11,1.08-.21.2-.05.4-.12.6-.19.08-.03.38-.2.45-.19l-.18-1.37c-1.22.75-2.82.93-4.19,1.22-1.52.33-3.05.63-4.58.94-.95.19-.55,1.63.4,1.45,1.59-.32,3.17-.63,4.75-.97,1.46-.32,3.08-.54,4.38-1.34.5-.31.49-1.27-.18-1.37-.8-.12-1.52.34-2.3.49s-1.6.19-2.4.27-1.6.21-2.36.49-1.48.62-2.3.54c-.4-.04-.75.37-.75.75,0,.44.35.71.75.75h0Z" class="cls-9"/>
      <path d="M278.98,178.71c1.36-.33,2.67-.89,3.85-1.65.33-.21.49-.68.27-1.03s-.66-.48-1.03-.27c-.54.31-1.08.62-1.63.9-.13.07-.27.13-.4.19-.06.03-.13.06-.19.08-.03.01-.06.03-.09.04.1-.04,0,0-.04.02-.29.12-.58.22-.87.31-.45.13-.89.4-.88.94.02.49.46.88.92.98.78.17,1.4-.26,2.04-.65s1.32-.81,1.99-1.21l-.91-1.18c-.56.49-1.12.98-1.68,1.46-.3.26-.28.8,0,1.06.32.29.74.28,1.06,0,.56-.49,1.12-.98,1.68-1.46.28-.25.27-.71.06-.98s-.65-.39-.97-.19c-.62.38-1.24.75-1.86,1.13-.29.18-.59.34-.87.52-.05.02-.04.02.03,0-.04.02-.08.03-.13.04-.17.07.14-.03-.06,0-.06,0-.04,0,.06.01-.04,0-.07-.02-.11-.03.09.04.1.04.03,0,.07.06.09.06.03,0l.19.33v.11c-.02.13-.06.25-.09.38-.06.1-.15.17-.26.21.04-.01.09-.02.13-.04.09-.03.18-.05.26-.08.15-.05.3-.1.45-.16.36-.14.71-.29,1.06-.46.62-.3,1.22-.64,1.82-.99l-.76-1.3c-.55.36-1.13.66-1.74.93-.08.03-.08.04,0,0-.03.01-.06.03-.09.04-.07.03-.15.06-.22.09-.15.06-.3.11-.45.16-.32.11-.65.2-.98.28-.38.09-.65.54-.52.92s.51.62.92.52h0Z" class="cls-9"/>
      <path d="M358.06,171.96l-1.06-.13c-.51-.06-.82.53-.72.95.11.5.56.82,1.06.82.36,0,.8-.11,1.14-.22.16-.05.36-.15.47-.19.04-.02.08-.03.13-.04h-.14c-.06-.02-.06-.01.02.03l.06.04c.32.23.64.47.96.7l.38-1.4c-.13-.01-.32-.06-.5-.11-.22-.06-.43-.13-.65-.2-.45-.14-.91-.24-1.38-.24-.85,0-1.01,1.22-.2,1.47,1.47.46,2.88,1.04,4.24,1.76.36.19.82.09,1.03-.27.2-.34.09-.84-.27-1.03-1.47-.78-3.01-1.42-4.6-1.91l-.2,1.47c.22,0,.29,0,.5.05s.43.12.65.19c.45.15.9.26,1.38.31.32.03.64-.25.72-.55.09-.34-.07-.65-.34-.85s-.53-.39-.8-.58c-.3-.22-.59-.39-.97-.38-.34,0-.64.19-.92.28-.15.05-.3.08-.46.11-.08.01-.16.03-.23.04l-.09.02c.18-.06.34.03.47.27l-.72.95,1.06.13c.4.05.75-.38.75-.75,0-.45-.35-.7-.75-.75h0Z" class="cls-9"/>
      <path d="M331.9,160.8c.14-.04-.07-.02.01-.01.02,0,.15,0,.06,0s.08.02.09.02c.04.01.08.02.12.04s.08.03.12.04c.19.07-.08-.04.03.01.09.04.17.08.26.12.04.02.07.04.11.06.12.06-.03-.04.02.01.03.03.06.06.09.08.06.05-.06-.1,0,.01.04.08.02.03,0-.02.05.13.01-.08,0,0,0,.1.04-.13,0-.03s.1-.15,0,0c0,0-.06.09-.06.09,0,0,.1-.11.01-.02-.06.06-.12.12-.18.18-.13.13-.27.26-.39.4-.29.33-.55.69-.77,1.07l1.4.38c0-.08,0-.15,0-.23,0-.18-.04.15,0-.03.02-.07.03-.13.05-.2.01-.04.07-.25.01-.07.03-.1.12-.29.2-.35l-.05.06s.05-.06.08-.09c.05-.06.11-.11.17-.16.56-.49-.03-1.49-.73-1.25-.08.02-.15.05-.23.07l.92.52c0,.06-.01.22.03.1.14-.37-.16-.84-.52-.92-.43-.1-.77.13-.92.52-.28.7-.47,1.44-.52,2.19-.04.52.3.99.82,1.1.23.05.46.04.68-.04.12-.04.23-.11.35-.15-.18.05.07-.02.1-.02.38-.08.64-.55.52-.92-.13-.4-.51-.61-.92-.52-.16.03-.31.11-.46.17-.18.08.12-.08-.04.01h-.04c.12,0,.14,0,.06,0,.11,0,.22.04.29.13l.14.34s0-.06,0-.1c0-.02.03-.23.01-.13s.02-.11.02-.13c.09-.52.24-1.03.43-1.53l-1.45-.4c-.09.23-.07.46-.03.7.06.39.57.64.92.52.08-.02.15-.05.23-.07l-.73-1.25c-.6.52-.94,1.33-.9,2.13.01.32.22.65.55.72s.68-.05.85-.34c.06-.11.13-.22.2-.33.03-.04.06-.09.09-.13.01-.02.13-.18.08-.11-.06.08.05-.06.06-.08.04-.05.08-.1.13-.15.08-.09.16-.17.25-.25.4-.39.8-.82.77-1.42-.03-.64-.47-1.16-1.03-1.44s-1.17-.53-1.78-.34c-.37.11-.65.53-.52.92s.52.65.92.52h0Z" class="cls-9"/>
      <path d="M308.31,165.74s.24.03.1.01c.06,0,.13.02.19.03.14.02.28.05.41.08.27.06.54.13.81.21s.53.18.79.29c-.09-.04.03.02.07.03.06.03.12.05.17.08.14.07.27.14.41.21l.38-1.4c-.16-.01-.31-.03-.47-.04-.08,0-.16-.02-.23-.03.13.02-.09-.01-.11-.02-.31-.05-.63-.12-.93-.24-.03-.01-.06-.02-.09-.04.07.03.08.03.03.01-.06-.03-.12-.06-.18-.09-.12-.06-.22-.14-.33-.2-.04-.03-.04-.02.02.02-.03-.02-.05-.04-.07-.06-.05-.04-.1-.09-.14-.13s-.09-.1-.13-.14c-.03-.04-.03-.03.02.02-.03-.04-.05-.07-.07-.11l-1.18.91c.57.61,1.35,1.06,2.17,1.25.42.1.85.13,1.28.11.12,0,.24-.01.35,0,.05,0,.1,0,.16,0-.07,0-.06-.01,0,0,.04.01.08.02.12.03-.1-.03-.05,0,.02.01.07.02-.05-.07,0,0,.07.09-.09-.15.02.01l.85-1.1c-.49-.15-.98-.32-1.46-.52-.19-.08-.34-.14-.59-.25s-.48-.23-.71-.35c-.35-.18-.83-.1-1.03.27-.18.34-.1.84.27,1.03,1,.51,2.04.94,3.12,1.27.61.19,1.2-.55.85-1.1-.29-.45-.75-.71-1.27-.78-.45-.06-.91,0-1.37-.04.07,0,.07.01,0,0-.04,0-.09-.02-.13-.03-.1-.02-.2-.05-.29-.07s-.19-.06-.29-.1c.07.02.05.02,0,0-.04-.02-.08-.04-.12-.06-.18-.09-.35-.2-.52-.32.06.04.04.03,0,0-.03-.03-.07-.06-.1-.09-.08-.07-.16-.15-.24-.24-.58-.61-1.65.19-1.18.91.42.64,1.02,1.07,1.72,1.35s1.5.36,2.26.42,1.01-1.06.38-1.4c-1.16-.62-2.4-.99-3.71-1.14-.39-.04-.77.38-.75.75.02.44.33.7.75.75h0Z" class="cls-9"/>
      <path d="M308.05,164.18h-1.32c-.39.01-.77.35-.75.76.02.45.33.7.75.75-.18-.02.06,0,.09.01.06,0,.13.02.19.03.14.02.28.05.42.08.27.05.53.12.8.19.54.15,1.06.33,1.58.54l.4-1.45c-1.24-.21-2.49-.33-3.75-.34v1.5c.3,0,.59,0,.89,0,.39,0,.77-.35.75-.75s-.33-.75-.75-.75c-.3,0-.59,0-.89,0-.39,0-.77.35-.75.75s.33.75.75.75c.58,0,1.17.03,1.75.08.28.02.56.05.84.09.04,0,.21.03.08,0,.07,0,.14.02.21.03.16.02.32.05.48.08.39.06.83-.1.92-.52s-.13-.76-.52-.92c-1.12-.47-2.28-.75-3.48-.91v1.5h1.32c.39-.01.77-.35.75-.76s-.33-.75-.75-.75h0Z" class="cls-9"/>
      <path d="M314.2,164.52c1.07-.11,2.02.4,3.03.66s2.09.35,3.14.32,2.13-.18,3.19-.36c.98-.16,1.99-.28,2.87-.74.53-.28.47-1.28-.18-1.37-2.81-.42-5.63-.77-8.46-1.04-.61-.06-.87.67-.65,1.13.28.57.73,1.02,1.3,1.3l.76-1.3c-.75-.33-1.5-.67-2.26-1-.86-.38-1.63.84-.76,1.3,1.64.85,3.48,1.08,5.28.63l-.85-1.1c-.21.31-.65.06-.81-.16-.17-.23-.12-.5-.24-.74.03-.31-.04-.27-.21.1.1-.03.2-.05.3-.07,1.01-.18,2.05.14,2.82.81l.53-1.28c-1.08-.13-2.16-.26-3.24-.4-.9-.11-.92,1.19-.2,1.47,1.39.54,2.77.61,4.24.47,1.16-.12,2.37.73,3.45-.03l-.91-1.18c-.25.23-.45.49-.62.78-.3.5.09,1.12.65,1.13s1.1-.14,1.57-.48c.78-.56.12-1.72-.76-1.3-.46.22-.89.48-1.31.79-.77.57-.02,1.87.76,1.3.41-.31.84-.56,1.31-.79l-.76-1.3c-.27.19-.48.28-.82.27l.65,1.13c.11-.19.23-.33.39-.48.6-.57-.2-1.68-.91-1.18-.41.29-.97-.01-1.42-.1-.51-.11-.98-.1-1.5-.04-1.26.14-2.43.02-3.62-.44l-.2,1.47c1.08.13,2.16.26,3.24.4.65.08.99-.87.53-1.28-.83-.74-1.83-1.19-2.95-1.28-.94-.08-2.44.03-2.52,1.23-.06,1,.4,2.11,1.32,2.58s1.97.17,2.53-.65c.39-.57-.25-1.25-.85-1.1-1.4.34-2.84.18-4.12-.48l-.76,1.3c.75.33,1.5.67,2.26,1,.87.38,1.64-.87.76-1.3-.37-.18-.58-.39-.76-.76l-.65,1.13c2.7.27,5.39.59,8.07.99l-.18-1.37c-.81.42-1.87.49-2.76.63-1,.16-2.02.28-3.04.27s-1.98-.17-2.94-.48c-.9-.29-1.78-.6-2.74-.51s-.96,1.6,0,1.5h0Z" class="cls-9"/>
    </g>
  </g>
</svg>